<?xml version="1.0" standalone="no"?>
<!DOCTYPE svg PUBLIC "-//W3C//DTD SVG 1.1//EN" "http://www.w3.org/Graphics/SVG/1.1/DTD/svg11.dtd" >
<svg xmlns="http://www.w3.org/2000/svg" xmlns:xlink="http://www.w3.org/1999/xlink" version="1.1">
<metadata>
Created by FontForge 20170910 at Fri May 21 14:09:57 2010
 By Jimmy Wärting
Copyright (c) 2010 Linotype GmbH, www.linotype.com. All rights reserved. This font software may not be reproduced, modified, disclosed or transferred without the express written approval of Linotype GmbH.
</metadata>
<defs>
<font id="DINNextCYR-Italic" horiz-adv-x="517" >
  <font-face 
    font-family="DIN Next CYR"
    font-weight="400"
    font-style="italic"
    font-stretch="normal"
    units-per-em="1000"
    panose-1="2 11 5 3 2 2 3 12 2 3"
    ascent="750"
    descent="-250"
    x-height="479"
    cap-height="680"
    bbox="-153.081 -212 972 916"
    underline-thickness="50"
    underline-position="-100"
    slope="-10"
    stemh="58"
    stemv="81"
    unicode-range="U+000D-FB04"
  />
<missing-glyph horiz-adv-x="477" 
d="M467 0h-457c-6 0 -10 4 -10 10v660c0 6 4 10 10 10h457c6 0 10 -4 10 -10v-660c0 -6 -4 -10 -10 -10zM422 47c4 0 6 2 6 6v574c0 4 -2 6 -6 6h-367c-4 0 -6 -2 -6 -6v-574c0 -4 2 -6 6 -6h367zM247 231h-39c-6 0 -10 4 -10 10v24c0 28 6 42 20 60l44 60
c22 27 28 43 28 66c0 34 -24 58 -59 58s-57 -19 -65 -54c-1 -6 -5 -10 -12 -9l-37 6c-6 1 -9 5 -8 11c12 60 55 99 124 99s116 -48 116 -111c0 -34 -10 -58 -32 -84l-43 -60c-13 -16 -17 -26 -17 -48v-18c0 -6 -4 -10 -10 -10zM250 114h-45c-6 0 -10 4 -10 10v49
c0 6 4 10 10 10h45c6 0 10 -4 10 -10v-49c0 -6 -4 -10 -10 -10z" />
    <glyph glyph-name="napostrophe" unicode="&#x22;n" horiz-adv-x="522" 
d="M74 521c-6 0 -9 4 -8 10l24 139c1 6 5 10 11 10h57c6 0 9 -4 8 -10l-10 -60c-2 -8 -4 -14 -9 -20l-60 -62c-5 -5 -8 -7 -13 -7zM401 0h-60c-5 0 -9 4 -8 10l50 281c14 81 -12 127 -81 127c-61 0 -116 -49 -129 -121l-51 -287c-1 -6 -4 -10 -10 -10h-61c-5 0 -9 4 -8 10
l81 459c1 6 5 10 11 10h61c6 0 9 -4 8 -10l-9 -45h1c30 39 79 66 141 66c101 0 148 -70 129 -180l-54 -300c-1 -6 -5 -10 -11 -10z" />
    <glyph glyph-name="IJ" unicode="IJ" horiz-adv-x="716" 
d="M45 10l117 660c1 6 5 10 11 10h64c6 0 9 -4 8 -10l-117 -660c-1 -6 -4 -10 -10 -10h-64c-6 0 -10 4 -9 10zM253 62c-2 4 -2 9 3 14l50 35c5 4 10 4 15 -2c21 -22 53 -41 90 -41c76 0 127 44 146 147l80 455c1 6 5 10 11 10h64c6 0 9 -4 8 -10l-81 -455
c-30 -169 -109 -226 -235 -226c-64 0 -126 34 -151 73z" />
    <glyph glyph-name="fi" unicode="fi" horiz-adv-x="543" 
d="M523 591h-65c-6 0 -9 4 -8 10l12 69c1 6 5 10 11 10h66c6 0 9 -4 8 -10l-12 -69c-1 -7 -5 -10 -12 -10zM417 0h-60c-6 0 -10 4 -9 10l81 459c1 6 5 10 11 10h61c6 0 9 -4 8 -10l-82 -459c-1 -6 -4 -10 -10 -10zM127 0h-61c-5 0 -9 4 -8 10l71 399c1 4 -1 6 -4 6h-41
c-6 0 -8 4 -7 10l7 44c1 7 5 10 11 10h41c3 0 6 2 7 6l7 44c20 111 69 151 166 151h35c6 0 9 -4 8 -10l-9 -53c-1 -7 -6 -10 -11 -10h-25c-57 0 -73 -13 -84 -75l-9 -47c-1 -4 0 -6 4 -6h90c6 0 10 -4 9 -10l-8 -44c-1 -6 -5 -10 -12 -10h-89c-3 0 -5 -2 -6 -6l-72 -399
c-1 -6 -5 -10 -10 -10z" />
    <glyph glyph-name="fl" unicode="fl" horiz-adv-x="570" 
d="M487 -5h-32c-79 0 -103 39 -89 124l100 551c1 6 5 10 11 10h60c6 0 10 -4 9 -10l-101 -550c-6 -38 4 -51 36 -51h18c6 0 9 -4 8 -10l-8 -54c-1 -6 -6 -10 -12 -10zM127 0h-61c-5 0 -9 4 -8 10l71 399c1 4 -1 6 -4 6h-41c-6 0 -8 4 -7 10l7 44c1 7 5 10 11 10h41
c3 0 6 2 7 6l7 44c20 111 69 151 166 151h35c6 0 9 -4 8 -10l-9 -53c-1 -7 -6 -10 -11 -10h-25c-57 0 -73 -13 -84 -75l-9 -47c-1 -4 0 -6 4 -6h90c6 0 10 -4 9 -10l-8 -44c-1 -6 -5 -10 -12 -10h-89c-3 0 -5 -2 -6 -6l-72 -399c-1 -6 -5 -10 -10 -10z" />
    <glyph glyph-name="ij" unicode="ij" horiz-adv-x="475" 
d="M218 591h-65c-6 0 -9 4 -8 10l12 69c1 6 5 10 11 10h66c6 0 9 -4 8 -10l-12 -69c-1 -7 -5 -10 -12 -10zM112 0h-60c-6 0 -10 4 -9 10l81 459c1 6 5 10 11 10h61c6 0 9 -4 8 -10l-82 -459c-1 -6 -4 -10 -10 -10zM455 591h-65c-6 0 -9 4 -8 10l12 69c1 6 5 10 11 10h66
c6 0 9 -4 8 -10l-12 -69c-1 -7 -5 -10 -12 -10zM191 -180h-19c-6 0 -9 4 -8 10l9 53c1 7 6 10 12 10h13c46 0 64 15 73 67l90 509c1 6 5 10 11 10h61c6 0 9 -4 8 -10l-90 -508c-20 -112 -59 -141 -160 -141z" />
    <glyph glyph-name="f_f_l" unicode="ffl" horiz-adv-x="876" 
d="M792 -5h-32c-79 0 -103 39 -89 124l100 551c1 6 5 10 11 10h60c6 0 10 -4 9 -10l-101 -550c-6 -38 4 -51 36 -51h18c6 0 9 -4 8 -10l-8 -54c-1 -6 -6 -10 -12 -10zM127 0h-61c-5 0 -9 4 -8 10l71 399c1 4 -1 6 -4 6h-41c-6 0 -8 4 -7 10l7 44c1 7 5 10 11 10h41
c3 0 6 2 7 6l7 44c20 111 69 151 166 151h35c6 0 9 -4 8 -10l-9 -53c-1 -7 -6 -10 -11 -10h-25c-57 0 -73 -13 -84 -75l-9 -47c-1 -4 0 -6 4 -6h90c6 0 10 -4 9 -10l-8 -44c-1 -6 -5 -10 -12 -10h-89c-3 0 -5 -2 -6 -6l-72 -399c-1 -6 -5 -10 -10 -10zM432 0h-61
c-5 0 -9 4 -8 10l71 399c1 4 -1 6 -4 6h-41c-6 0 -8 4 -7 10l7 44c1 7 5 10 11 10h41c3 0 6 2 7 6l7 44c20 111 69 151 166 151h35c6 0 9 -4 8 -10l-9 -53c-1 -7 -6 -10 -11 -10h-25c-57 0 -73 -13 -84 -75l-9 -47c-1 -4 0 -6 4 -6h90c6 0 10 -4 9 -10l-8 -44
c-1 -6 -5 -10 -12 -10h-89c-3 0 -5 -2 -6 -6l-72 -399c-1 -6 -5 -10 -10 -10z" />
    <glyph glyph-name="f_f_i" unicode="ffi" horiz-adv-x="848" 
d="M828 591h-65c-6 0 -9 4 -8 10l12 69c1 6 5 10 11 10h66c6 0 9 -4 8 -10l-12 -69c-1 -7 -5 -10 -12 -10zM722 0h-60c-6 0 -10 4 -9 10l81 459c1 6 5 10 11 10h61c6 0 9 -4 8 -10l-82 -459c-1 -6 -4 -10 -10 -10zM127 0h-61c-5 0 -9 4 -8 10l71 399c1 4 -1 6 -4 6h-41
c-6 0 -8 4 -7 10l7 44c1 7 5 10 11 10h41c3 0 6 2 7 6l7 44c20 111 69 151 166 151h35c6 0 9 -4 8 -10l-9 -53c-1 -7 -6 -10 -11 -10h-25c-57 0 -73 -13 -84 -75l-9 -47c-1 -4 0 -6 4 -6h90c6 0 10 -4 9 -10l-8 -44c-1 -6 -5 -10 -12 -10h-89c-3 0 -5 -2 -6 -6l-72 -399
c-1 -6 -5 -10 -10 -10zM432 0h-61c-5 0 -9 4 -8 10l71 399c1 4 -1 6 -4 6h-41c-6 0 -8 4 -7 10l7 44c1 7 5 10 11 10h41c3 0 6 2 7 6l7 44c20 111 69 151 166 151h35c6 0 9 -4 8 -10l-9 -53c-1 -7 -6 -10 -11 -10h-25c-57 0 -73 -13 -84 -75l-9 -47c-1 -4 0 -6 4 -6h90
c6 0 10 -4 9 -10l-8 -44c-1 -6 -5 -10 -12 -10h-89c-3 0 -5 -2 -6 -6l-72 -399c-1 -6 -5 -10 -10 -10z" />
    <glyph glyph-name="f_f" unicode="ff" horiz-adv-x="610" 
d="M127 0h-61c-5 0 -9 4 -8 10l71 399c1 4 -1 6 -4 6h-41c-6 0 -8 4 -7 10l7 44c1 7 5 10 11 10h41c3 0 6 2 7 6l7 44c20 111 69 151 166 151h35c6 0 9 -4 8 -10l-9 -53c-1 -7 -6 -10 -11 -10h-25c-57 0 -73 -13 -84 -75l-9 -47c-1 -4 0 -6 4 -6h90c6 0 10 -4 9 -10l-8 -44
c-1 -6 -5 -10 -12 -10h-89c-3 0 -5 -2 -6 -6l-72 -399c-1 -6 -5 -10 -10 -10zM432 0h-61c-5 0 -9 4 -8 10l71 399c1 4 -1 6 -4 6h-41c-6 0 -8 4 -7 10l7 44c1 7 5 10 11 10h41c3 0 6 2 7 6l7 44c20 111 69 151 166 151h35c6 0 9 -4 8 -10l-9 -53c-1 -7 -6 -10 -11 -10h-25
c-57 0 -73 -13 -84 -75l-9 -47c-1 -4 0 -6 4 -6h90c6 0 10 -4 9 -10l-8 -44c-1 -6 -5 -10 -12 -10h-89c-3 0 -5 -2 -6 -6l-72 -399c-1 -6 -5 -10 -10 -10z" />
    <glyph glyph-name=".notdef" horiz-adv-x="477" 
d="M467 0h-457c-6 0 -10 4 -10 10v660c0 6 4 10 10 10h457c6 0 10 -4 10 -10v-660c0 -6 -4 -10 -10 -10zM422 47c4 0 6 2 6 6v574c0 4 -2 6 -6 6h-367c-4 0 -6 -2 -6 -6v-574c0 -4 2 -6 6 -6h367zM247 231h-39c-6 0 -10 4 -10 10v24c0 28 6 42 20 60l44 60
c22 27 28 43 28 66c0 34 -24 58 -59 58s-57 -19 -65 -54c-1 -6 -5 -10 -12 -9l-37 6c-6 1 -9 5 -8 11c12 60 55 99 124 99s116 -48 116 -111c0 -34 -10 -58 -32 -84l-43 -60c-13 -16 -17 -26 -17 -48v-18c0 -6 -4 -10 -10 -10zM250 114h-45c-6 0 -10 4 -10 10v49
c0 6 4 10 10 10h45c6 0 10 -4 10 -10v-49c0 -6 -4 -10 -10 -10z" />
    <glyph glyph-name=".null" horiz-adv-x="500" 
 />
    <glyph glyph-name=".null" horiz-adv-x="500" 
 />
    <glyph glyph-name="CR" unicode="&#xd;" horiz-adv-x="0" 
 />
    <glyph glyph-name="space" unicode=" " horiz-adv-x="232" 
 />
    <glyph glyph-name="exclam" unicode="!" horiz-adv-x="273" 
d="M111 183c-5 0 -8 4 -7 10l70 477c1 7 5 10 10 10h69c6 0 9 -4 8 -10l-99 -477c-1 -6 -5 -10 -11 -10h-40zM58 10l14 83c1 6 5 10 11 10h70c6 0 10 -4 9 -10l-14 -83c-1 -6 -5 -10 -11 -10h-71c-6 0 -9 4 -8 10z" />
    <glyph glyph-name="quotedbl" unicode="&#x22;" horiz-adv-x="317" 
d="M253 506c-6 0 -9 4 -8 10l27 154c1 6 5 10 11 10h41c6 0 9 -4 8 -10l-27 -154c-1 -6 -5 -10 -11 -10h-41zM127 506c-6 0 -9 4 -8 10l27 154c1 6 5 10 11 10h41c6 0 9 -4 8 -10l-27 -154c-1 -6 -5 -10 -11 -10h-41z" />
    <glyph glyph-name="numbersign" unicode="#" horiz-adv-x="494" 
d="M42 10l63 206h-71c-6 0 -10 4 -9 10l7 38c1 6 5 10 11 10h80l45 146h-74c-6 0 -9 4 -8 10l6 38c1 6 6 10 12 10h82l59 192c2 6 6 10 12 10h43c7 0 9 -4 7 -10l-59 -192h129l59 192c2 6 5 10 11 10h43c7 0 10 -4 8 -10l-59 -192h74c6 0 9 -4 8 -10l-7 -38
c-1 -6 -4 -10 -10 -10h-83l-45 -146h77c6 0 10 -4 9 -10l-7 -38c-1 -6 -6 -10 -11 -10h-86l-63 -206c-2 -6 -5 -10 -12 -10h-43c-7 0 -9 4 -7 10l63 206h-129l-63 -206c-2 -6 -5 -10 -12 -10h-43c-7 0 -9 4 -7 10zM185 274h129l45 146h-129z" />
    <glyph glyph-name="dollar" unicode="$" 
d="M30 58c-4 4 -4 9 1 14l40 44c5 5 10 4 14 1c28 -25 71 -50 126 -54l44 245c-94 18 -143 77 -143 159c0 124 87 216 210 223l9 50c1 6 6 10 11 10h27c5 0 9 -4 7 -10l-9 -51c55 -5 98 -25 132 -52c4 -4 5 -8 1 -14l-35 -42c-4 -5 -10 -6 -14 -3c-30 20 -61 33 -97 37
l-41 -235c100 -17 147 -73 147 -154c0 -135 -89 -224 -215 -235l-9 -51c-1 -6 -6 -10 -12 -10h-26c-6 0 -9 4 -8 10l8 50c-71 4 -128 32 -168 68zM269 388l40 227c-68 -9 -118 -65 -118 -137c0 -44 20 -75 78 -90zM258 65c76 13 122 75 122 147c0 42 -21 72 -81 88z" />
    <glyph glyph-name="percent" unicode="%" horiz-adv-x="748" 
d="M114 -1l500 682c5 7 8 10 15 10h44c6 0 8 -5 4 -10l-499 -682c-5 -7 -9 -10 -16 -10h-44c-6 0 -8 5 -4 10zM214 330c-57 0 -101 34 -101 95c0 33 19 150 37 187c24 49 62 76 122 76c57 0 100 -34 100 -95c0 -33 -18 -150 -36 -187c-24 -49 -62 -76 -122 -76zM221 385
c26 0 45 12 58 37c14 27 33 137 33 165s-17 46 -47 46c-26 0 -46 -12 -58 -37c-14 -27 -33 -137 -33 -165s17 -46 47 -46zM419 87c0 33 19 149 37 186c24 49 62 76 122 76c57 0 100 -34 100 -95c0 -33 -18 -149 -36 -186c-24 -50 -62 -77 -122 -77c-57 0 -101 34 -101 96z
M479 93c0 -29 17 -47 47 -47c26 0 46 13 58 37c15 28 34 137 34 165s-18 46 -48 46c-26 0 -45 -12 -58 -36c-14 -28 -33 -138 -33 -165z" />
    <glyph glyph-name="ampersand" unicode="&#x26;" horiz-adv-x="603" 
d="M42 135c0 79 40 150 171 245c-35 64 -54 104 -54 144c0 94 81 167 178 167c77 0 125 -52 125 -119c0 -66 -32 -121 -154 -208l93 -165l85 89c5 5 9 5 14 2l33 -35c4 -4 4 -9 -1 -14l-98 -103l23 -40c10 -18 20 -23 37 -23h19c6 0 9 -4 8 -10l-10 -55
c-1 -6 -5 -10 -11 -10h-23c-40 0 -57 9 -77 46l-20 36c-67 -64 -122 -93 -190 -93c-93 0 -148 61 -148 146zM275 425c94 67 112 101 112 135c0 38 -23 62 -62 62c-51 0 -89 -40 -89 -90c0 -26 9 -49 39 -107zM119 145c0 -49 31 -82 85 -82c44 0 81 22 142 80l-99 177
c-93 -67 -128 -115 -128 -175z" />
    <glyph glyph-name="quotesingle" unicode="'" horiz-adv-x="191" 
d="M127 506c-6 0 -9 4 -8 10l27 154c1 6 5 10 11 10h41c5 0 9 -4 8 -10l-27 -154c-1 -6 -5 -10 -11 -10h-41z" />
    <glyph glyph-name="parenleft" unicode="(" horiz-adv-x="280" 
d="M129 -74c-36 83 -55 177 -55 271c0 189 72 375 197 533c5 7 9 10 16 10h34c6 0 8 -4 4 -10c-107 -167 -176 -358 -176 -562c0 -86 12 -169 34 -242c2 -6 -1 -10 -7 -10h-34c-6 0 -10 3 -13 10z" />
    <glyph glyph-name="parenright" unicode=")" horiz-adv-x="280" 
d="M-7 -74c107 167 176 358 176 562c0 86 -12 169 -34 242c-2 6 1 10 7 10h34c6 0 10 -3 13 -10c37 -83 55 -177 55 -271c0 -189 -72 -375 -197 -533c-5 -7 -9 -10 -16 -10h-34c-6 0 -8 4 -4 10z" />
    <glyph glyph-name="asterisk" unicode="*" horiz-adv-x="335" 
d="M182 398c-6 0 -9 4 -8 10l16 89l-81 -44c-7 -4 -12 -3 -14 3l-10 26c-2 5 0 10 7 13l84 45l-67 45c-5 3 -6 9 -2 14l16 23c4 5 10 6 15 2l67 -46l15 92c1 6 6 10 12 10h27c6 0 9 -4 8 -10l-17 -90l83 46c7 4 12 2 14 -3l9 -26c2 -5 0 -10 -6 -13l-85 -46l68 -45
c5 -3 6 -9 2 -13l-17 -24c-3 -5 -9 -6 -14 -2l-68 45l-15 -91c-1 -6 -6 -10 -12 -10h-27z" />
    <glyph glyph-name="plus" unicode="+" 
d="M232 77v157c0 4 -2 6 -6 6h-156c-6 0 -10 4 -10 10v52c0 6 4 10 10 10h156c4 0 6 2 6 6v158c0 6 4 10 10 10h53c6 0 10 -4 10 -10v-158c0 -4 2 -6 6 -6h156c6 0 10 -4 10 -10v-52c0 -6 -4 -10 -10 -10h-156c-4 0 -6 -2 -6 -6v-157c0 -6 -4 -10 -10 -10h-53
c-6 0 -10 4 -10 10z" />
    <glyph glyph-name="comma" unicode="," horiz-adv-x="226" 
d="M20 -97l32 190c1 6 5 10 11 10h65c6 0 9 -4 8 -10l-15 -90c-2 -10 -4 -15 -9 -22l-71 -81c-4 -5 -8 -7 -13 -7c-6 0 -9 4 -8 10z" />
    <glyph glyph-name="hyphen" unicode="-" horiz-adv-x="361" 
d="M58 230c-6 0 -9 4 -8 10l9 53c1 6 6 9 12 9h253c6 0 9 -4 8 -10l-8 -53c-1 -6 -6 -9 -12 -9h-254z" />
    <glyph glyph-name="period" unicode="." horiz-adv-x="226" 
d="M33 10l13 83c1 6 5 10 11 10h71c6 0 9 -4 8 -10l-13 -83c-1 -6 -5 -10 -11 -10h-71c-6 0 -9 4 -8 10z" />
    <glyph glyph-name="slash" unicode="/" horiz-adv-x="391" 
d="M17 -1l333 682c3 7 7 10 14 10h51c6 0 8 -4 5 -10l-332 -682c-3 -7 -8 -10 -14 -10h-52c-6 0 -8 4 -5 10z" />
    <glyph glyph-name="zero" unicode="0" 
d="M62 144c0 72 50 359 81 423c42 86 110 124 197 124c99 0 159 -60 159 -155c0 -72 -50 -359 -81 -423c-41 -86 -109 -124 -196 -124c-100 0 -160 60 -160 155zM143 150c0 -51 28 -88 88 -88c52 0 89 26 112 72c26 52 75 332 75 396c0 51 -28 88 -88 88
c-52 0 -89 -25 -111 -71c-27 -52 -76 -333 -76 -397z" />
    <glyph glyph-name="one" unicode="1" 
d="M202 10l101 570h-2l-124 -81c-6 -4 -12 -1 -10 7l11 69c1 6 4 11 9 14l129 85c6 4 11 6 17 6h56c6 0 10 -4 9 -10l-117 -660c-1 -6 -5 -10 -11 -10h-59c-6 0 -10 4 -9 10z" />
    <glyph glyph-name="two" unicode="2" 
d="M36 10l8 49c1 4 4 9 9 14l289 314c48 52 72 93 72 143c0 52 -32 87 -87 87c-62 0 -106 -40 -127 -102c-2 -6 -6 -9 -12 -8l-55 12c-5 1 -7 5 -5 11c23 82 92 161 206 161c99 0 162 -64 162 -150c0 -74 -33 -130 -96 -198l-250 -268v-2h255c6 0 10 -4 9 -10l-10 -53
c-1 -6 -5 -10 -11 -10h-348c-6 0 -10 4 -9 10z" />
    <glyph glyph-name="three" unicode="3" 
d="M50 132c-1 6 2 10 9 12l57 15c5 1 9 -1 10 -7c7 -45 31 -89 102 -89c80 0 139 68 139 152c0 62 -37 101 -101 101h-28c-6 0 -9 4 -8 10l9 54c1 6 5 9 11 9h27c77 0 134 65 134 141c0 52 -32 87 -88 87c-63 0 -102 -39 -122 -85c-2 -6 -7 -9 -12 -8l-54 14
c-5 1 -7 6 -5 12c26 76 102 141 207 141c100 0 156 -59 156 -145c0 -81 -43 -151 -112 -186v-2c36 -17 68 -61 68 -128c0 -141 -94 -241 -229 -241c-106 0 -165 62 -170 143z" />
    <glyph glyph-name="four" unicode="4" 
d="M40 122c-6 0 -9 3 -8 9l8 51c1 5 3 8 6 14l293 476c4 6 8 8 15 8h62c6 0 8 -4 5 -9l-288 -475v-2h170c4 0 7 2 8 6l32 180c1 6 5 10 11 10h60c6 0 10 -4 9 -10l-32 -180c-1 -4 1 -6 5 -6h59c6 0 9 -4 8 -10l-8 -53c-1 -6 -6 -9 -12 -9h-60c-4 0 -6 -2 -7 -6l-19 -106
c-1 -6 -5 -10 -11 -10h-60c-6 0 -9 4 -8 10l19 106c1 4 -1 6 -5 6h-252z" />
    <glyph glyph-name="five" unicode="5" 
d="M66 132c0 6 3 11 8 12l58 13c6 1 9 -2 10 -8c2 -50 31 -86 92 -86c47 0 86 22 109 68c20 39 33 116 33 155c0 58 -28 89 -85 89c-53 0 -94 -32 -110 -66c-3 -7 -6 -10 -13 -10h-55c-6 0 -8 3 -7 10l64 361c1 6 4 10 10 10h327c6 0 10 -4 9 -10l-9 -53
c-1 -6 -6 -10 -12 -10h-257c-4 0 -6 -2 -7 -6l-36 -199h2c20 22 62 46 118 46c90 0 141 -48 141 -144c0 -50 -16 -150 -42 -204c-37 -76 -100 -111 -188 -111c-100 0 -161 60 -160 143z" />
    <glyph glyph-name="six" unicode="6" 
d="M53 153c0 67 22 127 71 198l223 322c4 6 7 7 14 7h64c7 0 8 -4 5 -10l-196 -284l2 -1c14 10 40 16 70 16c90 0 153 -60 153 -157c0 -139 -94 -255 -237 -255c-101 0 -169 61 -169 164zM133 164c0 -61 37 -101 98 -101c86 0 147 76 147 164c0 61 -37 102 -99 102
c-86 0 -146 -77 -146 -165z" />
    <glyph glyph-name="seven" unicode="7" 
d="M101 11l330 594v2h-202c-4 0 -6 -2 -7 -6l-16 -87c-1 -6 -5 -10 -11 -10h-56c-6 0 -9 4 -8 10l28 156c1 6 5 10 11 10h347c7 0 10 -4 9 -10l-10 -56c-1 -5 -2 -8 -5 -13l-329 -592c-4 -7 -8 -9 -16 -9h-61c-5 0 -8 4 -4 11z" />
    <glyph glyph-name="eight" unicode="8" 
d="M49 149c0 86 46 169 126 209l1 2c-31 20 -54 59 -54 111c0 108 77 220 218 220c101 0 158 -66 158 -151c0 -75 -40 -144 -106 -182l-1 -2c40 -23 68 -68 68 -129c0 -128 -95 -238 -237 -238c-106 0 -173 64 -173 160zM289 394c73 0 129 61 129 136c0 50 -32 87 -88 87
c-72 0 -128 -60 -128 -135c0 -51 32 -88 87 -88zM129 163c0 -59 38 -100 102 -100c82 0 148 68 148 157c0 59 -38 101 -102 101c-82 0 -148 -70 -148 -158z" />
    <glyph glyph-name="nine" unicode="9" 
d="M131 10l195 284l-2 1c-14 -10 -38 -15 -68 -15c-91 0 -154 66 -154 162c0 129 90 249 238 249c101 0 169 -61 169 -164c0 -66 -25 -129 -72 -197l-223 -323c-4 -5 -7 -7 -14 -7h-63c-7 0 -9 5 -6 10zM283 351c87 0 146 79 146 163c0 62 -36 103 -99 103
c-87 0 -146 -78 -146 -163c0 -61 36 -103 99 -103z" />
    <glyph glyph-name="colon" unicode=":" horiz-adv-x="226" 
d="M108 376c-6 0 -10 4 -9 10l14 83c1 6 5 10 11 10h71c6 0 9 -4 8 -10l-13 -83c-1 -6 -5 -10 -11 -10h-71zM33 10l13 83c1 6 5 10 11 10h71c6 0 9 -4 8 -10l-13 -83c-1 -6 -5 -10 -11 -10h-71c-6 0 -9 4 -8 10z" />
    <glyph glyph-name="semicolon" unicode=";" horiz-adv-x="226" 
d="M108 376c-6 0 -10 4 -9 10l14 83c1 6 5 10 11 10h71c6 0 9 -4 8 -10l-13 -83c-1 -6 -5 -10 -11 -10h-71zM17 -97l32 190c1 6 5 10 11 10h65c6 0 10 -4 9 -10l-15 -90c-2 -10 -5 -15 -10 -22l-71 -81c-4 -5 -8 -7 -13 -7s-9 4 -8 10z" />
    <glyph glyph-name="less" unicode="&#x3c;" 
d="M65 240c-6 3 -10 7 -10 14v44c0 7 4 11 10 14l397 162c6 2 10 0 10 -6v-60c0 -7 -3 -10 -10 -13l-304 -118v-2l304 -118c7 -3 10 -6 10 -13v-60c0 -6 -4 -8 -10 -6z" />
    <glyph glyph-name="equal" unicode="=" 
d="M60 338c-6 0 -10 4 -10 10v53c0 6 4 10 10 10h397c6 0 10 -4 10 -10v-53c0 -6 -4 -10 -10 -10h-397zM60 141c-6 0 -10 4 -10 10v53c0 6 4 10 10 10h397c6 0 10 -4 10 -10v-53c0 -6 -4 -10 -10 -10h-397z" />
    <glyph glyph-name="greater" unicode="&#x3e;" 
d="M56 84v60c0 7 3 10 10 13l303 118v2l-303 118c-7 3 -10 6 -10 13v60c0 6 4 8 10 6l397 -162c6 -3 10 -7 10 -14v-44c0 -7 -4 -11 -10 -14l-397 -162c-6 -2 -10 0 -10 6z" />
    <glyph glyph-name="question" unicode="?" horiz-adv-x="437" 
d="M179 181c-6 0 -9 4 -8 10l8 41c7 40 19 64 44 92l78 90c50 54 69 86 69 127c0 47 -30 76 -79 76c-55 0 -98 -39 -120 -97c-2 -6 -6 -9 -12 -8l-57 10c-6 1 -7 5 -5 11c30 97 107 158 207 158c91 0 147 -57 147 -138c0 -55 -24 -104 -78 -163l-77 -90
c-25 -27 -32 -41 -39 -76l-8 -33c-1 -6 -5 -10 -11 -10h-59zM136 10l13 83c1 6 5 10 11 10h71c6 0 9 -4 8 -10l-13 -83c-1 -6 -5 -10 -11 -10h-71c-6 0 -9 4 -8 10z" />
    <glyph glyph-name="at" unicode="@" horiz-adv-x="868" 
d="M51 200c0 272 177 460 447 460c196 0 328 -126 328 -316c0 -166 -66 -288 -197 -288c-54 0 -92 28 -102 72h-1c-30 -46 -74 -72 -139 -72c-69 0 -124 46 -124 132c0 53 14 133 39 183c32 66 84 99 150 99c58 0 90 -27 102 -57h2l6 37c1 6 6 10 10 10h49c6 0 8 -4 7 -10
l-43 -246c-11 -61 17 -86 54 -86c80 0 121 102 121 217c0 164 -108 263 -273 263c-220 0 -369 -165 -369 -395c0 -164 106 -266 272 -266c93 0 146 19 206 47c5 2 10 1 12 -5l14 -41c2 -5 -1 -10 -7 -13c-67 -35 -137 -52 -235 -52c-197 0 -329 131 -329 327zM330 200
c0 -49 23 -81 76 -82c44 0 78 20 100 65c19 38 30 103 30 143c0 49 -24 81 -76 82c-43 0 -78 -20 -100 -65c-18 -36 -30 -105 -30 -143z" />
    <glyph glyph-name="A" unicode="A" horiz-adv-x="586" 
d="M-6 0c-6 0 -8 4 -5 10l344 660c3 6 7 10 14 10h60c7 0 10 -4 11 -10l107 -660c1 -6 -2 -10 -8 -10h-62c-6 0 -10 3 -11 10l-24 152h-265l-78 -152c-3 -7 -7 -10 -13 -10h-70zM194 238h215l-49 316h-3z" />
    <glyph glyph-name="B" unicode="B" horiz-adv-x="583" 
d="M45 10l117 660c1 6 5 10 11 10h229c113 0 170 -55 170 -146c0 -88 -42 -150 -119 -182v-2c35 -12 75 -52 75 -122c0 -140 -86 -228 -247 -228h-227c-6 0 -10 4 -9 10zM200 384h148c84 0 139 57 139 133c0 54 -35 87 -99 87h-149c-4 0 -6 -2 -7 -6l-36 -208
c-1 -4 1 -6 4 -6zM141 82c-1 -4 0 -6 4 -6h154c89 0 146 58 146 140c0 55 -35 91 -105 91h-153c-4 0 -6 -2 -7 -6z" />
    <glyph glyph-name="C" unicode="C" horiz-adv-x="544" 
d="M60 188c0 66 35 276 71 349c52 107 129 154 239 154c92 0 159 -51 183 -140c2 -5 0 -9 -6 -11l-55 -26c-6 -2 -11 0 -12 5c-18 56 -54 94 -120 94c-71 0 -120 -37 -153 -104c-31 -65 -62 -254 -62 -313c0 -80 42 -129 123 -129c64 0 114 39 149 93c3 5 8 7 13 5l52 -28
c5 -2 5 -7 2 -12c-58 -96 -132 -136 -229 -136c-118 0 -195 70 -195 199z" />
    <glyph glyph-name="D" unicode="D" horiz-adv-x="602" 
d="M45 10l117 660c1 6 5 10 11 10h219c124 0 185 -65 185 -183c0 -85 -32 -283 -72 -365c-48 -99 -121 -132 -232 -132h-219c-6 0 -10 4 -9 10zM141 84c-1 -4 1 -6 5 -6h122c81 0 134 29 167 95c29 59 61 239 61 307c0 87 -46 122 -135 122h-122c-4 0 -6 -1 -7 -6z" />
    <glyph glyph-name="E" unicode="E" horiz-adv-x="540" 
d="M45 10l117 660c1 6 5 10 11 10h390c6 0 10 -4 9 -10l-10 -58c-1 -6 -6 -10 -12 -10h-311c-4 0 -6 -2 -7 -6l-36 -207c-1 -4 1 -6 5 -6h264c6 0 9 -4 8 -10l-10 -58c-1 -6 -6 -10 -12 -10h-264c-4 0 -6 -2 -7 -6l-39 -215c-1 -4 1 -6 5 -6h311c6 0 9 -4 8 -10l-10 -58
c-1 -6 -5 -10 -11 -10h-390c-6 0 -10 4 -9 10z" />
    <glyph glyph-name="F" unicode="F" horiz-adv-x="533" 
d="M45 10l117 660c1 6 5 10 11 10h390c6 0 10 -4 9 -10l-10 -58c-1 -6 -6 -10 -12 -10h-311c-4 0 -6 -2 -7 -6l-38 -214c0 -4 1 -6 5 -6h264c6 0 10 -4 9 -10l-10 -58c-1 -6 -6 -10 -12 -10h-264c-4 0 -6 -2 -7 -6l-51 -282c-1 -6 -5 -10 -10 -10h-64c-6 0 -10 4 -9 10z" />
    <glyph glyph-name="G" unicode="G" horiz-adv-x="592" 
d="M60 188c0 66 35 277 71 351c52 105 134 152 251 152c96 0 169 -57 189 -135c1 -6 -1 -11 -6 -13l-56 -25c-6 -2 -10 1 -11 5c-22 60 -65 90 -130 90c-74 0 -128 -39 -160 -104s-63 -254 -63 -313c0 -81 46 -129 126 -129c72 0 125 33 158 101c13 26 25 62 33 111
c1 4 -1 6 -5 6h-127c-5 0 -8 4 -7 10l9 54c1 6 5 10 11 10h208c5 0 8 -4 7 -10l-9 -50c-9 -56 -27 -124 -43 -158c-52 -106 -132 -152 -248 -152c-118 0 -198 70 -198 199z" />
    <glyph glyph-name="H" unicode="H" horiz-adv-x="627" 
d="M45 10l117 660c1 6 5 10 11 10h64c6 0 9 -4 8 -10l-50 -281c-1 -4 1 -6 5 -6h287c4 0 6 2 7 6l50 281c1 6 4 10 10 10h64c6 0 10 -4 9 -10l-117 -660c-1 -6 -5 -10 -11 -10h-64c-6 0 -9 4 -8 10l51 289c1 4 -1 6 -5 6h-286c-4 0 -6 -2 -7 -6l-52 -289
c-1 -6 -4 -10 -10 -10h-64c-6 0 -10 4 -9 10z" />
    <glyph glyph-name="I" unicode="I" horiz-adv-x="245" 
d="M45 10l117 660c1 6 5 10 11 10h64c6 0 9 -4 8 -10l-117 -660c-1 -6 -4 -10 -10 -10h-64c-6 0 -10 4 -9 10z" />
    <glyph glyph-name="J" unicode="J" horiz-adv-x="473" 
d="M8 62c-2 4 -2 9 3 14l50 35c5 4 10 4 15 -2c21 -22 53 -41 90 -41c76 0 127 44 146 147l80 455c1 6 5 10 11 10h64c6 0 9 -4 8 -10l-81 -455c-30 -169 -109 -226 -235 -226c-64 0 -126 34 -151 73z" />
    <glyph glyph-name="K" unicode="K" horiz-adv-x="593" 
d="M45 10l117 660c1 6 5 10 11 10h64c6 0 9 -4 8 -10l-62 -348l338 349c7 7 11 9 18 9h79c5 0 8 -6 3 -12l-255 -259l148 -398c2 -6 -1 -11 -8 -11h-64c-7 0 -10 2 -13 9l-124 337l-144 -148l-33 -188c-1 -6 -4 -10 -10 -10h-64c-6 0 -10 4 -9 10z" />
    <glyph glyph-name="L" unicode="L" horiz-adv-x="515" 
d="M45 10l117 660c1 6 5 10 11 10h64c6 0 9 -4 8 -10l-104 -586c-1 -4 1 -6 5 -6h312c5 0 8 -4 7 -10l-10 -58c-1 -6 -5 -10 -10 -10h-391c-6 0 -10 4 -9 10z" />
    <glyph glyph-name="M" unicode="M" horiz-adv-x="726" 
d="M45 10l117 660c1 6 5 10 11 10h55c8 0 12 -3 13 -10l117 -458h3l277 458c4 7 9 10 15 10h64c6 0 10 -4 9 -10l-117 -660c-1 -6 -5 -10 -11 -10h-58c-6 0 -9 4 -8 10l86 480h-3l-235 -381c-5 -8 -10 -12 -19 -12h-36c-9 0 -13 4 -16 13l-98 381h-3l-86 -481
c-1 -6 -5 -10 -11 -10h-57c-6 0 -10 4 -9 10z" />
    <glyph glyph-name="N" unicode="N" horiz-adv-x="627" 
d="M45 10l117 660c1 6 5 10 11 10h60c7 0 11 -3 14 -10l206 -519h4l93 519c1 6 5 10 11 10h58c6 0 9 -4 8 -10l-116 -660c-1 -6 -5 -10 -11 -10h-60c-6 0 -11 3 -14 10l-208 519h-4l-92 -519c-1 -6 -5 -10 -11 -10h-57c-6 0 -10 4 -9 10z" />
    <glyph glyph-name="O" unicode="O" horiz-adv-x="593" 
d="M257 -11c-119 0 -197 70 -197 199c0 66 35 277 71 351c52 105 132 152 248 152c119 0 197 -70 197 -199c0 -66 -35 -277 -72 -351c-51 -105 -131 -152 -247 -152zM270 67c73 0 126 39 158 104s63 254 63 313c0 81 -45 129 -125 129c-73 0 -126 -39 -158 -104
s-63 -254 -63 -313c0 -81 45 -129 125 -129z" />
    <glyph glyph-name="P" unicode="P" horiz-adv-x="568" 
d="M118 0h-64c-6 0 -9 4 -8 10l116 660c1 6 5 10 11 10h231c112 0 176 -61 176 -159c0 -159 -103 -244 -246 -244h-151c-4 0 -7 -2 -7 -6l-47 -261c-1 -6 -5 -10 -11 -10zM341 355c92 0 156 57 156 153c0 59 -39 94 -110 94h-147c-4 0 -6 -2 -7 -6l-42 -235c-1 -4 1 -6 5 -6
h145z" />
    <glyph glyph-name="Q" unicode="Q" horiz-adv-x="595" 
d="M497 -17l-44 -28c-6 -4 -13 -3 -16 3l-38 64c-40 -22 -87 -33 -142 -33c-119 0 -197 70 -197 199c0 66 35 277 71 351c52 105 132 152 248 152c119 0 197 -70 197 -199c0 -66 -35 -277 -72 -351c-14 -28 -29 -51 -47 -71l44 -72c3 -5 2 -11 -4 -15zM270 67
c33 0 63 8 88 23l-52 87c-3 5 -2 11 4 15l44 28c6 4 13 3 16 -3l43 -72c5 8 10 16 15 26c32 65 63 254 63 313c0 81 -45 129 -125 129c-73 0 -126 -39 -158 -104s-63 -254 -63 -313c0 -81 45 -129 125 -129z" />
    <glyph glyph-name="R" unicode="R" horiz-adv-x="593" 
d="M492 0h-64c-7 0 -10 3 -12 10l-83 281h-148c-4 0 -7 -2 -7 -6l-50 -275c-1 -6 -5 -10 -10 -10h-64c-6 0 -10 4 -9 10l117 660c1 6 5 10 11 10h234c108 0 175 -60 175 -157c0 -113 -69 -196 -170 -223l87 -288c3 -7 -1 -12 -7 -12zM350 368c89 1 148 55 148 143
c0 59 -39 91 -106 91h-153c-4 0 -6 -2 -7 -6l-39 -222c-1 -4 1 -6 5 -6h152z" />
    <glyph glyph-name="S" unicode="S" horiz-adv-x="569" 
d="M243 -11c-89 0 -177 39 -217 85c-3 4 -3 9 1 14l47 47c5 5 11 5 14 1c38 -36 97 -68 172 -68c100 0 168 61 168 144c0 51 -26 76 -115 90l-31 5c-108 17 -165 71 -165 162c0 134 102 222 244 222c76 0 148 -28 190 -65c5 -4 5 -8 0 -14l-37 -46c-4 -5 -9 -6 -14 -2
c-46 32 -94 49 -150 49c-86 0 -146 -59 -146 -134c0 -50 29 -79 117 -93l31 -5c110 -18 163 -67 163 -155c0 -146 -109 -237 -272 -237z" />
    <glyph glyph-name="T" unicode="T" horiz-adv-x="514" 
d="M252 0h-64c-5 0 -9 4 -8 10l104 586c1 4 -1 6 -5 6h-180c-6 0 -9 4 -8 10l10 58c1 6 5 10 11 10h454c6 0 10 -4 9 -10l-10 -58c-1 -6 -6 -10 -12 -10h-180c-3 0 -5 -2 -6 -6l-104 -586c-1 -6 -5 -10 -11 -10z" />
    <glyph glyph-name="U" unicode="U" horiz-adv-x="613" 
d="M281 -11c-145 0 -228 91 -200 251l76 430c1 6 5 10 11 10h64c6 0 9 -4 8 -10l-76 -433c-20 -112 29 -170 123 -170c91 0 148 40 172 170l76 433c1 6 5 10 11 10h63c6 0 10 -4 9 -10l-78 -440c-31 -178 -119 -241 -259 -241z" />
    <glyph glyph-name="V" unicode="V" horiz-adv-x="543" 
d="M262 0h-56c-6 0 -9 4 -10 10l-96 658c-1 8 3 12 9 12h61c8 0 12 -3 13 -10l73 -533h2l258 533c4 7 8 10 16 10h65c6 0 10 -4 6 -12l-328 -658c-4 -6 -7 -10 -13 -10z" />
    <glyph glyph-name="W" unicode="W" horiz-adv-x="795" 
d="M563 0h-51c-6 0 -9 4 -10 10l-47 517h-2l-233 -517c-3 -6 -7 -10 -13 -10h-52c-5 0 -9 4 -10 10l-41 660c0 6 3 10 10 10h60c6 0 10 -4 10 -10l25 -513h2l229 513c3 6 7 10 13 10h47c6 0 9 -4 10 -10l48 -513h2l206 513c2 7 6 10 13 10h65c7 0 9 -4 7 -10l-276 -660
c-2 -6 -6 -10 -12 -10z" />
    <glyph glyph-name="X" unicode="X" horiz-adv-x="539" 
d="M470 0h-69c-7 0 -11 3 -13 9l-102 264h-2l-199 -264c-5 -6 -8 -9 -14 -9h-77c-6 0 -8 6 -4 12l258 343l-124 313c-3 6 0 12 7 12h70c7 0 10 -3 13 -9l91 -234h1l176 234c5 6 8 9 16 9h74c6 0 8 -6 4 -12l-235 -313l136 -343c3 -6 -1 -12 -7 -12z" />
    <glyph glyph-name="Y" unicode="Y" horiz-adv-x="509" 
d="M249 0h-63c-6 0 -10 4 -9 10l48 269l-125 390c-1 6 2 11 9 11h63c7 0 11 -3 13 -10l94 -297h3l200 297c5 7 9 10 16 10h65c8 0 10 -5 7 -11l-262 -391l-48 -268c-1 -6 -5 -10 -11 -10z" />
    <glyph glyph-name="Z" unicode="Z" horiz-adv-x="516" 
d="M422 0h-402c-6 0 -10 4 -9 10l10 58c1 5 4 9 7 14l411 519v1h-301c-6 0 -9 4 -8 10l10 58c1 6 5 10 11 10h391c6 0 9 -4 8 -10l-9 -55c-1 -5 -3 -9 -7 -14l-413 -522v-1h315c6 0 9 -4 8 -10l-10 -58c-1 -6 -6 -10 -12 -10z" />
    <glyph glyph-name="bracketleft" unicode="[" horiz-adv-x="272" 
d="M174 -84h-137c-6 0 -9 4 -8 10l142 804c1 6 5 10 11 10h137c5 0 8 -4 7 -10l-8 -45c-1 -6 -5 -10 -10 -10h-67c-4 0 -7 -2 -7 -6l-121 -682c-1 -4 1 -6 5 -6h67c5 0 8 -4 7 -10l-7 -45c-1 -6 -6 -10 -11 -10z" />
    <glyph glyph-name="backslash" unicode="\" horiz-adv-x="391" 
d="M286 -11h-51c-7 0 -10 4 -11 10l-92 682c0 6 2 10 8 10h51c6 0 10 -4 11 -10l91 -682c1 -6 -1 -10 -7 -10z" />
    <glyph glyph-name="bracketright" unicode="]" horiz-adv-x="272" 
d="M130 -84h-137c-6 0 -9 4 -8 10l8 45c1 6 5 10 11 10h68c4 0 5 2 6 6l121 682c1 4 0 6 -4 6h-67c-6 0 -10 4 -9 10l7 45c1 6 6 10 12 10h137c6 0 9 -4 8 -10l-142 -804c-1 -6 -5 -10 -11 -10z" />
    <glyph glyph-name="asciicircum" unicode="^" 
d="M469 273h-53c-7 0 -11 3 -14 10l-133 298h-2l-133 -298c-3 -7 -7 -10 -14 -10h-53c-6 0 -9 4 -6 10l173 387c3 6 7 10 14 10h41c7 0 11 -4 14 -10l173 -387c3 -6 -1 -10 -7 -10z" />
    <glyph glyph-name="underscore" unicode="_" horiz-adv-x="460" 
d="M409 -77l-9 -52h-456l9 52h456z" />
    <glyph glyph-name="grave" unicode="`" horiz-adv-x="409" 
d="M347 557h-41c-9 0 -11 2 -16 10l-66 123c-3 5 1 10 7 10h58c8 0 11 -3 14 -10l52 -123c2 -6 -2 -10 -8 -10z" />
    <glyph glyph-name="a" unicode="a" horiz-adv-x="498" 
d="M376 0h-55c-6 0 -9 4 -8 10l7 43h-1c-27 -37 -76 -64 -148 -64c-78 0 -132 47 -132 121c0 111 76 169 208 169h105c4 0 6 2 7 6l7 39c12 68 -7 96 -92 96c-55 0 -92 -17 -118 -37c-6 -4 -11 -4 -14 1l-18 45c-2 5 -1 10 3 13c39 29 99 48 165 48c127 0 172 -46 151 -162
l-56 -318c-1 -6 -5 -10 -11 -10zM202 56c72 0 124 37 134 98l10 56c1 4 -1 6 -5 6h-92c-94 0 -131 -35 -131 -95c0 -40 27 -65 84 -65z" />
    <glyph glyph-name="b" unicode="b" horiz-adv-x="516" 
d="M254 -11c-68 0 -106 32 -122 70h-1l-9 -49c-1 -6 -4 -10 -10 -10h-60c-6 0 -10 4 -9 10l117 660c1 6 5 10 11 10h60c6 0 9 -4 8 -10l-43 -247h1c29 38 74 67 143 67c90 0 140 -61 140 -157c0 -70 -22 -178 -49 -233c-38 -77 -97 -111 -177 -111zM245 62
c52 0 91 27 115 76c22 43 38 131 38 180c0 61 -24 100 -90 100c-50 0 -91 -25 -118 -79c-16 -32 -36 -131 -36 -179c0 -60 29 -98 91 -98z" />
    <glyph glyph-name="c" unicode="c" horiz-adv-x="449" 
d="M207 -11c-102 0 -161 62 -161 165c0 55 14 147 45 212c39 81 109 124 200 124c70 0 118 -31 142 -86c2 -6 1 -10 -4 -14l-43 -31c-5 -3 -11 -2 -14 3c-20 38 -45 56 -89 56c-48 0 -92 -28 -118 -79c-25 -51 -38 -134 -38 -171c0 -68 28 -106 92 -106c40 0 76 17 112 57
c4 5 9 6 13 2l36 -37c4 -4 4 -9 0 -14c-41 -51 -101 -81 -173 -81z" />
    <glyph glyph-name="d" unicode="d" horiz-adv-x="516" 
d="M390 0h-61c-6 0 -9 4 -8 10l8 47h-1c-29 -38 -74 -68 -143 -68c-90 0 -140 61 -140 157c0 70 22 178 49 233c38 77 97 111 177 111c68 0 106 -32 122 -69h1l43 249c1 6 5 10 11 10h60c6 0 10 -4 9 -10l-116 -660c-1 -6 -5 -10 -11 -10zM217 62c50 0 91 25 118 78
c16 33 36 132 36 179c0 60 -29 99 -91 99c-53 0 -91 -28 -116 -77c-21 -42 -37 -131 -37 -179c0 -62 24 -100 90 -100z" />
    <glyph glyph-name="e" unicode="e" horiz-adv-x="485" 
d="M212 -11c-109 0 -166 62 -166 168c0 62 14 150 42 207c38 80 105 126 202 126c92 0 160 -56 160 -163c0 -25 -3 -52 -12 -101c-1 -6 -6 -10 -12 -10h-293c-4 0 -6 -2 -7 -6c-3 -16 -3 -27 -3 -41c0 -73 34 -107 102 -107c52 0 98 25 130 57c6 5 11 4 15 1l31 -35
c4 -4 4 -10 -1 -15c-45 -46 -110 -81 -188 -81zM145 279h216c4 0 7 2 8 6c3 14 4 29 4 40c0 64 -33 95 -93 95c-52 0 -96 -26 -120 -76c-8 -16 -15 -39 -19 -59c-1 -4 0 -6 4 -6z" />
    <glyph glyph-name="f" unicode="f" horiz-adv-x="305" 
d="M127 0h-61c-5 0 -9 4 -8 10l71 399c1 4 -1 6 -4 6h-41c-6 0 -8 4 -7 10l7 44c1 7 5 10 11 10h41c3 0 6 2 7 6l7 44c20 111 69 151 166 151h35c6 0 9 -4 8 -10l-9 -53c-1 -7 -6 -10 -11 -10h-25c-57 0 -73 -13 -84 -75l-9 -47c-1 -4 0 -6 4 -6h90c6 0 10 -4 9 -10l-8 -44
c-1 -6 -5 -10 -12 -10h-89c-3 0 -5 -2 -6 -6l-72 -399c-1 -6 -5 -10 -10 -10z" />
    <glyph glyph-name="g" unicode="g" horiz-adv-x="507" 
d="M167 -191c-68 0 -123 30 -150 75c-4 6 -3 12 2 15l42 36c6 4 11 4 15 -2c25 -30 55 -50 100 -50c75 0 123 42 138 133l11 55h-1c-29 -41 -72 -66 -137 -66c-93 0 -138 61 -138 153c0 55 16 157 44 216c37 76 97 116 176 116c65 0 102 -29 116 -69h1l9 48c1 6 5 10 11 10
h59c6 0 9 -4 8 -10l-79 -449c-28 -152 -100 -211 -227 -211zM218 78c45 0 84 22 109 73c20 40 37 125 37 169c0 60 -28 98 -88 98c-50 0 -85 -26 -110 -75c-23 -46 -37 -117 -37 -168c0 -61 26 -97 89 -97z" />
    <glyph glyph-name="h" unicode="h" horiz-adv-x="522" 
d="M401 0h-60c-5 0 -9 4 -8 10l50 281c14 81 -12 127 -81 127c-61 0 -116 -49 -129 -121l-51 -287c-1 -6 -4 -10 -10 -10h-61c-5 0 -9 4 -8 10l117 660c1 6 5 10 11 10h60c6 0 9 -4 8 -10l-44 -246h1c30 39 79 66 141 66c101 0 148 -70 129 -180l-54 -300
c-1 -6 -5 -10 -11 -10z" />
    <glyph glyph-name="i" unicode="i" horiz-adv-x="238" 
d="M218 591h-65c-6 0 -9 4 -8 10l12 69c1 6 5 10 11 10h66c6 0 9 -4 8 -10l-12 -69c-1 -7 -5 -10 -12 -10zM112 0h-60c-6 0 -10 4 -9 10l81 459c1 6 5 10 11 10h61c6 0 9 -4 8 -10l-82 -459c-1 -6 -4 -10 -10 -10z" />
    <glyph glyph-name="j" unicode="j" horiz-adv-x="238" 
d="M218 591h-65c-6 0 -9 4 -8 10l12 69c1 6 5 10 11 10h66c6 0 9 -4 8 -10l-12 -69c-1 -7 -5 -10 -12 -10zM-46 -180h-19c-6 0 -9 4 -8 10l9 53c1 7 6 10 12 10h13c46 0 64 15 73 67l90 509c1 6 5 10 11 10h61c6 0 9 -4 8 -10l-90 -508c-20 -112 -59 -141 -160 -141z" />
    <glyph glyph-name="k" unicode="k" horiz-adv-x="492" 
d="M415 0h-63c-7 0 -10 3 -13 10l-94 233l-101 -106l-22 -127c-1 -6 -5 -10 -11 -10h-60c-6 0 -9 4 -8 10l117 660c1 6 5 10 11 10h60c6 0 9 -4 8 -10l-74 -417l215 217c7 7 11 9 19 9h73c6 0 8 -5 4 -10l-172 -171l119 -288c2 -5 -2 -10 -8 -10z" />
    <glyph glyph-name="l" unicode="l" horiz-adv-x="265" 
d="M182 -5h-32c-79 0 -103 39 -89 124l100 551c1 6 5 10 11 10h60c6 0 10 -4 9 -10l-101 -550c-6 -38 4 -51 36 -51h18c6 0 9 -4 8 -10l-8 -54c-1 -6 -6 -10 -12 -10z" />
    <glyph glyph-name="m" unicode="m" horiz-adv-x="811" 
d="M690 0h-59c-5 0 -9 4 -8 10l50 281c14 81 -12 127 -81 127c-61 0 -117 -48 -130 -121l-50 -287c-1 -6 -5 -10 -11 -10h-60c-6 0 -10 4 -9 10l50 281c15 80 -11 127 -81 127c-60 0 -116 -49 -128 -121l-52 -287c-1 -6 -4 -10 -10 -10h-60c-6 0 -9 4 -8 10l81 459
c1 6 5 10 11 10h60c6 0 9 -4 8 -10l-8 -45h1c29 39 78 66 140 66c65 0 106 -28 122 -77h1c38 47 92 77 163 77c106 0 152 -70 133 -180l-54 -300c-1 -6 -5 -10 -11 -10z" />
    <glyph glyph-name="n" unicode="n" horiz-adv-x="522" 
d="M401 0h-60c-5 0 -9 4 -8 10l50 281c14 81 -12 127 -81 127c-61 0 -116 -49 -129 -121l-51 -287c-1 -6 -4 -10 -10 -10h-61c-5 0 -9 4 -8 10l81 459c1 6 5 10 11 10h61c6 0 9 -4 8 -10l-9 -45h1c30 39 79 66 141 66c101 0 148 -70 129 -180l-54 -300c-1 -6 -5 -10 -11 -10
z" />
    <glyph glyph-name="o" unicode="o" horiz-adv-x="494" 
d="M209 -11c-104 0 -163 62 -163 165c0 64 21 164 46 214c42 85 111 122 203 122c103 0 163 -62 163 -164c0 -65 -22 -164 -47 -215c-41 -85 -111 -122 -202 -122zM220 62c53 0 93 27 119 78c18 38 37 127 37 173c0 66 -26 105 -93 105c-53 0 -92 -27 -118 -79
c-19 -37 -38 -127 -38 -172c0 -67 27 -105 93 -105z" />
    <glyph glyph-name="p" unicode="p" horiz-adv-x="516" 
d="M81 -180h-61c-6 0 -9 4 -8 10l112 639c1 6 5 10 11 10h61c6 0 9 -4 8 -10l-8 -46h1c29 38 74 67 143 67c90 0 140 -61 140 -157c0 -70 -22 -178 -49 -233c-38 -77 -97 -111 -177 -111c-68 0 -106 32 -122 70h-1l-40 -229c-1 -6 -4 -10 -10 -10zM245 62c52 0 91 27 115 76
c22 43 38 131 38 180c0 61 -24 100 -90 100c-50 0 -91 -25 -118 -79c-16 -32 -36 -131 -36 -179c0 -60 29 -98 91 -98z" />
    <glyph glyph-name="q" unicode="q" horiz-adv-x="516" 
d="M358 -180h-60c-6 0 -9 4 -8 10l40 226h-1c-29 -38 -75 -67 -143 -67c-90 0 -140 60 -140 157c0 70 22 178 49 233c38 77 97 111 177 111c68 0 106 -31 121 -69h1l9 48c1 6 4 10 10 10h61c6 0 10 -4 9 -10l-114 -639c-1 -6 -5 -10 -11 -10zM217 62c50 0 92 25 118 78
c16 33 36 132 36 179c0 60 -27 99 -90 99c-52 0 -91 -28 -116 -77c-21 -42 -38 -131 -38 -179c0 -62 24 -100 90 -100z" />
    <glyph glyph-name="r" unicode="r" horiz-adv-x="394" 
d="M112 0h-60c-6 0 -10 4 -9 10l81 459c1 6 5 10 11 10h61c6 0 9 -4 8 -10l-10 -51h1c27 43 74 72 132 72c38 0 70 -14 89 -36c3 -4 4 -9 0 -14l-41 -44c-4 -5 -9 -5 -14 -2c-18 14 -39 24 -67 24c-70 0 -110 -62 -125 -145l-47 -263c-1 -6 -4 -10 -10 -10z" />
    <glyph glyph-name="s" unicode="s" horiz-adv-x="470" 
d="M202 -11c-88 0 -150 38 -181 71c-3 4 -2 10 2 14l43 41c5 4 10 3 13 0c31 -31 77 -54 133 -54c76 0 122 43 122 91c0 33 -20 50 -75 55l-48 5c-84 9 -122 50 -122 113c0 104 83 165 196 165c62 0 123 -25 155 -53c4 -3 4 -9 1 -13l-38 -39c-4 -5 -9 -6 -14 -2
c-27 18 -68 37 -116 37c-64 0 -105 -37 -105 -82c0 -31 18 -48 77 -54l47 -5c84 -8 121 -49 121 -110c0 -109 -80 -180 -211 -180z" />
    <glyph glyph-name="t" unicode="t" horiz-adv-x="302" 
d="M210 -5h-36c-89 0 -117 41 -100 135l52 279c1 4 -1 6 -5 6h-40c-6 0 -9 4 -8 10l8 44c1 7 5 10 11 10h41c4 0 6 2 7 6l24 135c1 6 5 10 11 10h60c6 0 9 -4 8 -10l-24 -135c-1 -4 1 -6 4 -6h75c6 0 9 -4 8 -10l-8 -44c-1 -6 -5 -10 -11 -10h-75c-3 0 -5 -2 -6 -6l-52 -275
c-9 -52 3 -65 48 -65h20c6 0 9 -4 8 -10l-9 -54c-1 -6 -5 -10 -11 -10z" />
    <glyph glyph-name="u" unicode="u" horiz-adv-x="518" 
d="M129 479h60c6 0 9 -4 8 -10l-50 -280c-14 -81 11 -126 80 -126c60 0 114 47 127 120l50 286c1 6 5 10 11 10h61c5 0 9 -4 8 -10l-81 -459c-1 -6 -5 -10 -11 -10h-61c-5 0 -9 4 -8 10l8 45h-1c-32 -39 -78 -66 -138 -66c-100 0 -147 71 -127 181l54 299c1 6 5 10 10 10z
" />
    <glyph glyph-name="v" unicode="v" horiz-adv-x="460" 
d="M219 0h-55c-5 0 -9 4 -10 10l-84 459c0 6 2 10 9 10h61c6 0 10 -2 11 -10l58 -351h2l182 351c3 8 7 10 13 10h65c7 0 10 -4 7 -10l-247 -459c-3 -6 -6 -10 -12 -10z" />
    <glyph glyph-name="w" unicode="w" horiz-adv-x="715" 
d="M490 0h-53c-6 0 -9 4 -10 10l-41 352h-2l-170 -352c-3 -6 -7 -10 -13 -10h-53c-6 0 -9 4 -10 10l-63 459c-1 6 1 10 8 10h58c7 0 11 -2 12 -10l40 -354h1l168 354c3 7 7 10 13 10h50c6 0 10 -3 11 -10l44 -354h1l164 354c3 8 6 10 13 10h65c6 0 8 -4 5 -10l-225 -459
c-3 -7 -7 -10 -13 -10z" />
    <glyph glyph-name="x" unicode="x" horiz-adv-x="460" 
d="M386 0h-63c-7 0 -10 2 -13 9l-81 174h-1l-144 -174c-5 -7 -9 -9 -15 -9h-71c-7 0 -9 5 -5 10l200 241l-104 218c-2 5 1 10 8 10h65c6 0 10 -1 13 -8l71 -153h1l126 153c6 7 10 8 16 8h69c6 0 8 -5 4 -10l-181 -219l113 -240c2 -5 0 -10 -8 -10z" />
    <glyph glyph-name="y" unicode="y" horiz-adv-x="460" 
d="M38 -180h-25c-6 0 -10 4 -8 10l9 53c1 7 6 10 12 10h17c38 0 61 18 92 76l23 45l-88 455c-1 6 1 10 8 10h63c7 0 10 -2 11 -10l59 -350h2l182 350c3 8 7 10 13 10h64c7 0 10 -4 7 -10l-273 -508c-60 -111 -101 -141 -168 -141z" />
    <glyph glyph-name="z" unicode="z" horiz-adv-x="457" 
d="M358 0h-333c-6 0 -9 4 -8 10l8 49c1 4 3 7 6 11l310 337v1h-232c-6 0 -9 4 -8 10l9 51c1 6 5 10 11 10h321c6 0 9 -4 8 -10l-9 -51c-1 -5 -2 -8 -6 -12l-308 -332v-2h243c6 0 9 -4 8 -10l-9 -52c-1 -6 -4 -10 -11 -10z" />
    <glyph glyph-name="braceleft" unicode="{" horiz-adv-x="313" 
d="M215 -84h-43c-66 0 -94 37 -81 111l32 186c10 57 -6 79 -44 81c-6 0 -9 4 -8 10l9 53c1 6 5 10 11 10c40 0 62 22 73 81l33 182c13 74 53 110 120 110h42c6 0 9 -4 8 -10l-7 -44c-1 -7 -5 -10 -11 -10h-25c-30 0 -49 -15 -55 -51l-31 -176c-13 -76 -34 -103 -79 -119v-1
c39 -16 49 -48 37 -118l-32 -180c-6 -37 5 -51 35 -51h26c6 0 9 -4 8 -10l-8 -44c-1 -6 -4 -10 -10 -10z" />
    <glyph glyph-name="bar" unicode="|" horiz-adv-x="280" 
d="M177 -84h-47c-6 0 -10 4 -10 10v804c0 6 4 10 10 10h47c6 0 10 -4 10 -10v-804c0 -6 -4 -10 -10 -10z" />
    <glyph glyph-name="braceright" unicode="}" horiz-adv-x="313" 
d="M37 -84h-43c-6 0 -9 4 -8 10l7 44c1 7 5 10 11 10h26c30 0 48 15 54 51l32 181c14 76 35 103 79 118v2c-38 16 -49 47 -37 117l31 176c7 37 -5 51 -35 51h-26c-6 0 -9 4 -8 10l8 44c1 6 4 10 11 10h42c67 0 94 -37 82 -111l-32 -181c-10 -57 6 -80 44 -81
c6 -1 9 -4 8 -10l-8 -53c-1 -6 -6 -10 -12 -10c-39 -1 -62 -22 -73 -81l-34 -187c-13 -74 -53 -110 -119 -110z" />
    <glyph glyph-name="asciitilde" unicode="~" 
d="M344 210c-42 0 -75 19 -101 37c-23 15 -46 28 -71 28c-34 0 -55 -17 -77 -53c-3 -5 -8 -6 -13 -3l-34 21c-6 4 -7 7 -3 14c26 55 73 88 128 88c42 0 74 -19 101 -37c23 -16 45 -28 71 -28c34 0 54 17 76 53c3 5 8 6 14 2l33 -21c6 -3 7 -7 3 -14
c-25 -54 -72 -87 -127 -87z" />
    <glyph glyph-name="uni00A0" unicode="&#xa0;" horiz-adv-x="232" 
 />
    <glyph glyph-name="Agrave" unicode="&#xc0;" horiz-adv-x="586" 
d="M-6 0c-6 0 -8 4 -5 10l344 660c3 6 7 10 14 10h60c7 0 10 -4 11 -10l107 -660c1 -6 -2 -10 -8 -10h-62c-6 0 -10 3 -11 10l-24 152h-265l-78 -152c-3 -7 -7 -10 -13 -10h-70zM194 238h215l-49 316h-3zM404 763h-45c-8 0 -10 1 -16 8l-82 106c-3 5 0 11 5 11h61
c10 0 14 -3 19 -10l64 -105c3 -6 0 -10 -6 -10z" />
    <glyph glyph-name="Aacute" unicode="&#xc1;" horiz-adv-x="586" 
d="M-6 0c-6 0 -8 4 -5 10l344 660c3 6 7 10 14 10h60c7 0 10 -4 11 -10l107 -660c1 -6 -2 -10 -8 -10h-62c-6 0 -10 3 -11 10l-24 152h-265l-78 -152c-3 -7 -7 -10 -13 -10h-70zM194 238h215l-49 316h-3zM415 763h-45c-6 0 -8 5 -4 10l97 105c6 6 12 10 20 10h66
c6 0 9 -5 3 -10l-118 -107c-8 -7 -12 -8 -19 -8z" />
    <glyph glyph-name="Acircumflex" unicode="&#xc2;" horiz-adv-x="586" 
d="M-6 0c-6 0 -8 4 -5 10l344 660c3 6 7 10 14 10h60c7 0 10 -4 11 -10l107 -660c1 -6 -2 -10 -8 -10h-62c-6 0 -10 3 -11 10l-24 152h-265l-78 -152c-3 -7 -7 -10 -13 -10h-70zM194 238h215l-49 316h-3zM510 754h-38c-8 0 -11 2 -17 10l-48 75h-1l-77 -75
c-7 -8 -11 -10 -20 -10h-43c-6 0 -8 5 -3 10l112 124c6 7 11 9 18 9h39c7 0 10 -2 14 -9l69 -124c3 -5 0 -10 -5 -10z" />
    <glyph glyph-name="Atilde" unicode="&#xc3;" horiz-adv-x="586" 
d="M-6 0c-6 0 -8 4 -5 10l344 660c3 6 7 10 14 10h60c7 0 10 -4 11 -10l107 -660c1 -6 -2 -10 -8 -10h-62c-6 0 -10 3 -11 10l-24 152h-265l-78 -152c-3 -7 -7 -10 -13 -10h-70zM194 238h215l-49 316h-3zM443 770c-24 0 -40 8 -58 20c-15 11 -28 18 -47 18
c-24 0 -45 -12 -66 -31c-4 -4 -9 -2 -8 3l8 45c2 8 4 12 10 18c21 19 44 29 70 29c25 0 40 -8 58 -20c16 -11 29 -18 47 -18c25 0 45 12 66 32c4 4 9 1 8 -3l-8 -46c-1 -8 -4 -11 -10 -17c-21 -20 -44 -30 -70 -30z" />
    <glyph glyph-name="Adieresis" unicode="&#xc4;" horiz-adv-x="586" 
d="M-6 0c-6 0 -8 4 -5 10l344 660c3 6 7 10 14 10h60c7 0 10 -4 11 -10l107 -660c1 -6 -2 -10 -8 -10h-62c-6 0 -10 3 -11 10l-24 152h-265l-78 -152c-3 -7 -7 -10 -13 -10h-70zM194 238h215l-49 316h-3zM517 778h-56c-6 0 -9 4 -8 10l13 70c1 6 5 10 11 10h55
c6 0 9 -4 8 -10l-12 -70c-1 -6 -5 -10 -11 -10zM327 778h-56c-6 0 -9 4 -8 10l13 70c1 6 5 10 11 10h55c6 0 9 -4 8 -10l-12 -70c-1 -6 -5 -10 -11 -10z" />
    <glyph glyph-name="Amacron" unicode="&#x100;" horiz-adv-x="586" 
d="M-6 0c-6 0 -8 4 -5 10l344 660c3 6 7 10 14 10h60c7 0 10 -4 11 -10l107 -660c1 -6 -2 -10 -8 -10h-62c-6 0 -10 3 -11 10l-24 152h-265l-78 -152c-3 -7 -7 -10 -13 -10h-70zM194 238h215l-49 316h-3zM519 792h-244c-6 0 -9 4 -8 10l6 41c1 7 5 10 11 10h245
c6 0 9 -4 8 -10l-7 -41c-1 -6 -5 -10 -11 -10z" />
    <glyph glyph-name="Abreve" unicode="&#x102;" horiz-adv-x="586" 
d="M-6 0c-6 0 -8 4 -5 10l344 660c3 6 7 10 14 10h60c7 0 10 -4 11 -10l107 -660c1 -6 -2 -10 -8 -10h-62c-6 0 -10 3 -11 10l-24 152h-265l-78 -152c-3 -7 -7 -10 -13 -10h-70zM194 238h215l-49 316h-3zM392 762c-73 0 -114 46 -109 111c0 6 4 10 10 10h31
c6 0 10 -3 11 -10c3 -36 26 -54 66 -54c41 0 70 19 87 54c3 7 6 10 13 10h32c6 0 9 -4 7 -10c-19 -65 -75 -111 -148 -111z" />
    <glyph glyph-name="Aring" unicode="&#xc5;" horiz-adv-x="586" 
d="M-6 0c-6 0 -8 4 -5 10l344 660c3 6 7 10 14 10h60c7 0 10 -4 11 -10l107 -660c1 -6 -2 -10 -8 -10h-62c-6 0 -10 3 -11 10l-24 152h-265l-78 -152c-3 -7 -7 -10 -13 -10h-70zM194 238h215l-49 316h-3zM383 730c-45 0 -76 31 -76 75c0 60 44 111 108 111
c45 0 76 -32 76 -76c0 -59 -44 -110 -108 -110zM390 769c33 0 60 27 60 65c0 25 -16 43 -42 43c-33 0 -60 -27 -60 -65c0 -25 16 -43 42 -43z" />
    <glyph glyph-name="Aogonek" unicode="&#x104;" horiz-adv-x="586" 
d="M422 -180c-39 0 -68 22 -68 63c0 39 26 78 94 120c-2 1 -4 3 -4 7l-24 152h-265l-78 -152c-3 -7 -7 -10 -13 -10h-70c-6 0 -8 4 -5 10l344 660c3 6 7 10 14 10h60c7 0 10 -4 11 -10l107 -660c1 -5 -1 -8 -5 -10c-75 -45 -98 -72 -98 -97c0 -14 8 -21 22 -21
c10 0 17 2 28 8c5 3 9 1 11 -3l11 -34c2 -5 0 -9 -5 -13c-18 -12 -43 -20 -67 -20zM357 554l-163 -316h215l-49 316h-3z" />
    <glyph glyph-name="AE" unicode="&#xc6;" horiz-adv-x="898" 
d="M802 0h-390c-6 0 -10 4 -9 10l26 146c1 4 -1 6 -5 6h-232l-108 -152c-5 -7 -9 -10 -15 -10h-75c-6 0 -8 4 -4 10l470 660c4 6 8 10 15 10h446c6 0 10 -4 9 -10l-10 -58c-1 -6 -6 -10 -12 -10h-310c-4 0 -6 -2 -7 -6l-37 -207c-1 -4 1 -6 5 -6h264c6 0 9 -4 8 -10l-10 -58
c-1 -6 -6 -10 -12 -10h-264c-4 0 -6 -2 -7 -6l-39 -215c-1 -4 1 -6 5 -6h311c6 0 9 -4 8 -10l-10 -58c-1 -6 -5 -10 -11 -10zM506 601l-259 -363h190c4 0 6 2 7 6l64 357h-2z" />
    <glyph glyph-name="Cacute" unicode="&#x106;" horiz-adv-x="544" 
d="M60 188c0 66 35 276 71 349c52 107 129 154 239 154c92 0 159 -51 183 -140c2 -5 0 -9 -6 -11l-55 -26c-6 -2 -11 0 -12 5c-18 56 -54 94 -120 94c-71 0 -120 -37 -153 -104c-31 -65 -62 -254 -62 -313c0 -80 42 -129 123 -129c64 0 114 39 149 93c3 5 8 7 13 5l52 -28
c5 -2 5 -7 2 -12c-58 -96 -132 -136 -229 -136c-118 0 -195 70 -195 199zM388 763h-45c-6 0 -8 5 -4 10l97 105c6 6 12 10 20 10h66c6 0 9 -5 3 -10l-118 -107c-8 -7 -12 -8 -19 -8z" />
    <glyph glyph-name="Ccircumflex" unicode="&#x108;" horiz-adv-x="544" 
d="M60 188c0 66 35 276 71 349c52 107 129 154 239 154c92 0 159 -51 183 -140c2 -5 0 -9 -6 -11l-55 -26c-6 -2 -11 0 -12 5c-18 56 -54 94 -120 94c-71 0 -120 -37 -153 -104c-31 -65 -62 -254 -62 -313c0 -80 42 -129 123 -129c64 0 114 39 149 93c3 5 8 7 13 5l52 -28
c5 -2 5 -7 2 -12c-58 -96 -132 -136 -229 -136c-118 0 -195 70 -195 199zM505 754h-38c-8 0 -11 2 -17 10l-48 75h-1l-77 -75c-7 -8 -11 -10 -20 -10h-43c-6 0 -8 5 -3 10l112 124c6 7 11 9 18 9h39c7 0 10 -2 14 -9l69 -124c3 -5 0 -10 -5 -10z" />
    <glyph glyph-name="Ccaron" unicode="&#x10c;" horiz-adv-x="544" 
d="M60 188c0 66 35 276 71 349c52 107 129 154 239 154c92 0 159 -51 183 -140c2 -5 0 -9 -6 -11l-55 -26c-6 -2 -11 0 -12 5c-18 56 -54 94 -120 94c-71 0 -120 -37 -153 -104c-31 -65 -62 -254 -62 -313c0 -80 42 -129 123 -129c64 0 114 39 149 93c3 5 8 7 13 5l52 -28
c5 -2 5 -7 2 -12c-58 -96 -132 -136 -229 -136c-118 0 -195 70 -195 199zM400 753h-39c-7 0 -10 2 -14 9l-69 124c-3 5 0 10 5 10h38c8 0 11 -2 17 -10l48 -75h1l76 75c8 8 12 10 21 10h43c6 0 8 -5 3 -10l-112 -124c-6 -7 -11 -9 -18 -9z" />
    <glyph glyph-name="Cdotaccent" unicode="&#x10a;" horiz-adv-x="544" 
d="M413 778h-66c-6 0 -9 4 -8 10l12 70c1 6 5 10 11 10h66c6 0 9 -4 8 -10l-12 -70c-1 -6 -5 -10 -11 -10zM60 188c0 66 35 276 71 349c52 107 129 154 239 154c92 0 159 -51 183 -140c2 -5 0 -9 -6 -11l-55 -26c-6 -2 -11 0 -12 5c-18 56 -54 94 -120 94
c-71 0 -120 -37 -153 -104c-31 -65 -62 -254 -62 -313c0 -80 42 -129 123 -129c64 0 114 39 149 93c3 5 8 7 13 5l52 -28c5 -2 5 -7 2 -12c-58 -96 -132 -136 -229 -136c-118 0 -195 70 -195 199z" />
    <glyph glyph-name="Ccedilla" unicode="&#xc7;" horiz-adv-x="544" 
d="M194 -151h-51c-6 0 -8 4 -5 10l75 133c-94 15 -153 83 -153 196c0 66 35 276 71 349c52 107 129 154 239 154c92 0 159 -51 183 -140c2 -5 0 -9 -6 -11l-55 -26c-6 -2 -11 0 -12 5c-18 56 -54 94 -120 94c-71 0 -120 -37 -153 -104c-31 -65 -62 -254 -62 -313
c0 -80 42 -129 123 -129c64 0 114 39 149 93c3 5 8 7 13 5l52 -28c5 -2 5 -7 2 -12c-54 -89 -121 -130 -208 -135l-65 -131c-4 -8 -9 -10 -17 -10z" />
    <glyph glyph-name="Dcaron" unicode="&#x10e;" horiz-adv-x="602" 
d="M397 753h-39c-7 0 -10 2 -14 9l-69 124c-3 5 0 10 5 10h38c8 0 11 -2 17 -10l48 -75h1l76 75c8 8 12 10 21 10h43c6 0 8 -5 3 -10l-112 -124c-6 -7 -11 -9 -18 -9zM45 10l117 660c1 6 5 10 11 10h219c124 0 185 -65 185 -183c0 -85 -32 -283 -72 -365
c-48 -99 -121 -132 -232 -132h-219c-6 0 -10 4 -9 10zM141 84c-1 -4 1 -6 5 -6h122c81 0 134 29 167 95c29 59 61 239 61 307c0 87 -46 122 -135 122h-122c-4 0 -6 -1 -7 -6z" />
    <glyph glyph-name="Dcroat" unicode="&#x110;" horiz-adv-x="602" 
d="M273 0h-219c-6 0 -10 4 -9 10l53 295c1 4 -1 6 -5 6h-32c-6 0 -9 4 -8 10l8 47c1 6 6 10 12 10h31c3 0 6 1 7 6l51 286c1 6 5 10 11 10h219c124 0 185 -65 185 -183c0 -85 -32 -283 -72 -365c-48 -99 -121 -132 -232 -132zM268 78c81 0 134 29 167 95
c29 59 61 239 61 307c0 87 -46 122 -135 122h-122c-4 0 -6 -1 -7 -6l-38 -212c-1 -4 1 -6 5 -6h109c6 0 9 -4 8 -10l-8 -47c-1 -6 -5 -10 -11 -10h-109c-4 0 -6 -2 -7 -6l-40 -221c-1 -4 1 -6 5 -6h122z" />
    <glyph glyph-name="Eth" unicode="&#xd0;" horiz-adv-x="602" 
d="M273 0h-219c-6 0 -10 4 -9 10l53 295c1 4 -1 6 -5 6h-32c-6 0 -9 4 -8 10l8 47c1 6 6 10 12 10h31c3 0 6 1 7 6l51 286c1 6 5 10 11 10h219c124 0 185 -65 185 -183c0 -85 -32 -283 -72 -365c-48 -99 -121 -132 -232 -132zM268 78c81 0 134 29 167 95
c29 59 61 239 61 307c0 87 -46 122 -135 122h-122c-4 0 -6 -1 -7 -6l-38 -212c-1 -4 1 -6 5 -6h109c6 0 9 -4 8 -10l-8 -47c-1 -6 -5 -10 -11 -10h-109c-4 0 -6 -2 -7 -6l-40 -221c-1 -4 1 -6 5 -6h122z" />
    <glyph glyph-name="Egrave" unicode="&#xc8;" horiz-adv-x="540" 
d="M403 763h-45c-8 0 -10 1 -16 8l-82 106c-3 5 0 11 5 11h61c10 0 14 -3 19 -10l64 -105c3 -6 0 -10 -6 -10zM45 10l117 660c1 6 5 10 11 10h390c6 0 10 -4 9 -10l-10 -58c-1 -6 -6 -10 -12 -10h-311c-4 0 -6 -2 -7 -6l-36 -207c-1 -4 1 -6 5 -6h264c6 0 9 -4 8 -10
l-10 -58c-1 -6 -6 -10 -12 -10h-264c-4 0 -6 -2 -7 -6l-39 -215c-1 -4 1 -6 5 -6h311c6 0 9 -4 8 -10l-10 -58c-1 -6 -5 -10 -11 -10h-390c-6 0 -10 4 -9 10z" />
    <glyph glyph-name="Eacute" unicode="&#xc9;" horiz-adv-x="540" 
d="M380 763h-45c-6 0 -8 5 -4 10l97 105c6 6 12 10 20 10h66c6 0 9 -5 3 -10l-118 -107c-8 -7 -12 -8 -19 -8zM45 10l117 660c1 6 5 10 11 10h390c6 0 10 -4 9 -10l-10 -58c-1 -6 -6 -10 -12 -10h-311c-4 0 -6 -2 -7 -6l-36 -207c-1 -4 1 -6 5 -6h264c6 0 9 -4 8 -10
l-10 -58c-1 -6 -6 -10 -12 -10h-264c-4 0 -6 -2 -7 -6l-39 -215c-1 -4 1 -6 5 -6h311c6 0 9 -4 8 -10l-10 -58c-1 -6 -5 -10 -11 -10h-390c-6 0 -10 4 -9 10z" />
    <glyph glyph-name="Ecircumflex" unicode="&#xca;" horiz-adv-x="540" 
d="M45 10l117 660c1 6 5 10 11 10h390c6 0 10 -4 9 -10l-10 -58c-1 -6 -6 -10 -12 -10h-311c-4 0 -6 -2 -7 -6l-36 -207c-1 -4 1 -6 5 -6h264c6 0 9 -4 8 -10l-10 -58c-1 -6 -6 -10 -12 -10h-264c-4 0 -6 -2 -7 -6l-39 -215c-1 -4 1 -6 5 -6h311c6 0 9 -4 8 -10l-10 -58
c-1 -6 -5 -10 -11 -10h-390c-6 0 -10 4 -9 10zM505 754h-38c-8 0 -11 2 -17 10l-48 75h-1l-77 -75c-7 -8 -11 -10 -20 -10h-43c-6 0 -8 5 -3 10l112 124c6 7 11 9 18 9h39c7 0 10 -2 14 -9l69 -124c3 -5 0 -10 -5 -10z" />
    <glyph glyph-name="Ecaron" unicode="&#x11a;" horiz-adv-x="540" 
d="M401 753h-39c-7 0 -10 2 -14 9l-69 124c-3 5 0 10 5 10h38c8 0 11 -2 17 -10l48 -75h1l76 75c8 8 12 10 21 10h43c6 0 8 -5 3 -10l-112 -124c-6 -7 -11 -9 -18 -9zM45 10l117 660c1 6 5 10 11 10h390c6 0 10 -4 9 -10l-10 -58c-1 -6 -6 -10 -12 -10h-311
c-4 0 -6 -2 -7 -6l-36 -207c-1 -4 1 -6 5 -6h264c6 0 9 -4 8 -10l-10 -58c-1 -6 -6 -10 -12 -10h-264c-4 0 -6 -2 -7 -6l-39 -215c-1 -4 1 -6 5 -6h311c6 0 9 -4 8 -10l-10 -58c-1 -6 -5 -10 -11 -10h-390c-6 0 -10 4 -9 10z" />
    <glyph glyph-name="Edieresis" unicode="&#xcb;" horiz-adv-x="540" 
d="M513 778h-56c-6 0 -9 4 -8 10l13 70c1 6 5 10 11 10h55c6 0 9 -4 8 -10l-12 -70c-1 -6 -5 -10 -11 -10zM323 778h-56c-6 0 -9 4 -8 10l13 70c1 6 5 10 11 10h55c6 0 9 -4 8 -10l-12 -70c-1 -6 -5 -10 -11 -10zM45 10l117 660c1 6 5 10 11 10h390c6 0 10 -4 9 -10l-10 -58
c-1 -6 -6 -10 -12 -10h-311c-4 0 -6 -2 -7 -6l-36 -207c-1 -4 1 -6 5 -6h264c6 0 9 -4 8 -10l-10 -58c-1 -6 -6 -10 -12 -10h-264c-4 0 -6 -2 -7 -6l-39 -215c-1 -4 1 -6 5 -6h311c6 0 9 -4 8 -10l-10 -58c-1 -6 -5 -10 -11 -10h-390c-6 0 -10 4 -9 10z" />
    <glyph glyph-name="Emacron" unicode="&#x112;" horiz-adv-x="540" 
d="M509 792h-244c-6 0 -9 4 -8 10l6 41c1 7 5 10 11 10h245c6 0 9 -4 8 -10l-7 -41c-1 -6 -5 -10 -11 -10zM45 10l117 660c1 6 5 10 11 10h390c6 0 10 -4 9 -10l-10 -58c-1 -6 -6 -10 -12 -10h-311c-4 0 -6 -2 -7 -6l-36 -207c-1 -4 1 -6 5 -6h264c6 0 9 -4 8 -10l-10 -58
c-1 -6 -6 -10 -12 -10h-264c-4 0 -6 -2 -7 -6l-39 -215c-1 -4 1 -6 5 -6h311c6 0 9 -4 8 -10l-10 -58c-1 -6 -5 -10 -11 -10h-390c-6 0 -10 4 -9 10z" />
    <glyph glyph-name="Ebreve" unicode="&#x114;" horiz-adv-x="540" 
d="M377 762c-73 0 -114 46 -109 111c0 6 4 10 10 10h31c6 0 10 -3 11 -10c3 -36 26 -54 66 -54c41 0 70 19 87 54c3 7 6 10 13 10h32c6 0 9 -4 7 -10c-19 -65 -75 -111 -148 -111zM45 10l117 660c1 6 5 10 11 10h390c6 0 10 -4 9 -10l-10 -58c-1 -6 -6 -10 -12 -10h-311
c-4 0 -6 -2 -7 -6l-36 -207c-1 -4 1 -6 5 -6h264c6 0 9 -4 8 -10l-10 -58c-1 -6 -6 -10 -12 -10h-264c-4 0 -6 -2 -7 -6l-39 -215c-1 -4 1 -6 5 -6h311c6 0 9 -4 8 -10l-10 -58c-1 -6 -5 -10 -11 -10h-390c-6 0 -10 4 -9 10z" />
    <glyph glyph-name="Edotaccent" unicode="&#x116;" horiz-adv-x="540" 
d="M419 778h-66c-6 0 -9 4 -8 10l12 70c1 6 5 10 11 10h66c6 0 9 -4 8 -10l-12 -70c-1 -6 -5 -10 -11 -10zM45 10l117 660c1 6 5 10 11 10h390c6 0 10 -4 9 -10l-10 -58c-1 -6 -6 -10 -12 -10h-311c-4 0 -6 -2 -7 -6l-36 -207c-1 -4 1 -6 5 -6h264c6 0 9 -4 8 -10l-10 -58
c-1 -6 -6 -10 -12 -10h-264c-4 0 -6 -2 -7 -6l-39 -215c-1 -4 1 -6 5 -6h311c6 0 9 -4 8 -10l-10 -58c-1 -6 -5 -10 -11 -10h-390c-6 0 -10 4 -9 10z" />
    <glyph glyph-name="Eogonek" unicode="&#x118;" horiz-adv-x="540" 
d="M337 -180c-38 0 -67 22 -67 63c0 46 30 79 86 117h-302c-6 0 -10 4 -9 10l117 660c1 6 5 10 11 10h390c6 0 10 -4 9 -10l-10 -58c-1 -6 -6 -10 -12 -10h-311c-4 0 -6 -2 -7 -6l-36 -207c-1 -4 1 -6 5 -6h264c6 0 9 -4 8 -10l-10 -58c-1 -6 -6 -10 -12 -10h-264
c-4 0 -6 -2 -7 -6l-39 -215c-1 -4 1 -6 5 -6h311c6 0 9 -4 8 -10l-10 -58c-1 -6 -5 -10 -11 -10h-8c-74 -45 -98 -72 -98 -97c0 -14 8 -21 22 -21c10 0 17 2 27 8c6 3 10 1 12 -3l11 -34c2 -5 0 -9 -6 -13c-18 -12 -42 -20 -67 -20z" />
    <glyph glyph-name="Gcircumflex" unicode="&#x11c;" horiz-adv-x="592" 
d="M60 188c0 66 35 277 71 351c52 105 134 152 251 152c96 0 169 -57 189 -135c1 -6 -1 -11 -6 -13l-56 -25c-6 -2 -10 1 -11 5c-22 60 -65 90 -130 90c-74 0 -128 -39 -160 -104s-63 -254 -63 -313c0 -81 46 -129 126 -129c72 0 125 33 158 101c13 26 25 62 33 111
c1 4 -1 6 -5 6h-127c-5 0 -8 4 -7 10l9 54c1 6 5 10 11 10h208c5 0 8 -4 7 -10l-9 -50c-9 -56 -27 -124 -43 -158c-52 -106 -132 -152 -248 -152c-118 0 -198 70 -198 199zM515 754h-38c-8 0 -11 2 -17 10l-48 75h-1l-77 -75c-7 -8 -11 -10 -20 -10h-43c-6 0 -8 5 -3 10
l112 124c6 7 11 9 18 9h39c7 0 10 -2 14 -9l69 -124c3 -5 0 -10 -5 -10z" />
    <glyph glyph-name="Gbreve" unicode="&#x11e;" horiz-adv-x="592" 
d="M394 762c-73 0 -114 46 -109 111c0 6 4 10 10 10h31c6 0 10 -3 11 -10c3 -36 26 -54 66 -54c41 0 70 19 87 54c3 7 6 10 13 10h32c6 0 9 -4 7 -10c-19 -65 -75 -111 -148 -111zM60 188c0 66 35 277 71 351c52 105 134 152 251 152c96 0 169 -57 189 -135
c1 -6 -1 -11 -6 -13l-56 -25c-6 -2 -10 1 -11 5c-22 60 -65 90 -130 90c-74 0 -128 -39 -160 -104s-63 -254 -63 -313c0 -81 46 -129 126 -129c72 0 125 33 158 101c13 26 25 62 33 111c1 4 -1 6 -5 6h-127c-5 0 -8 4 -7 10l9 54c1 6 5 10 11 10h208c5 0 8 -4 7 -10l-9 -50
c-9 -56 -27 -124 -43 -158c-52 -106 -132 -152 -248 -152c-118 0 -198 70 -198 199z" />
    <glyph glyph-name="Gdotaccent" unicode="&#x120;" horiz-adv-x="592" 
d="M429 778h-66c-6 0 -9 4 -8 10l12 70c1 6 5 10 11 10h66c6 0 9 -4 8 -10l-12 -70c-1 -6 -5 -10 -11 -10zM60 188c0 66 35 277 71 351c52 105 134 152 251 152c96 0 169 -57 189 -135c1 -6 -1 -11 -6 -13l-56 -25c-6 -2 -10 1 -11 5c-22 60 -65 90 -130 90
c-74 0 -128 -39 -160 -104s-63 -254 -63 -313c0 -81 46 -129 126 -129c72 0 125 33 158 101c13 26 25 62 33 111c1 4 -1 6 -5 6h-127c-5 0 -8 4 -7 10l9 54c1 6 5 10 11 10h208c5 0 8 -4 7 -10l-9 -50c-9 -56 -27 -124 -43 -158c-52 -106 -132 -152 -248 -152
c-118 0 -198 70 -198 199z" />
    <glyph glyph-name="Gcommaaccent" unicode="&#x122;" horiz-adv-x="592" 
d="M193 -211c-5 0 -8 4 -7 10l23 136c1 6 6 10 12 10h57c6 0 9 -4 8 -10l-10 -57c-2 -8 -4 -13 -9 -20l-60 -62c-5 -5 -9 -7 -14 -7zM60 188c0 66 35 277 71 351c52 105 134 152 251 152c96 0 169 -57 189 -135c1 -6 -1 -11 -6 -13l-56 -25c-6 -2 -10 1 -11 5
c-22 60 -65 90 -130 90c-74 0 -128 -39 -160 -104s-63 -254 -63 -313c0 -81 46 -129 126 -129c72 0 125 33 158 101c13 26 25 62 33 111c1 4 -1 6 -5 6h-127c-5 0 -8 4 -7 10l9 54c1 6 5 10 11 10h208c5 0 8 -4 7 -10l-9 -50c-9 -56 -27 -124 -43 -158
c-52 -106 -132 -152 -248 -152c-118 0 -198 70 -198 199z" />
    <glyph glyph-name="Hcircumflex" unicode="&#x124;" horiz-adv-x="627" 
d="M45 10l117 660c1 6 5 10 11 10h64c6 0 9 -4 8 -10l-50 -281c-1 -4 1 -6 5 -6h287c4 0 6 2 7 6l50 281c1 6 4 10 10 10h64c6 0 10 -4 9 -10l-117 -660c-1 -6 -5 -10 -11 -10h-64c-6 0 -9 4 -8 10l51 289c1 4 -1 6 -5 6h-286c-4 0 -6 -2 -7 -6l-52 -289
c-1 -6 -4 -10 -10 -10h-64c-6 0 -10 4 -9 10zM533 754h-38c-8 0 -11 2 -17 10l-48 75h-1l-77 -75c-7 -8 -11 -10 -20 -10h-43c-6 0 -8 5 -3 10l112 124c6 7 11 9 18 9h39c7 0 10 -2 14 -9l69 -124c3 -5 0 -10 -5 -10z" />
    <glyph glyph-name="Hbar" unicode="&#x126;" horiz-adv-x="627" 
d="M499 0h-64c-6 0 -9 4 -8 10l51 289c1 4 -1 6 -5 6h-286c-4 0 -6 -2 -7 -6l-52 -289c-1 -6 -4 -10 -10 -10h-64c-6 0 -10 4 -9 10l85 481c1 4 -1 6 -5 6h-35c-6 0 -9 4 -8 10l8 44c1 6 6 10 11 10h35c4 0 6 2 7 6l19 103c1 6 5 10 11 10h64c6 0 9 -4 8 -10l-19 -103
c-1 -4 1 -6 5 -6h287c4 0 6 2 7 6l19 103c1 6 4 10 10 10h64c6 0 10 -4 9 -10l-19 -103c-1 -4 0 -6 4 -6h36c5 0 8 -4 7 -10l-7 -44c-1 -6 -6 -10 -11 -10h-36c-3 0 -5 -2 -6 -6l-85 -481c-1 -6 -5 -10 -11 -10zM487 383c4 0 6 2 7 6l18 102c1 4 -1 6 -5 6h-287
c-4 0 -6 -2 -7 -6l-18 -102c-1 -4 1 -6 5 -6h287z" />
    <glyph glyph-name="Igrave" unicode="&#xcc;" horiz-adv-x="245" 
d="M45 10l117 660c1 6 5 10 11 10h64c6 0 9 -4 8 -10l-117 -660c-1 -6 -4 -10 -10 -10h-64c-6 0 -10 4 -9 10zM238 763h-45c-8 0 -10 1 -16 8l-82 106c-3 5 0 11 5 11h61c10 0 14 -3 19 -10l64 -105c3 -6 0 -10 -6 -10z" />
    <glyph glyph-name="Iacute" unicode="&#xcd;" horiz-adv-x="245" 
d="M45 10l117 660c1 6 5 10 11 10h64c6 0 9 -4 8 -10l-117 -660c-1 -6 -4 -10 -10 -10h-64c-6 0 -10 4 -9 10zM249 763h-45c-6 0 -8 5 -4 10l97 105c6 6 12 10 20 10h66c6 0 9 -5 3 -10l-118 -107c-8 -7 -12 -8 -19 -8z" />
    <glyph glyph-name="Icircumflex" unicode="&#xce;" horiz-adv-x="245" 
d="M45 10l117 660c1 6 5 10 11 10h64c6 0 9 -4 8 -10l-117 -660c-1 -6 -4 -10 -10 -10h-64c-6 0 -10 4 -9 10zM343 754h-38c-8 0 -11 2 -17 10l-48 75h-1l-77 -75c-7 -8 -11 -10 -20 -10h-43c-6 0 -8 5 -3 10l112 124c6 7 11 9 18 9h39c7 0 10 -2 14 -9l69 -124
c3 -5 0 -10 -5 -10z" />
    <glyph glyph-name="Itilde" unicode="&#x128;" horiz-adv-x="245" 
d="M45 10l117 660c1 6 5 10 11 10h64c6 0 9 -4 8 -10l-117 -660c-1 -6 -4 -10 -10 -10h-64c-6 0 -10 4 -9 10zM279 770c-24 0 -40 8 -58 20c-15 11 -28 18 -47 18c-24 0 -45 -12 -66 -31c-4 -4 -9 -2 -8 3l8 45c2 8 4 12 10 18c21 19 44 29 70 29c25 0 40 -8 58 -20
c16 -11 29 -18 47 -18c25 0 45 12 66 32c4 4 9 1 8 -3l-8 -46c-1 -8 -4 -11 -10 -17c-21 -20 -44 -30 -70 -30z" />
    <glyph glyph-name="Idieresis" unicode="&#xcf;" horiz-adv-x="245" 
d="M45 10l117 660c1 6 5 10 11 10h64c6 0 9 -4 8 -10l-117 -660c-1 -6 -4 -10 -10 -10h-64c-6 0 -10 4 -9 10zM348 778h-56c-6 0 -9 4 -8 10l13 70c1 6 5 10 11 10h55c6 0 9 -4 8 -10l-12 -70c-1 -6 -5 -10 -11 -10zM158 778h-56c-6 0 -9 4 -8 10l13 70c1 6 5 10 11 10h55
c6 0 9 -4 8 -10l-12 -70c-1 -6 -5 -10 -11 -10z" />
    <glyph glyph-name="Imacron" unicode="&#x12a;" horiz-adv-x="245" 
d="M45 10l117 660c1 6 5 10 11 10h64c6 0 9 -4 8 -10l-117 -660c-1 -6 -4 -10 -10 -10h-64c-6 0 -10 4 -9 10zM352 792h-244c-6 0 -9 4 -8 10l6 41c1 7 5 10 11 10h245c6 0 9 -4 8 -10l-7 -41c-1 -6 -5 -10 -11 -10z" />
    <glyph glyph-name="Idotaccent" unicode="&#x130;" horiz-adv-x="245" 
d="M45 10l117 660c1 6 5 10 11 10h64c6 0 9 -4 8 -10l-117 -660c-1 -6 -4 -10 -10 -10h-64c-6 0 -10 4 -9 10zM257 778h-66c-6 0 -9 4 -8 10l12 70c1 6 5 10 11 10h66c6 0 9 -4 8 -10l-12 -70c-1 -6 -5 -10 -11 -10z" />
    <glyph glyph-name="Ibreve" unicode="&#x12c;" horiz-adv-x="245" 
d="M45 10l117 660c1 6 5 10 11 10h64c6 0 9 -4 8 -10l-117 -660c-1 -6 -4 -10 -10 -10h-64c-6 0 -10 4 -9 10zM225 762c-73 0 -114 46 -109 111c0 6 4 10 10 10h31c6 0 10 -3 11 -10c3 -36 26 -54 66 -54c41 0 70 19 87 54c3 7 6 10 13 10h32c6 0 9 -4 7 -10
c-19 -65 -75 -111 -148 -111z" />
    <glyph glyph-name="Iogonek" unicode="&#x12e;" horiz-adv-x="245" 
d="M41 -180c-39 0 -68 22 -68 63c0 39 23 73 77 119c-4 0 -6 3 -5 7l117 661c1 6 5 10 11 10h64c6 0 9 -4 8 -10l-117 -660c-1 -5 -3 -7 -7 -10c-60 -49 -80 -74 -80 -97c0 -14 8 -21 22 -21c10 0 17 2 27 8c6 3 10 1 12 -3l11 -34c2 -5 0 -9 -6 -13
c-18 -12 -42 -20 -66 -20z" />
    <glyph glyph-name="Jcircumflex" unicode="&#x134;" horiz-adv-x="473" 
d="M8 62c-2 4 -2 9 3 14l50 35c5 4 10 4 15 -2c21 -22 53 -41 90 -41c76 0 127 44 146 147l80 455c1 6 5 10 11 10h64c6 0 9 -4 8 -10l-81 -455c-30 -169 -109 -226 -235 -226c-64 0 -126 34 -151 73zM571 754h-38c-8 0 -11 2 -17 10l-48 75h-1l-77 -75
c-7 -8 -11 -10 -20 -10h-43c-6 0 -8 5 -3 10l112 124c6 7 11 9 18 9h39c7 0 10 -2 14 -9l69 -124c3 -5 0 -10 -5 -10z" />
    <glyph glyph-name="Kcommaaccent" unicode="&#x136;" horiz-adv-x="593" 
d="M205 -211c-5 0 -8 4 -7 10l23 136c1 6 6 10 12 10h57c6 0 9 -4 8 -10l-10 -57c-2 -8 -4 -13 -9 -20l-60 -62c-5 -5 -9 -7 -14 -7zM45 10l117 660c1 6 5 10 11 10h64c6 0 9 -4 8 -10l-62 -348l338 349c7 7 11 9 18 9h79c5 0 8 -6 3 -12l-255 -259l148 -398
c2 -6 -1 -11 -8 -11h-64c-7 0 -10 2 -13 9l-124 337l-144 -148l-33 -188c-1 -6 -4 -10 -10 -10h-64c-6 0 -10 4 -9 10z" />
    <glyph glyph-name="Lacute" unicode="&#x139;" horiz-adv-x="515" 
d="M251 763h-45c-6 0 -8 5 -4 10l97 105c6 6 12 10 20 10h66c6 0 9 -5 3 -10l-118 -107c-8 -7 -12 -8 -19 -8zM45 10l117 660c1 6 5 10 11 10h64c6 0 9 -4 8 -10l-104 -586c-1 -4 1 -6 5 -6h312c5 0 8 -4 7 -10l-10 -58c-1 -6 -5 -10 -10 -10h-391c-6 0 -10 4 -9 10z" />
    <glyph glyph-name="Lcaron" unicode="&#x13d;" horiz-adv-x="515" 
d="M301 521c-6 0 -9 4 -8 10l24 139c1 6 5 10 11 10h57c6 0 9 -4 8 -10l-10 -60c-2 -8 -4 -14 -9 -20l-60 -62c-5 -5 -8 -7 -13 -7zM45 10l117 660c1 6 5 10 11 10h64c6 0 9 -4 8 -10l-104 -586c-1 -4 1 -6 5 -6h312c5 0 8 -4 7 -10l-10 -58c-1 -6 -5 -10 -10 -10h-391
c-6 0 -10 4 -9 10z" />
    <glyph glyph-name="Lcommaaccent" unicode="&#x13b;" horiz-adv-x="515" 
d="M199 -211c-5 0 -8 4 -7 10l23 136c1 6 6 10 12 10h57c6 0 9 -4 8 -10l-10 -57c-2 -8 -4 -13 -9 -20l-60 -62c-5 -5 -9 -7 -14 -7zM45 10l117 660c1 6 5 10 11 10h64c6 0 9 -4 8 -10l-104 -586c-1 -4 1 -6 5 -6h312c5 0 8 -4 7 -10l-10 -58c-1 -6 -5 -10 -10 -10h-391
c-6 0 -10 4 -9 10z" />
    <glyph glyph-name="Lslash" unicode="&#x141;" horiz-adv-x="515" 
d="M335 395l-152 -74l-42 -237c-1 -4 1 -6 5 -6h312c5 0 8 -4 7 -10l-10 -58c-1 -6 -5 -10 -10 -10h-391c-6 0 -10 4 -9 10l47 266l-56 -27c-6 -3 -10 0 -9 6l10 56c1 6 4 10 12 14l56 27l57 318c1 6 5 10 11 10h64c6 0 9 -4 8 -10l-49 -273l152 74c5 3 9 0 8 -6l-9 -57
c-1 -6 -5 -10 -12 -13z" />
    <glyph glyph-name="Ldot" unicode="&#x13f;" horiz-adv-x="515" 
d="M45 10l117 660c1 6 5 10 11 10h64c6 0 9 -4 8 -10l-104 -586c-1 -4 1 -6 5 -6h312c5 0 8 -4 7 -10l-10 -58c-1 -6 -5 -10 -10 -10h-391c-6 0 -10 4 -9 10zM405 274h-70c-6 0 -10 4 -9 10l14 82c1 6 5 10 11 10h70c6 0 10 -4 9 -10l-14 -82c-1 -6 -5 -10 -11 -10z" />
    <glyph glyph-name="Nacute" unicode="&#x143;" horiz-adv-x="627" 
d="M409 763h-45c-6 0 -8 5 -4 10l97 105c6 6 12 10 20 10h66c6 0 9 -5 3 -10l-118 -107c-8 -7 -12 -8 -19 -8zM45 10l117 660c1 6 5 10 11 10h60c7 0 11 -3 14 -10l206 -519h4l93 519c1 6 5 10 11 10h58c6 0 9 -4 8 -10l-116 -660c-1 -6 -5 -10 -11 -10h-60
c-6 0 -11 3 -14 10l-208 519h-4l-92 -519c-1 -6 -5 -10 -11 -10h-57c-6 0 -10 4 -9 10z" />
    <glyph glyph-name="Ncaron" unicode="&#x147;" horiz-adv-x="627" 
d="M426 753h-39c-7 0 -10 2 -14 9l-69 124c-3 5 0 10 5 10h38c8 0 11 -2 17 -10l48 -75h1l76 75c8 8 12 10 21 10h43c6 0 8 -5 3 -10l-112 -124c-6 -7 -11 -9 -18 -9zM45 10l117 660c1 6 5 10 11 10h60c7 0 11 -3 14 -10l206 -519h4l93 519c1 6 5 10 11 10h58
c6 0 9 -4 8 -10l-116 -660c-1 -6 -5 -10 -11 -10h-60c-6 0 -11 3 -14 10l-208 519h-4l-92 -519c-1 -6 -5 -10 -11 -10h-57c-6 0 -10 4 -9 10z" />
    <glyph glyph-name="Ntilde" unicode="&#xd1;" horiz-adv-x="627" 
d="M462 770c-24 0 -40 8 -58 20c-15 11 -28 18 -47 18c-24 0 -45 -12 -66 -31c-4 -4 -9 -2 -8 3l8 45c2 8 4 12 10 18c21 19 44 29 70 29c25 0 40 -8 58 -20c16 -11 29 -18 47 -18c25 0 45 12 66 32c4 4 9 1 8 -3l-8 -46c-1 -8 -4 -11 -10 -17c-21 -20 -44 -30 -70 -30z
M45 10l117 660c1 6 5 10 11 10h60c7 0 11 -3 14 -10l206 -519h4l93 519c1 6 5 10 11 10h58c6 0 9 -4 8 -10l-116 -660c-1 -6 -5 -10 -11 -10h-60c-6 0 -11 3 -14 10l-208 519h-4l-92 -519c-1 -6 -5 -10 -11 -10h-57c-6 0 -10 4 -9 10z" />
    <glyph glyph-name="Ncommaaccent" unicode="&#x145;" horiz-adv-x="627" 
d="M228 -211c-5 0 -8 4 -7 10l23 136c1 6 6 10 12 10h57c6 0 9 -4 8 -10l-10 -57c-2 -8 -4 -13 -9 -20l-60 -62c-5 -5 -9 -7 -14 -7zM45 10l117 660c1 6 5 10 11 10h60c7 0 11 -3 14 -10l206 -519h4l93 519c1 6 5 10 11 10h58c6 0 9 -4 8 -10l-116 -660
c-1 -6 -5 -10 -11 -10h-60c-6 0 -11 3 -14 10l-208 519h-4l-92 -519c-1 -6 -5 -10 -11 -10h-57c-6 0 -10 4 -9 10z" />
    <glyph glyph-name="Eng" unicode="&#x14a;" horiz-adv-x="627" 
d="M320 -180h-19c-6 0 -9 4 -8 10l10 58c1 6 6 10 11 10h16c51 0 85 23 96 82l4 20l-212 529h-4l-92 -519c-1 -6 -5 -10 -11 -10h-57c-6 0 -10 4 -9 10l117 660c1 6 4 10 10 10h60c6 0 12 -2 15 -10l206 -519h4l93 519c1 6 5 10 11 10h57c6 0 10 -4 9 -10l-121 -685
c-20 -116 -82 -165 -186 -165z" />
    <glyph glyph-name="Ograve" unicode="&#xd2;" horiz-adv-x="593" 
d="M408 763h-45c-8 0 -10 1 -16 8l-82 106c-3 5 0 11 5 11h61c10 0 14 -3 19 -10l64 -105c3 -6 0 -10 -6 -10zM257 -11c-119 0 -197 70 -197 199c0 66 35 277 71 351c52 105 132 152 248 152c119 0 197 -70 197 -199c0 -66 -35 -277 -72 -351c-51 -105 -131 -152 -247 -152z
M270 67c73 0 126 39 158 104s63 254 63 313c0 81 -45 129 -125 129c-73 0 -126 -39 -158 -104s-63 -254 -63 -313c0 -81 45 -129 125 -129z" />
    <glyph glyph-name="Oacute" unicode="&#xd3;" horiz-adv-x="593" 
d="M407 763h-45c-6 0 -8 5 -4 10l97 105c6 6 12 10 20 10h66c6 0 9 -5 3 -10l-118 -107c-8 -7 -12 -8 -19 -8zM257 -11c-119 0 -197 70 -197 199c0 66 35 277 71 351c52 105 132 152 248 152c119 0 197 -70 197 -199c0 -66 -35 -277 -72 -351c-51 -105 -131 -152 -247 -152z
M270 67c73 0 126 39 158 104s63 254 63 313c0 81 -45 129 -125 129c-73 0 -126 -39 -158 -104s-63 -254 -63 -313c0 -81 45 -129 125 -129z" />
    <glyph glyph-name="Ocircumflex" unicode="&#xd4;" horiz-adv-x="593" 
d="M515 763h-38c-8 0 -11 2 -16 10l-49 75h-1l-76 -75c-7 -8 -12 -10 -20 -10h-44c-5 0 -7 5 -3 10l112 124c6 7 11 9 18 9h39c7 0 11 -2 14 -9l69 -124c3 -5 1 -10 -5 -10zM257 -11c-119 0 -197 70 -197 199c0 66 35 277 71 351c52 105 132 152 248 152
c119 0 197 -70 197 -199c0 -66 -35 -277 -72 -351c-51 -105 -131 -152 -247 -152zM270 67c73 0 126 39 158 104s63 254 63 313c0 81 -45 129 -125 129c-73 0 -126 -39 -158 -104s-63 -254 -63 -313c0 -81 45 -129 125 -129z" />
    <glyph glyph-name="Otilde" unicode="&#xd5;" horiz-adv-x="593" 
d="M446 770c-24 0 -40 8 -58 20c-15 11 -28 18 -47 18c-24 0 -45 -12 -66 -31c-4 -4 -9 -2 -8 3l8 45c2 8 4 12 10 18c21 19 44 29 70 29c25 0 40 -8 58 -20c16 -11 29 -18 47 -18c25 0 45 12 66 32c4 4 9 1 8 -3l-8 -46c-1 -8 -4 -11 -10 -17c-21 -20 -44 -30 -70 -30z
M257 -11c-119 0 -197 70 -197 199c0 66 35 277 71 351c52 105 132 152 248 152c119 0 197 -70 197 -199c0 -66 -35 -277 -72 -351c-51 -105 -131 -152 -247 -152zM270 67c73 0 126 39 158 104s63 254 63 313c0 81 -45 129 -125 129c-73 0 -126 -39 -158 -104
s-63 -254 -63 -313c0 -81 45 -129 125 -129z" />
    <glyph glyph-name="Odieresis" unicode="&#xd6;" horiz-adv-x="593" 
d="M517 778h-56c-6 0 -9 4 -8 10l13 70c1 6 5 10 11 10h55c6 0 9 -4 8 -10l-12 -70c-1 -6 -5 -10 -11 -10zM327 778h-56c-6 0 -9 4 -8 10l13 70c1 6 5 10 11 10h55c6 0 9 -4 8 -10l-12 -70c-1 -6 -5 -10 -11 -10zM257 -11c-119 0 -197 70 -197 199c0 66 35 277 71 351
c52 105 132 152 248 152c119 0 197 -70 197 -199c0 -66 -35 -277 -72 -351c-51 -105 -131 -152 -247 -152zM270 67c73 0 126 39 158 104s63 254 63 313c0 81 -45 129 -125 129c-73 0 -126 -39 -158 -104s-63 -254 -63 -313c0 -81 45 -129 125 -129z" />
    <glyph glyph-name="Omacron" unicode="&#x14c;" horiz-adv-x="593" 
d="M519 792h-244c-6 0 -9 4 -8 10l6 41c1 7 5 10 11 10h245c6 0 9 -4 8 -10l-7 -41c-1 -6 -5 -10 -11 -10zM257 -11c-119 0 -197 70 -197 199c0 66 35 277 71 351c52 105 132 152 248 152c119 0 197 -70 197 -199c0 -66 -35 -277 -72 -351c-51 -105 -131 -152 -247 -152z
M270 67c73 0 126 39 158 104s63 254 63 313c0 81 -45 129 -125 129c-73 0 -126 -39 -158 -104s-63 -254 -63 -313c0 -81 45 -129 125 -129z" />
    <glyph glyph-name="Obreve" unicode="&#x14e;" horiz-adv-x="593" 
d="M392 762c-73 0 -114 46 -109 111c0 6 4 10 10 10h31c6 0 10 -3 11 -10c3 -36 26 -54 66 -54c41 0 70 19 87 54c3 7 6 10 13 10h32c6 0 9 -4 7 -10c-19 -65 -75 -111 -148 -111zM257 -11c-119 0 -197 70 -197 199c0 66 35 277 71 351c52 105 132 152 248 152
c119 0 197 -70 197 -199c0 -66 -35 -277 -72 -351c-51 -105 -131 -152 -247 -152zM270 67c73 0 126 39 158 104s63 254 63 313c0 81 -45 129 -125 129c-73 0 -126 -39 -158 -104s-63 -254 -63 -313c0 -81 45 -129 125 -129z" />
    <glyph glyph-name="Ohungarumlaut" unicode="&#x150;" horiz-adv-x="593" 
d="M257 -11c-119 0 -197 70 -197 199c0 66 35 277 71 351c52 105 132 152 248 152c119 0 197 -70 197 -199c0 -66 -35 -277 -72 -351c-51 -105 -131 -152 -247 -152zM270 67c73 0 126 39 158 104s63 254 63 313c0 81 -45 129 -125 129c-73 0 -126 -39 -158 -104
s-63 -254 -63 -313c0 -81 45 -129 125 -129zM481 764h-40c-6 0 -9 4 -5 10l83 105c5 7 10 10 18 10h51c6 0 8 -5 4 -10l-93 -106c-5 -6 -10 -9 -18 -9zM346 764h-40c-5 0 -9 4 -4 10l83 105c4 7 10 10 18 10h50c6 0 8 -5 4 -10l-92 -106c-6 -6 -11 -9 -19 -9z" />
    <glyph glyph-name="Oslash" unicode="&#xd8;" horiz-adv-x="593" 
d="M68 -30h-39c-6 0 -7 5 -3 10l64 89c-19 31 -30 71 -30 119c0 66 35 277 71 351c52 105 132 152 248 152c56 0 103 -15 137 -45l40 55c3 5 9 9 15 9h40c6 0 7 -5 3 -10l-67 -92c19 -31 29 -70 29 -116c0 -66 -35 -277 -72 -351c-51 -105 -131 -152 -247 -152
c-55 0 -101 14 -135 43l-38 -53c-3 -5 -9 -9 -16 -9zM145 196c0 -17 1 -32 5 -46l312 424c-21 26 -53 40 -96 40c-73 0 -127 -39 -159 -105c-32 -64 -62 -254 -62 -313zM270 66c73 0 127 40 159 105c31 65 62 254 62 314c0 15 -2 28 -5 41l-311 -424c22 -23 54 -36 95 -36z
" />
    <glyph glyph-name="OE" unicode="&#x152;" horiz-adv-x="910" 
d="M813 0h-390c-6 0 -10 4 -9 10l10 54h-1c-40 -50 -96 -75 -166 -75c-119 0 -197 70 -197 199c0 66 35 277 71 351c52 105 132 152 248 152c68 0 119 -27 141 -76h1l10 55c1 6 5 10 11 10h390c6 0 10 -4 9 -10l-10 -58c-1 -6 -6 -10 -12 -10h-310c-4 0 -6 -2 -7 -6
l-37 -207c-1 -4 1 -6 5 -6h264c6 0 9 -4 8 -10l-10 -58c-1 -6 -5 -10 -12 -10h-264c-4 0 -6 -2 -7 -6l-39 -215c-1 -4 1 -6 5 -6h311c6 0 9 -4 8 -10l-10 -58c-1 -6 -5 -10 -11 -10zM270 67c73 0 126 39 158 104s63 254 63 313c0 81 -45 129 -125 129
c-73 0 -126 -39 -158 -104s-63 -254 -63 -313c0 -81 45 -129 125 -129z" />
    <glyph glyph-name="Racute" unicode="&#x154;" horiz-adv-x="593" 
d="M492 0h-64c-7 0 -10 3 -12 10l-83 281h-148c-4 0 -7 -2 -7 -6l-50 -275c-1 -6 -5 -10 -10 -10h-64c-6 0 -10 4 -9 10l117 660c1 6 5 10 11 10h234c108 0 175 -60 175 -157c0 -113 -69 -196 -170 -223l87 -288c3 -7 -1 -12 -7 -12zM350 368c89 1 148 55 148 143
c0 59 -39 91 -106 91h-153c-4 0 -6 -2 -7 -6l-39 -222c-1 -4 1 -6 5 -6h152zM380 763h-45c-6 0 -8 5 -4 10l97 105c6 6 12 10 20 10h66c6 0 9 -5 3 -10l-118 -107c-8 -7 -12 -8 -19 -8z" />
    <glyph glyph-name="Rcaron" unicode="&#x158;" horiz-adv-x="593" 
d="M385 753h-39c-7 0 -10 2 -14 9l-69 124c-3 5 0 10 5 10h38c8 0 11 -2 17 -10l48 -75h1l76 75c8 8 12 10 21 10h43c6 0 8 -5 3 -10l-112 -124c-6 -7 -11 -9 -18 -9zM492 0h-64c-7 0 -10 3 -12 10l-83 281h-148c-4 0 -7 -2 -7 -6l-50 -275c-1 -6 -5 -10 -10 -10h-64
c-6 0 -10 4 -9 10l117 660c1 6 5 10 11 10h234c108 0 175 -60 175 -157c0 -113 -69 -196 -170 -223l87 -288c3 -7 -1 -12 -7 -12zM350 368c89 1 148 55 148 143c0 59 -39 91 -106 91h-153c-4 0 -6 -2 -7 -6l-39 -222c-1 -4 1 -6 5 -6h152z" />
    <glyph glyph-name="Rcommaaccent" unicode="&#x156;" horiz-adv-x="593" 
d="M219 -211c-5 0 -8 4 -7 10l23 136c1 6 6 10 12 10h57c6 0 9 -4 8 -10l-10 -57c-2 -8 -4 -13 -9 -20l-60 -62c-5 -5 -9 -7 -14 -7zM492 0h-64c-7 0 -10 3 -12 10l-83 281h-148c-4 0 -7 -2 -7 -6l-50 -275c-1 -6 -5 -10 -10 -10h-64c-6 0 -10 4 -9 10l117 660
c1 6 5 10 11 10h234c108 0 175 -60 175 -157c0 -113 -69 -196 -170 -223l87 -288c3 -7 -1 -12 -7 -12zM350 368c89 1 148 55 148 143c0 59 -39 91 -106 91h-153c-4 0 -6 -2 -7 -6l-39 -222c-1 -4 1 -6 5 -6h152z" />
    <glyph glyph-name="Sacute" unicode="&#x15a;" horiz-adv-x="569" 
d="M243 -11c-89 0 -177 39 -217 85c-3 4 -3 9 1 14l47 47c5 5 11 5 14 1c38 -36 97 -68 172 -68c100 0 168 61 168 144c0 51 -26 76 -115 90l-31 5c-108 17 -165 71 -165 162c0 134 102 222 244 222c76 0 148 -28 190 -65c5 -4 5 -8 0 -14l-37 -46c-4 -5 -9 -6 -14 -2
c-46 32 -94 49 -150 49c-86 0 -146 -59 -146 -134c0 -50 29 -79 117 -93l31 -5c110 -18 163 -67 163 -155c0 -146 -109 -237 -272 -237zM387 763h-45c-6 0 -8 5 -4 10l97 105c6 6 12 10 20 10h66c6 0 9 -5 3 -10l-118 -107c-8 -7 -12 -8 -19 -8z" />
    <glyph glyph-name="Scircumflex" unicode="&#x15c;" horiz-adv-x="569" 
d="M243 -11c-89 0 -177 39 -217 85c-3 4 -3 9 1 14l47 47c5 5 11 5 14 1c38 -36 97 -68 172 -68c100 0 168 61 168 144c0 51 -26 76 -115 90l-31 5c-108 17 -165 71 -165 162c0 134 102 222 244 222c76 0 148 -28 190 -65c5 -4 5 -8 0 -14l-37 -46c-4 -5 -9 -6 -14 -2
c-46 32 -94 49 -150 49c-86 0 -146 -59 -146 -134c0 -50 29 -79 117 -93l31 -5c110 -18 163 -67 163 -155c0 -146 -109 -237 -272 -237zM501 754h-38c-8 0 -11 2 -17 10l-48 75h-1l-77 -75c-7 -8 -11 -10 -20 -10h-43c-6 0 -8 5 -3 10l112 124c6 7 11 9 18 9h39
c7 0 10 -2 14 -9l69 -124c3 -5 0 -10 -5 -10z" />
    <glyph glyph-name="Scaron" unicode="&#x160;" horiz-adv-x="569" 
d="M243 -11c-89 0 -177 39 -217 85c-3 4 -3 9 1 14l47 47c5 5 11 5 14 1c38 -36 97 -68 172 -68c100 0 168 61 168 144c0 51 -26 76 -115 90l-31 5c-108 17 -165 71 -165 162c0 134 102 222 244 222c76 0 148 -28 190 -65c5 -4 5 -8 0 -14l-37 -46c-4 -5 -9 -6 -14 -2
c-46 32 -94 49 -150 49c-86 0 -146 -59 -146 -134c0 -50 29 -79 117 -93l31 -5c110 -18 163 -67 163 -155c0 -146 -109 -237 -272 -237zM388 753h-39c-7 0 -10 2 -14 9l-69 124c-3 5 0 10 5 10h38c8 0 11 -2 17 -10l48 -75h1l76 75c8 8 12 10 21 10h43c6 0 8 -5 3 -10
l-112 -124c-6 -7 -11 -9 -18 -9z" />
    <glyph glyph-name="Scedilla" unicode="&#x15e;" horiz-adv-x="569" 
d="M209 -151h-51c-6 0 -8 4 -5 10l74 131c-84 4 -164 41 -201 84c-3 4 -3 9 1 14l47 47c5 5 11 5 14 1c38 -36 97 -68 172 -68c100 0 168 61 168 144c0 51 -26 76 -115 90l-31 5c-108 17 -165 71 -165 162c0 134 102 222 244 222c76 0 148 -28 190 -65c5 -4 5 -8 0 -14
l-37 -46c-4 -5 -9 -6 -14 -2c-46 32 -94 49 -150 49c-86 0 -146 -59 -146 -134c0 -50 29 -79 117 -93l31 -5c110 -18 163 -67 163 -155c0 -131 -88 -218 -223 -234l-66 -133c-4 -8 -9 -10 -17 -10z" />
    <glyph glyph-name="Scommaaccent" unicode="&#x218;" horiz-adv-x="569" 
d="M192 -211c-5 0 -8 4 -7 10l23 136c1 6 6 10 12 10h57c6 0 9 -4 8 -10l-10 -57c-2 -8 -4 -13 -9 -20l-60 -62c-5 -5 -9 -7 -14 -7zM243 -11c-89 0 -177 39 -217 85c-3 4 -3 9 1 14l47 47c5 5 11 5 14 1c38 -36 97 -68 172 -68c100 0 168 61 168 144c0 51 -26 76 -115 90
l-31 5c-108 17 -165 71 -165 162c0 134 102 222 244 222c76 0 148 -28 190 -65c5 -4 5 -8 0 -14l-37 -46c-4 -5 -9 -6 -14 -2c-46 32 -94 49 -150 49c-86 0 -146 -59 -146 -134c0 -50 29 -79 117 -93l31 -5c110 -18 163 -67 163 -155c0 -146 -109 -237 -272 -237z" />
    <glyph glyph-name="Tcaron" unicode="&#x164;" horiz-adv-x="514" 
d="M365 753h-39c-7 0 -10 2 -14 9l-69 124c-3 5 0 10 5 10h38c8 0 11 -2 17 -10l48 -75h1l76 75c8 8 12 10 21 10h43c6 0 8 -5 3 -10l-112 -124c-6 -7 -11 -9 -18 -9zM252 0h-64c-5 0 -9 4 -8 10l104 586c1 4 -1 6 -5 6h-180c-6 0 -9 4 -8 10l10 58c1 6 5 10 11 10h454
c6 0 10 -4 9 -10l-10 -58c-1 -6 -6 -10 -12 -10h-180c-3 0 -5 -2 -6 -6l-104 -586c-1 -6 -5 -10 -11 -10z" />
    <glyph glyph-name="uni0162" unicode="&#x162;" horiz-adv-x="514" 
d="M156 -211c-5 0 -8 4 -7 10l23 136c1 6 6 10 12 10h57c6 0 9 -4 8 -10l-10 -57c-2 -8 -4 -13 -9 -20l-60 -62c-5 -5 -9 -7 -14 -7zM252 0h-64c-5 0 -9 4 -8 10l104 586c1 4 -1 6 -5 6h-180c-6 0 -9 4 -8 10l10 58c1 6 5 10 11 10h454c6 0 10 -4 9 -10l-10 -58
c-1 -6 -6 -10 -12 -10h-180c-3 0 -5 -2 -6 -6l-104 -586c-1 -6 -5 -10 -11 -10z" />
    <glyph glyph-name="uni021A" unicode="&#x21a;" horiz-adv-x="514" 
d="M156 -211c-5 0 -8 4 -7 10l23 136c1 6 6 10 12 10h57c6 0 9 -4 8 -10l-10 -57c-2 -8 -4 -13 -9 -20l-60 -62c-5 -5 -9 -7 -14 -7zM252 0h-64c-5 0 -9 4 -8 10l104 586c1 4 -1 6 -5 6h-180c-6 0 -9 4 -8 10l10 58c1 6 5 10 11 10h454c6 0 10 -4 9 -10l-10 -58
c-1 -6 -6 -10 -12 -10h-180c-3 0 -5 -2 -6 -6l-104 -586c-1 -6 -5 -10 -11 -10z" />
    <glyph glyph-name="Tbar" unicode="&#x166;" horiz-adv-x="514" 
d="M252 0h-64c-5 0 -9 4 -8 10l63 354c1 4 -1 6 -5 6h-97c-6 0 -9 4 -8 10l8 53c1 6 6 10 12 10h97c4 0 6 2 7 6l27 147c1 4 -1 6 -5 6h-180c-6 0 -9 4 -8 10l10 58c1 6 5 10 11 10h454c6 0 10 -4 9 -10l-10 -58c-1 -6 -6 -10 -12 -10h-180c-3 0 -5 -2 -6 -6l-27 -147
c-1 -4 1 -6 5 -6h98c6 0 9 -4 8 -10l-9 -53c-1 -6 -6 -10 -11 -10h-98c-4 0 -6 -2 -7 -6l-63 -354c-1 -6 -5 -10 -11 -10z" />
    <glyph glyph-name="Thorn" unicode="&#xde;" horiz-adv-x="568" 
d="M118 0h-64c-6 0 -9 4 -8 10l116 660c1 6 5 10 11 10h64c6 0 9 -4 8 -10l-20 -112c-1 -4 1 -6 5 -6h151c112 0 176 -61 176 -159c0 -159 -103 -244 -246 -244h-152c-4 0 -6 -2 -7 -6l-23 -133c-1 -6 -5 -10 -11 -10zM318 227c92 0 156 57 156 153c0 59 -39 94 -110 94
h-147c-4 0 -6 -2 -7 -6l-42 -235c-1 -4 1 -6 5 -6h145z" />
    <glyph glyph-name="Ugrave" unicode="&#xd9;" horiz-adv-x="613" 
d="M422 763h-45c-8 0 -10 1 -16 8l-82 106c-3 5 0 11 5 11h61c10 0 14 -3 19 -10l64 -105c3 -6 0 -10 -6 -10zM281 -11c-145 0 -228 91 -200 251l76 430c1 6 5 10 11 10h64c6 0 9 -4 8 -10l-76 -433c-20 -112 29 -170 123 -170c91 0 148 40 172 170l76 433c1 6 5 10 11 10
h63c6 0 10 -4 9 -10l-78 -440c-31 -178 -119 -241 -259 -241z" />
    <glyph glyph-name="Uacute" unicode="&#xda;" horiz-adv-x="613" 
d="M416 763h-45c-6 0 -8 5 -4 10l97 105c6 6 12 10 20 10h66c6 0 9 -5 3 -10l-118 -107c-8 -7 -12 -8 -19 -8zM281 -11c-145 0 -228 91 -200 251l76 430c1 6 5 10 11 10h64c6 0 9 -4 8 -10l-76 -433c-20 -112 29 -170 123 -170c91 0 148 40 172 170l76 433c1 6 5 10 11 10
h63c6 0 10 -4 9 -10l-78 -440c-31 -178 -119 -241 -259 -241z" />
    <glyph glyph-name="Ucircumflex" unicode="&#xdb;" horiz-adv-x="613" 
d="M281 -11c-145 0 -228 91 -200 251l76 430c1 6 5 10 11 10h64c6 0 9 -4 8 -10l-76 -433c-20 -112 29 -170 123 -170c91 0 148 40 172 170l76 433c1 6 5 10 11 10h63c6 0 10 -4 9 -10l-78 -440c-31 -178 -119 -241 -259 -241zM531 754h-38c-8 0 -11 2 -17 10l-48 75h-1
l-77 -75c-7 -8 -11 -10 -20 -10h-43c-6 0 -8 5 -3 10l112 124c6 7 11 9 18 9h39c7 0 10 -2 14 -9l69 -124c3 -5 0 -10 -5 -10z" />
    <glyph glyph-name="Utilde" unicode="&#x168;" horiz-adv-x="613" 
d="M464 770c-24 0 -40 8 -58 20c-15 11 -28 18 -47 18c-24 0 -45 -12 -66 -31c-4 -4 -9 -2 -8 3l8 45c2 8 4 12 10 18c21 19 44 29 70 29c25 0 40 -8 58 -20c16 -11 29 -18 47 -18c25 0 45 12 66 32c4 4 9 1 8 -3l-8 -46c-1 -8 -4 -11 -10 -17c-21 -20 -44 -30 -70 -30z
M281 -11c-145 0 -228 91 -200 251l76 430c1 6 5 10 11 10h64c6 0 9 -4 8 -10l-76 -433c-20 -112 29 -170 123 -170c91 0 148 40 172 170l76 433c1 6 5 10 11 10h63c6 0 10 -4 9 -10l-78 -440c-31 -178 -119 -241 -259 -241z" />
    <glyph glyph-name="Udieresis" unicode="&#xdc;" horiz-adv-x="613" 
d="M535 778h-56c-6 0 -9 4 -8 10l13 70c1 6 5 10 11 10h55c6 0 9 -4 8 -10l-12 -70c-1 -6 -5 -10 -11 -10zM345 778h-56c-6 0 -9 4 -8 10l13 70c1 6 5 10 11 10h55c6 0 9 -4 8 -10l-12 -70c-1 -6 -5 -10 -11 -10zM281 -11c-145 0 -228 91 -200 251l76 430c1 6 5 10 11 10h64
c6 0 9 -4 8 -10l-76 -433c-20 -112 29 -170 123 -170c91 0 148 40 172 170l76 433c1 6 5 10 11 10h63c6 0 10 -4 9 -10l-78 -440c-31 -178 -119 -241 -259 -241z" />
    <glyph glyph-name="Umacron" unicode="&#x16a;" horiz-adv-x="613" 
d="M537 792h-244c-6 0 -9 4 -8 10l6 41c1 7 5 10 11 10h245c6 0 9 -4 8 -10l-7 -41c-1 -6 -5 -10 -11 -10zM281 -11c-145 0 -228 91 -200 251l76 430c1 6 5 10 11 10h64c6 0 9 -4 8 -10l-76 -433c-20 -112 29 -170 123 -170c91 0 148 40 172 170l76 433c1 6 5 10 11 10h63
c6 0 10 -4 9 -10l-78 -440c-31 -178 -119 -241 -259 -241z" />
    <glyph glyph-name="Ubreve" unicode="&#x16c;" horiz-adv-x="613" 
d="M410 762c-73 0 -114 46 -109 111c0 6 4 10 10 10h31c6 0 10 -3 11 -10c3 -36 26 -54 66 -54c41 0 70 19 87 54c3 7 6 10 13 10h32c6 0 9 -4 7 -10c-19 -65 -75 -111 -148 -111zM281 -11c-145 0 -228 91 -200 251l76 430c1 6 5 10 11 10h64c6 0 9 -4 8 -10l-76 -433
c-20 -112 29 -170 123 -170c91 0 148 40 172 170l76 433c1 6 5 10 11 10h63c6 0 10 -4 9 -10l-78 -440c-31 -178 -119 -241 -259 -241z" />
    <glyph glyph-name="Uring" unicode="&#x16e;" horiz-adv-x="613" 
d="M281 -11c-145 0 -228 91 -200 251l76 430c1 6 5 10 11 10h64c6 0 9 -4 8 -10l-76 -433c-20 -112 29 -170 123 -170c91 0 148 40 172 170l76 433c1 6 5 10 11 10h63c6 0 10 -4 9 -10l-78 -440c-31 -178 -119 -241 -259 -241zM404 730c-45 0 -76 31 -76 75
c0 60 44 111 108 111c45 0 76 -32 76 -76c0 -59 -44 -110 -108 -110zM411 769c33 0 60 27 60 65c0 25 -16 43 -42 43c-33 0 -60 -27 -60 -65c0 -25 16 -43 42 -43z" />
    <glyph glyph-name="Uhungarumlaut" unicode="&#x170;" horiz-adv-x="613" 
d="M281 -11c-145 0 -228 91 -200 251l76 430c1 6 5 10 11 10h64c6 0 9 -4 8 -10l-76 -433c-20 -112 29 -170 123 -170c91 0 148 40 172 170l76 433c1 6 5 10 11 10h63c6 0 10 -4 9 -10l-78 -440c-31 -178 -119 -241 -259 -241zM479 764h-40c-6 0 -9 4 -5 10l83 105
c5 7 10 10 18 10h51c6 0 8 -5 4 -10l-93 -106c-5 -6 -10 -9 -18 -9zM344 764h-40c-5 0 -9 4 -4 10l83 105c4 7 10 10 18 10h50c6 0 8 -5 4 -10l-92 -106c-6 -6 -11 -9 -19 -9z" />
    <glyph glyph-name="Uogonek" unicode="&#x172;" horiz-adv-x="613" 
d="M246 -180c-39 0 -67 22 -67 63c0 40 22 72 62 110c-120 16 -186 102 -160 247l76 430c1 6 5 10 11 10h64c6 0 9 -4 8 -10l-76 -433c-20 -112 29 -170 123 -170c91 0 148 40 172 170l76 433c1 6 5 10 11 10h63c6 0 10 -4 9 -10l-78 -440c-29 -163 -104 -229 -225 -238
c-52 -42 -68 -67 -68 -89c0 -14 8 -21 22 -21c9 0 16 2 27 8c5 3 9 1 11 -3l11 -34c2 -5 0 -9 -5 -13c-18 -12 -42 -20 -67 -20z" />
    <glyph glyph-name="Wcircumflex" unicode="&#x174;" horiz-adv-x="795" 
d="M563 0h-51c-6 0 -9 4 -10 10l-47 517h-2l-233 -517c-3 -6 -7 -10 -13 -10h-52c-5 0 -9 4 -10 10l-41 660c0 6 3 10 10 10h60c6 0 10 -4 10 -10l25 -513h2l229 513c3 6 7 10 13 10h47c6 0 9 -4 10 -10l48 -513h2l206 513c2 7 6 10 13 10h65c7 0 9 -4 7 -10l-276 -660
c-2 -6 -6 -10 -12 -10zM615 754h-38c-8 0 -11 2 -17 10l-48 75h-1l-77 -75c-7 -8 -11 -10 -20 -10h-43c-6 0 -8 5 -3 10l112 124c6 7 11 9 18 9h39c7 0 10 -2 14 -9l69 -124c3 -5 0 -10 -5 -10z" />
    <glyph glyph-name="Wacute" unicode="&#x1e82;" horiz-adv-x="795" 
d="M521 763h-45c-6 0 -8 5 -4 10l97 105c6 6 12 10 20 10h66c6 0 9 -5 3 -10l-118 -107c-8 -7 -12 -8 -19 -8zM563 0h-51c-6 0 -9 4 -10 10l-47 517h-2l-233 -517c-3 -6 -7 -10 -13 -10h-52c-5 0 -9 4 -10 10l-41 660c0 6 3 10 10 10h60c6 0 10 -4 10 -10l25 -513h2l229 513
c3 6 7 10 13 10h47c6 0 9 -4 10 -10l48 -513h2l206 513c2 7 6 10 13 10h65c7 0 9 -4 7 -10l-276 -660c-2 -6 -6 -10 -12 -10z" />
    <glyph glyph-name="Wdieresis" unicode="&#x1e84;" horiz-adv-x="795" 
d="M622 778h-56c-6 0 -9 4 -8 10l13 70c1 6 5 10 11 10h55c6 0 9 -4 8 -10l-12 -70c-1 -6 -5 -10 -11 -10zM432 778h-56c-6 0 -9 4 -8 10l13 70c1 6 5 10 11 10h55c6 0 9 -4 8 -10l-12 -70c-1 -6 -5 -10 -11 -10zM563 0h-51c-6 0 -9 4 -10 10l-47 517h-2l-233 -517
c-3 -6 -7 -10 -13 -10h-52c-5 0 -9 4 -10 10l-41 660c0 6 3 10 10 10h60c6 0 10 -4 10 -10l25 -513h2l229 513c3 6 7 10 13 10h47c6 0 9 -4 10 -10l48 -513h2l206 513c2 7 6 10 13 10h65c7 0 9 -4 7 -10l-276 -660c-2 -6 -6 -10 -12 -10z" />
    <glyph glyph-name="Wgrave" unicode="&#x1e80;" horiz-adv-x="795" 
d="M503 763h-45c-8 0 -10 1 -16 8l-82 106c-3 5 0 11 5 11h61c10 0 14 -3 19 -10l64 -105c3 -6 0 -10 -6 -10zM563 0h-51c-6 0 -9 4 -10 10l-47 517h-2l-233 -517c-3 -6 -7 -10 -13 -10h-52c-5 0 -9 4 -10 10l-41 660c0 6 3 10 10 10h60c6 0 10 -4 10 -10l25 -513h2l229 513
c3 6 7 10 13 10h47c6 0 9 -4 10 -10l48 -513h2l206 513c2 7 6 10 13 10h65c7 0 9 -4 7 -10l-276 -660c-2 -6 -6 -10 -12 -10z" />
    <glyph glyph-name="Yacute" unicode="&#xdd;" horiz-adv-x="508" 
d="M248 0h-63c-6 0 -10 4 -9 10l48 269l-125 390c-1 6 2 11 9 11h63c7 0 11 -3 13 -10l94 -297h3l200 297c5 7 9 10 16 10h65c8 0 10 -5 7 -11l-262 -391l-48 -268c-1 -6 -5 -10 -11 -10zM362 763h-45c-6 0 -8 5 -4 10l97 105c6 6 12 10 20 10h66c6 0 9 -5 3 -10l-118 -107
c-8 -7 -12 -8 -19 -8z" />
    <glyph glyph-name="Ycircumflex" unicode="&#x176;" horiz-adv-x="508" 
d="M248 0h-63c-6 0 -10 4 -9 10l48 269l-125 390c-1 6 2 11 9 11h63c7 0 11 -3 13 -10l94 -297h3l200 297c5 7 9 10 16 10h65c8 0 10 -5 7 -11l-262 -391l-48 -268c-1 -6 -5 -10 -11 -10zM467 754h-38c-8 0 -11 2 -17 10l-48 75h-1l-77 -75c-7 -8 -11 -10 -20 -10h-43
c-6 0 -8 5 -3 10l112 124c6 7 11 9 18 9h39c7 0 10 -2 14 -9l69 -124c3 -5 0 -10 -5 -10z" />
    <glyph glyph-name="Ydieresis" unicode="&#x178;" horiz-adv-x="508" 
d="M248 0h-63c-6 0 -10 4 -9 10l48 269l-125 390c-1 6 2 11 9 11h63c7 0 11 -3 13 -10l94 -297h3l200 297c5 7 9 10 16 10h65c8 0 10 -5 7 -11l-262 -391l-48 -268c-1 -6 -5 -10 -11 -10zM471 778h-56c-6 0 -9 4 -8 10l13 70c1 6 5 10 11 10h55c6 0 9 -4 8 -10l-12 -70
c-1 -6 -5 -10 -11 -10zM281 778h-56c-6 0 -9 4 -8 10l13 70c1 6 5 10 11 10h55c6 0 9 -4 8 -10l-12 -70c-1 -6 -5 -10 -11 -10z" />
    <glyph glyph-name="Ygrave" unicode="&#x1ef2;" horiz-adv-x="508" 
d="M248 0h-63c-6 0 -10 4 -9 10l48 269l-125 390c-1 6 2 11 9 11h63c7 0 11 -3 13 -10l94 -297h3l200 297c5 7 9 10 16 10h65c8 0 10 -5 7 -11l-262 -391l-48 -268c-1 -6 -5 -10 -11 -10zM361 763h-45c-8 0 -10 1 -16 8l-82 106c-3 5 0 11 5 11h61c10 0 14 -3 19 -10
l64 -105c3 -6 0 -10 -6 -10z" />
    <glyph glyph-name="Zacute" unicode="&#x179;" horiz-adv-x="516" 
d="M422 0h-402c-6 0 -10 4 -9 10l10 58c1 5 4 9 7 14l411 519v1h-301c-6 0 -9 4 -8 10l10 58c1 6 5 10 11 10h391c6 0 9 -4 8 -10l-9 -55c-1 -5 -3 -9 -7 -14l-413 -522v-1h315c6 0 9 -4 8 -10l-10 -58c-1 -6 -6 -10 -12 -10zM357 763h-45c-6 0 -8 5 -4 10l97 105
c6 6 12 10 20 10h66c6 0 9 -5 3 -10l-118 -107c-8 -7 -12 -8 -19 -8z" />
    <glyph glyph-name="Zcaron" unicode="&#x17d;" horiz-adv-x="516" 
d="M373 753h-39c-7 0 -10 2 -14 9l-69 124c-3 5 0 10 5 10h38c8 0 11 -2 17 -10l48 -75h1l76 75c8 8 12 10 21 10h43c6 0 8 -5 3 -10l-112 -124c-6 -7 -11 -9 -18 -9zM422 0h-402c-6 0 -10 4 -9 10l10 58c1 5 4 9 7 14l411 519v1h-301c-6 0 -9 4 -8 10l10 58c1 6 5 10 11 10
h391c6 0 9 -4 8 -10l-9 -55c-1 -5 -3 -9 -7 -14l-413 -522v-1h315c6 0 9 -4 8 -10l-10 -58c-1 -6 -6 -10 -12 -10z" />
    <glyph glyph-name="Zdotaccent" unicode="&#x17b;" horiz-adv-x="516" 
d="M387 778h-66c-6 0 -9 4 -8 10l12 70c1 6 5 10 11 10h66c6 0 9 -4 8 -10l-12 -70c-1 -6 -5 -10 -11 -10zM422 0h-402c-6 0 -10 4 -9 10l10 58c1 5 4 9 7 14l411 519v1h-301c-6 0 -9 4 -8 10l10 58c1 6 5 10 11 10h391c6 0 9 -4 8 -10l-9 -55c-1 -5 -3 -9 -7 -14l-413 -522
v-1h315c6 0 9 -4 8 -10l-10 -58c-1 -6 -6 -10 -12 -10z" />
    <glyph glyph-name="agrave" unicode="&#xe0;" horiz-adv-x="498" 
d="M376 0h-55c-6 0 -9 4 -8 10l7 43h-1c-27 -37 -76 -64 -148 -64c-78 0 -132 47 -132 121c0 111 76 169 208 169h105c4 0 6 2 7 6l7 39c12 68 -7 96 -92 96c-55 0 -92 -17 -118 -37c-6 -4 -11 -4 -14 1l-18 45c-2 5 -1 10 3 13c39 29 99 48 165 48c127 0 172 -46 151 -162
l-56 -318c-1 -6 -5 -10 -11 -10zM202 56c72 0 124 37 134 98l10 56c1 4 -1 6 -5 6h-92c-94 0 -131 -35 -131 -95c0 -40 27 -65 84 -65zM346 557h-41c-9 0 -11 2 -16 10l-66 123c-3 5 1 10 7 10h58c8 0 11 -3 14 -10l52 -123c2 -6 -2 -10 -8 -10z" />
    <glyph glyph-name="aacute" unicode="&#xe1;" horiz-adv-x="498" 
d="M376 0h-55c-6 0 -9 4 -8 10l7 43h-1c-27 -37 -76 -64 -148 -64c-78 0 -132 47 -132 121c0 111 76 169 208 169h105c4 0 6 2 7 6l7 39c12 68 -7 96 -92 96c-55 0 -92 -17 -118 -37c-6 -4 -11 -4 -14 1l-18 45c-2 5 -1 10 3 13c39 29 99 48 165 48c127 0 172 -46 151 -162
l-56 -318c-1 -6 -5 -10 -11 -10zM202 56c72 0 124 37 134 98l10 56c1 4 -1 6 -5 6h-92c-94 0 -131 -35 -131 -95c0 -40 27 -65 84 -65zM327 557h-42c-6 0 -9 4 -5 10l92 123c5 7 11 10 19 10h62c6 0 8 -6 3 -11l-109 -122c-7 -8 -11 -10 -20 -10z" />
    <glyph glyph-name="acircumflex" unicode="&#xe2;" horiz-adv-x="498" 
d="M376 0h-55c-6 0 -9 4 -8 10l7 43h-1c-27 -37 -76 -64 -148 -64c-78 0 -132 47 -132 121c0 111 76 169 208 169h105c4 0 6 2 7 6l7 39c12 68 -7 96 -92 96c-55 0 -92 -17 -118 -37c-6 -4 -11 -4 -14 1l-18 45c-2 5 -1 10 3 13c39 29 99 48 165 48c127 0 172 -46 151 -162
l-56 -318c-1 -6 -5 -10 -11 -10zM202 56c72 0 124 37 134 98l10 56c1 4 -1 6 -5 6h-92c-94 0 -131 -35 -131 -95c0 -40 27 -65 84 -65zM437 557h-38c-8 0 -11 2 -16 10l-49 75h-1l-76 -75c-7 -8 -12 -10 -20 -10h-44c-5 0 -7 5 -3 10l112 124c6 7 11 9 18 9h39
c7 0 11 -2 14 -9l69 -124c3 -5 1 -10 -5 -10z" />
    <glyph glyph-name="atilde" unicode="&#xe3;" horiz-adv-x="498" 
d="M376 0h-55c-6 0 -9 4 -8 10l7 43h-1c-27 -37 -76 -64 -148 -64c-78 0 -132 47 -132 121c0 111 76 169 208 169h105c4 0 6 2 7 6l7 39c12 68 -7 96 -92 96c-55 0 -92 -17 -118 -37c-6 -4 -11 -4 -14 1l-18 45c-2 5 -1 10 3 13c39 29 99 48 165 48c127 0 172 -46 151 -162
l-56 -318c-1 -6 -5 -10 -11 -10zM202 56c72 0 124 37 134 98l10 56c1 4 -1 6 -5 6h-92c-94 0 -131 -35 -131 -95c0 -40 27 -65 84 -65zM371 580c-25 0 -41 8 -58 20c-16 11 -29 18 -48 18c-24 0 -44 -12 -65 -32c-4 -4 -9 -1 -8 3l7 46c2 8 4 11 11 17c21 20 44 30 69 30
s41 -9 58 -21c16 -10 29 -18 48 -18c24 0 44 13 65 32c4 4 9 2 8 -3l-7 -46c-2 -7 -4 -11 -11 -17c-20 -19 -43 -29 -69 -29z" />
    <glyph glyph-name="adieresis" unicode="&#xe4;" horiz-adv-x="498" 
d="M376 0h-55c-6 0 -9 4 -8 10l7 43h-1c-27 -37 -76 -64 -148 -64c-78 0 -132 47 -132 121c0 111 76 169 208 169h105c4 0 6 2 7 6l7 39c12 68 -7 96 -92 96c-55 0 -92 -17 -118 -37c-6 -4 -11 -4 -14 1l-18 45c-2 5 -1 10 3 13c39 29 99 48 165 48c127 0 172 -46 151 -162
l-56 -318c-1 -6 -5 -10 -11 -10zM202 56c72 0 124 37 134 98l10 56c1 4 -1 6 -5 6h-92c-94 0 -131 -35 -131 -95c0 -40 27 -65 84 -65zM445 591h-56c-6 0 -9 4 -8 10l13 69c1 6 5 10 11 10h55c6 0 9 -4 8 -10l-12 -69c-1 -6 -5 -10 -11 -10zM255 591h-56c-6 0 -9 4 -8 10
l13 69c1 6 5 10 11 10h55c6 0 9 -4 8 -10l-12 -69c-1 -6 -5 -10 -11 -10z" />
    <glyph glyph-name="amacron" unicode="&#x101;" horiz-adv-x="498" 
d="M376 0h-55c-6 0 -9 4 -8 10l7 43h-1c-27 -37 -76 -64 -148 -64c-78 0 -132 47 -132 121c0 111 76 169 208 169h105c4 0 6 2 7 6l7 39c12 68 -7 96 -92 96c-55 0 -92 -17 -118 -37c-6 -4 -11 -4 -14 1l-18 45c-2 5 -1 10 3 13c39 29 99 48 165 48c127 0 172 -46 151 -162
l-56 -318c-1 -6 -5 -10 -11 -10zM202 56c72 0 124 37 134 98l10 56c1 4 -1 6 -5 6h-92c-94 0 -131 -35 -131 -95c0 -40 27 -65 84 -65zM445 605h-244c-6 0 -9 4 -8 10l7 41c1 6 5 10 11 10h244c6 0 9 -4 8 -10l-7 -41c-1 -6 -5 -10 -11 -10z" />
    <glyph glyph-name="abreve" unicode="&#x103;" horiz-adv-x="498" 
d="M376 0h-55c-6 0 -9 4 -8 10l7 43h-1c-27 -37 -76 -64 -148 -64c-78 0 -132 47 -132 121c0 111 76 169 208 169h105c4 0 6 2 7 6l7 39c12 68 -7 96 -92 96c-55 0 -92 -17 -118 -37c-6 -4 -11 -4 -14 1l-18 45c-2 5 -1 10 3 13c39 29 99 48 165 48c127 0 172 -46 151 -162
l-56 -318c-1 -6 -5 -10 -11 -10zM202 56c72 0 124 37 134 98l10 56c1 4 -1 6 -5 6h-92c-94 0 -131 -35 -131 -95c0 -40 27 -65 84 -65zM313 563c-73 0 -114 46 -109 111c0 6 4 10 10 10h31c6 0 10 -3 11 -10c3 -35 26 -54 66 -54c41 0 70 19 87 54c3 7 6 10 13 10h32
c6 0 9 -4 7 -10c-19 -65 -75 -111 -148 -111z" />
    <glyph glyph-name="aring" unicode="&#xe5;" horiz-adv-x="498" 
d="M376 0h-55c-6 0 -9 4 -8 10l7 43h-1c-27 -37 -76 -64 -148 -64c-78 0 -132 47 -132 121c0 111 76 169 208 169h105c4 0 6 2 7 6l7 39c12 68 -7 96 -92 96c-55 0 -92 -17 -118 -37c-6 -4 -11 -4 -14 1l-18 45c-2 5 -1 10 3 13c39 29 99 48 165 48c127 0 172 -46 151 -162
l-56 -318c-1 -6 -5 -10 -11 -10zM202 56c72 0 124 37 134 98l10 56c1 4 -1 6 -5 6h-92c-94 0 -131 -35 -131 -95c0 -40 27 -65 84 -65zM311 536c-45 0 -75 31 -75 76c0 59 43 110 107 110c45 0 76 -31 76 -76c0 -59 -44 -110 -108 -110zM318 575c33 0 60 27 60 65
c0 25 -15 43 -42 43c-32 0 -60 -27 -60 -65c0 -25 16 -43 42 -43z" />
    <glyph glyph-name="aogonek" unicode="&#x105;" horiz-adv-x="498" 
d="M281 -180c-39 0 -68 22 -68 63c0 44 33 85 100 125l7 45h-1c-27 -37 -76 -64 -148 -64c-78 0 -132 47 -132 121c0 111 76 169 208 169h105c4 0 6 2 7 6l7 39c12 68 -7 96 -92 96c-55 0 -92 -17 -118 -37c-6 -4 -11 -4 -14 1l-18 45c-2 5 -1 10 3 13c39 29 99 48 165 48
c127 0 172 -46 151 -162l-56 -318c-1 -6 -4 -8 -8 -11c-74 -45 -98 -71 -98 -96c0 -14 8 -21 22 -21c10 0 17 2 27 8c6 3 10 1 12 -3l11 -34c2 -5 0 -9 -6 -13c-18 -12 -42 -20 -66 -20zM202 56c72 0 124 37 134 98l10 56c1 4 -1 6 -5 6h-92c-94 0 -131 -35 -131 -95
c0 -40 27 -65 84 -65z" />
    <glyph glyph-name="ae" unicode="&#xe6;" horiz-adv-x="780" 
d="M506 -11c-81 0 -127 35 -148 85h-1c-39 -59 -98 -85 -178 -85c-90 0 -140 48 -140 121c0 111 76 169 208 169h105c4 0 6 2 7 6l7 39c12 68 -7 96 -92 96c-55 0 -92 -17 -118 -37c-6 -4 -11 -4 -14 1l-18 45c-2 5 -1 10 3 13c39 29 99 48 165 48c76 0 126 -20 141 -66h1
c37 42 90 66 151 66c91 0 159 -56 159 -163c0 -25 -3 -52 -11 -101c-1 -6 -6 -10 -12 -10h-292c-4 0 -7 -2 -8 -6c-3 -16 -3 -27 -3 -41c0 -73 34 -107 101 -107c53 0 99 25 130 57c6 5 11 4 15 1l31 -35c5 -4 4 -10 -1 -15c-44 -46 -109 -81 -188 -81zM439 279h217
c4 0 6 2 7 6c3 14 5 29 5 40c0 64 -34 95 -93 95c-53 0 -97 -27 -122 -77c-8 -16 -14 -38 -18 -58c-1 -4 0 -6 4 -6zM202 56c72 0 124 37 134 98l10 56c1 4 -1 6 -5 6h-92c-94 0 -131 -35 -131 -95c0 -40 27 -65 84 -65z" />
    <glyph glyph-name="cacute" unicode="&#x107;" horiz-adv-x="449" 
d="M309 557h-42c-6 0 -9 4 -5 10l92 123c5 7 11 10 19 10h62c6 0 8 -6 3 -11l-109 -122c-7 -8 -11 -10 -20 -10zM207 -11c-102 0 -161 62 -161 165c0 55 14 147 45 212c39 81 109 124 200 124c70 0 118 -31 142 -86c2 -6 1 -10 -4 -14l-43 -31c-5 -3 -11 -2 -14 3
c-20 38 -45 56 -89 56c-48 0 -92 -28 -118 -79c-25 -51 -38 -134 -38 -171c0 -68 28 -106 92 -106c40 0 76 17 112 57c4 5 9 6 13 2l36 -37c4 -4 4 -9 0 -14c-41 -51 -101 -81 -173 -81z" />
    <glyph glyph-name="ccircumflex" unicode="&#x109;" horiz-adv-x="449" 
d="M419 557h-38c-8 0 -11 2 -16 10l-49 75h-1l-76 -75c-7 -8 -12 -10 -20 -10h-44c-5 0 -7 5 -3 10l112 124c6 7 11 9 18 9h39c7 0 11 -2 14 -9l69 -124c3 -5 1 -10 -5 -10zM207 -11c-102 0 -161 62 -161 165c0 55 14 147 45 212c39 81 109 124 200 124
c70 0 118 -31 142 -86c2 -6 1 -10 -4 -14l-43 -31c-5 -3 -11 -2 -14 3c-20 38 -45 56 -89 56c-48 0 -92 -28 -118 -79c-25 -51 -38 -134 -38 -171c0 -68 28 -106 92 -106c40 0 76 17 112 57c4 5 9 6 13 2l36 -37c4 -4 4 -9 0 -14c-41 -51 -101 -81 -173 -81z" />
    <glyph glyph-name="ccaron" unicode="&#x10d;" horiz-adv-x="449" 
d="M313 556h-38c-7 0 -11 3 -14 9l-69 124c-3 5 -1 10 5 10h38c8 0 11 -2 16 -9l49 -76h1l76 76c7 7 12 9 20 9h44c5 0 7 -5 3 -10l-112 -124c-6 -7 -11 -9 -19 -9zM207 -11c-102 0 -161 62 -161 165c0 55 14 147 45 212c39 81 109 124 200 124c70 0 118 -31 142 -86
c2 -6 1 -10 -4 -14l-43 -31c-5 -3 -11 -2 -14 3c-20 38 -45 56 -89 56c-48 0 -92 -28 -118 -79c-25 -51 -38 -134 -38 -171c0 -68 28 -106 92 -106c40 0 76 17 112 57c4 5 9 6 13 2l36 -37c4 -4 4 -9 0 -14c-41 -51 -101 -81 -173 -81z" />
    <glyph glyph-name="cdotaccent" unicode="&#x10b;" horiz-adv-x="449" 
d="M207 -11c-102 0 -161 62 -161 165c0 55 14 147 45 212c39 81 109 124 200 124c70 0 118 -31 142 -86c2 -6 1 -10 -4 -14l-43 -31c-5 -3 -11 -2 -14 3c-20 38 -45 56 -89 56c-48 0 -92 -28 -118 -79c-25 -51 -38 -134 -38 -171c0 -68 28 -106 92 -106c40 0 76 17 112 57
c4 5 9 6 13 2l36 -37c4 -4 4 -9 0 -14c-41 -51 -101 -81 -173 -81zM332 591h-66c-6 0 -9 4 -8 10l12 69c1 6 5 10 11 10h66c6 0 9 -4 8 -10l-12 -69c-1 -6 -5 -10 -11 -10z" />
    <glyph glyph-name="ccedilla" unicode="&#xe7;" horiz-adv-x="449" 
d="M145 -151h-51c-6 0 -8 4 -5 10l76 134c-76 15 -119 73 -119 161c0 55 14 147 45 212c39 81 109 124 200 124c70 0 118 -31 142 -86c2 -6 1 -10 -4 -14l-43 -31c-5 -3 -11 -2 -14 3c-20 38 -45 56 -89 56c-48 0 -92 -28 -118 -79c-25 -51 -38 -134 -38 -171
c0 -68 28 -106 92 -106c40 0 76 17 112 57c4 5 9 6 13 2l36 -37c4 -4 4 -9 0 -14c-37 -46 -90 -75 -153 -80l-65 -131c-4 -8 -9 -10 -17 -10z" />
    <glyph glyph-name="dcaron" unicode="&#x10f;" horiz-adv-x="516" 
d="M554 521c-6 0 -9 4 -8 10l24 139c1 6 5 10 11 10h57c6 0 9 -4 8 -10l-10 -60c-2 -8 -4 -14 -9 -20l-60 -62c-5 -5 -8 -7 -13 -7zM390 0h-61c-6 0 -9 4 -8 10l8 47h-1c-29 -38 -74 -68 -143 -68c-90 0 -140 61 -140 157c0 70 22 178 49 233c38 77 97 111 177 111
c68 0 106 -32 122 -69h1l43 249c1 6 5 10 11 10h60c6 0 10 -4 9 -10l-116 -660c-1 -6 -5 -10 -11 -10zM217 62c50 0 91 25 118 78c16 33 36 132 36 179c0 60 -29 99 -91 99c-53 0 -91 -28 -116 -77c-21 -42 -37 -131 -37 -179c0 -62 24 -100 90 -100z" />
    <glyph glyph-name="dcroat" unicode="&#x111;" horiz-adv-x="516" 
d="M389 0h-60c-6 0 -9 4 -8 10l8 47h-1c-29 -38 -75 -68 -143 -68c-90 0 -140 61 -140 157c0 70 22 178 49 233c38 77 96 111 176 111c68 0 107 -32 122 -69h1l23 129c1 4 -1 6 -5 6h-116c-5 0 -8 4 -7 10l7 44c1 6 5 10 11 10h115c4 0 6 2 7 6l9 44c1 6 4 10 10 10h60
c6 0 10 -4 9 -10l-8 -44c-1 -4 1 -6 4 -6h23c6 0 10 -4 9 -10l-8 -44c-1 -7 -6 -10 -12 -10h-22c-3 0 -6 -2 -7 -6l-95 -540c-1 -6 -5 -10 -11 -10zM216 62c50 0 91 25 118 78c16 33 36 132 36 179c0 60 -29 99 -91 99c-52 0 -91 -28 -115 -77c-21 -42 -38 -131 -38 -179
c0 -62 24 -100 90 -100z" />
    <glyph glyph-name="eth" unicode="&#xf0;" horiz-adv-x="494" 
d="M432 587l-68 -20l33 -59c37 -67 58 -139 58 -208c0 -68 -16 -133 -43 -190c-40 -82 -113 -121 -202 -121c-107 0 -161 65 -161 170c0 64 15 134 40 187c38 80 102 122 180 122c33 0 59 -10 74 -23h2l-55 100l-99 -29c-6 -2 -10 0 -11 6l-3 39c-1 6 2 11 9 13l75 22
l-40 74c-3 5 0 10 6 10h65c7 0 11 -3 15 -10l28 -52l92 28c6 2 11 -1 11 -6l3 -40c1 -7 -2 -11 -9 -13zM222 63c51 0 93 25 119 77c18 36 34 101 34 152c0 67 -31 104 -94 104c-51 0 -92 -25 -118 -77c-19 -36 -34 -101 -34 -152c0 -67 29 -104 93 -104z" />
    <glyph glyph-name="egrave" unicode="&#xe8;" horiz-adv-x="485" 
d="M212 -11c-109 0 -166 62 -166 168c0 62 14 150 42 207c38 80 105 126 202 126c92 0 160 -56 160 -163c0 -25 -3 -52 -12 -101c-1 -6 -6 -10 -12 -10h-293c-4 0 -6 -2 -7 -6c-3 -16 -3 -27 -3 -41c0 -73 34 -107 102 -107c52 0 98 25 130 57c6 5 11 4 15 1l31 -35
c4 -4 4 -10 -1 -15c-45 -46 -110 -81 -188 -81zM145 279h216c4 0 7 2 8 6c3 14 4 29 4 40c0 64 -33 95 -93 95c-52 0 -96 -26 -120 -76c-8 -16 -15 -39 -19 -59c-1 -4 0 -6 4 -6zM315 557h-41c-9 0 -11 2 -16 10l-66 123c-3 5 1 10 7 10h58c8 0 11 -3 14 -10l52 -123
c2 -6 -2 -10 -8 -10z" />
    <glyph glyph-name="eacute" unicode="&#xe9;" horiz-adv-x="485" 
d="M301 557h-42c-6 0 -9 4 -5 10l92 123c5 7 11 10 19 10h62c6 0 8 -6 3 -11l-109 -122c-7 -8 -11 -10 -20 -10zM212 -11c-109 0 -166 62 -166 168c0 62 14 150 42 207c38 80 105 126 202 126c92 0 160 -56 160 -163c0 -25 -3 -52 -12 -101c-1 -6 -6 -10 -12 -10h-293
c-4 0 -6 -2 -7 -6c-3 -16 -3 -27 -3 -41c0 -73 34 -107 102 -107c52 0 98 25 130 57c6 5 11 4 15 1l31 -35c4 -4 4 -10 -1 -15c-45 -46 -110 -81 -188 -81zM145 279h216c4 0 7 2 8 6c3 14 4 29 4 40c0 64 -33 95 -93 95c-52 0 -96 -26 -120 -76c-8 -16 -15 -39 -19 -59
c-1 -4 0 -6 4 -6z" />
    <glyph glyph-name="ecircumflex" unicode="&#xea;" horiz-adv-x="485" 
d="M415 557h-38c-8 0 -11 2 -16 10l-49 75h-1l-76 -75c-7 -8 -12 -10 -20 -10h-44c-5 0 -7 5 -3 10l112 124c6 7 11 9 18 9h39c7 0 11 -2 14 -9l69 -124c3 -5 1 -10 -5 -10zM212 -11c-109 0 -166 62 -166 168c0 62 14 150 42 207c38 80 105 126 202 126
c92 0 160 -56 160 -163c0 -25 -3 -52 -12 -101c-1 -6 -6 -10 -12 -10h-293c-4 0 -6 -2 -7 -6c-3 -16 -3 -27 -3 -41c0 -73 34 -107 102 -107c52 0 98 25 130 57c6 5 11 4 15 1l31 -35c4 -4 4 -10 -1 -15c-45 -46 -110 -81 -188 -81zM145 279h216c4 0 7 2 8 6c3 14 4 29 4 40
c0 64 -33 95 -93 95c-52 0 -96 -26 -120 -76c-8 -16 -15 -39 -19 -59c-1 -4 0 -6 4 -6z" />
    <glyph glyph-name="ecaron" unicode="&#x11b;" horiz-adv-x="485" 
d="M316 556h-38c-7 0 -11 3 -14 9l-69 124c-3 5 -1 10 5 10h38c8 0 11 -2 16 -9l49 -76h1l76 76c7 7 12 9 20 9h44c5 0 7 -5 3 -10l-112 -124c-6 -7 -11 -9 -19 -9zM212 -11c-109 0 -166 62 -166 168c0 62 14 150 42 207c38 80 105 126 202 126c92 0 160 -56 160 -163
c0 -25 -3 -52 -12 -101c-1 -6 -6 -10 -12 -10h-293c-4 0 -6 -2 -7 -6c-3 -16 -3 -27 -3 -41c0 -73 34 -107 102 -107c52 0 98 25 130 57c6 5 11 4 15 1l31 -35c4 -4 4 -10 -1 -15c-45 -46 -110 -81 -188 -81zM145 279h216c4 0 7 2 8 6c3 14 4 29 4 40c0 64 -33 95 -93 95
c-52 0 -96 -26 -120 -76c-8 -16 -15 -39 -19 -59c-1 -4 0 -6 4 -6z" />
    <glyph glyph-name="edieresis" unicode="&#xeb;" horiz-adv-x="485" 
d="M427 591h-56c-6 0 -9 4 -8 10l13 69c1 6 5 10 11 10h55c6 0 9 -4 8 -10l-12 -69c-1 -6 -5 -10 -11 -10zM237 591h-56c-6 0 -9 4 -8 10l13 69c1 6 5 10 11 10h55c6 0 9 -4 8 -10l-12 -69c-1 -6 -5 -10 -11 -10zM212 -11c-109 0 -166 62 -166 168c0 62 14 150 42 207
c38 80 105 126 202 126c92 0 160 -56 160 -163c0 -25 -3 -52 -12 -101c-1 -6 -6 -10 -12 -10h-293c-4 0 -6 -2 -7 -6c-3 -16 -3 -27 -3 -41c0 -73 34 -107 102 -107c52 0 98 25 130 57c6 5 11 4 15 1l31 -35c4 -4 4 -10 -1 -15c-45 -46 -110 -81 -188 -81zM145 279h216
c4 0 7 2 8 6c3 14 4 29 4 40c0 64 -33 95 -93 95c-52 0 -96 -26 -120 -76c-8 -16 -15 -39 -19 -59c-1 -4 0 -6 4 -6z" />
    <glyph glyph-name="emacron" unicode="&#x113;" horiz-adv-x="485" 
d="M212 -11c-109 0 -166 62 -166 168c0 62 14 150 42 207c38 80 105 126 202 126c92 0 160 -56 160 -163c0 -25 -3 -52 -12 -101c-1 -6 -6 -10 -12 -10h-293c-4 0 -6 -2 -7 -6c-3 -16 -3 -27 -3 -41c0 -73 34 -107 102 -107c52 0 98 25 130 57c6 5 11 4 15 1l31 -35
c4 -4 4 -10 -1 -15c-45 -46 -110 -81 -188 -81zM145 279h216c4 0 7 2 8 6c3 14 4 29 4 40c0 64 -33 95 -93 95c-52 0 -96 -26 -120 -76c-8 -16 -15 -39 -19 -59c-1 -4 0 -6 4 -6zM428 605h-244c-6 0 -9 4 -8 10l7 41c1 6 5 10 11 10h244c6 0 9 -4 8 -10l-7 -41
c-1 -6 -5 -10 -11 -10z" />
    <glyph glyph-name="ebreve" unicode="&#x115;" horiz-adv-x="485" 
d="M212 -11c-109 0 -166 62 -166 168c0 62 14 150 42 207c38 80 105 126 202 126c92 0 160 -56 160 -163c0 -25 -3 -52 -12 -101c-1 -6 -6 -10 -12 -10h-293c-4 0 -6 -2 -7 -6c-3 -16 -3 -27 -3 -41c0 -73 34 -107 102 -107c52 0 98 25 130 57c6 5 11 4 15 1l31 -35
c4 -4 4 -10 -1 -15c-45 -46 -110 -81 -188 -81zM145 279h216c4 0 7 2 8 6c3 14 4 29 4 40c0 64 -33 95 -93 95c-52 0 -96 -26 -120 -76c-8 -16 -15 -39 -19 -59c-1 -4 0 -6 4 -6zM299 563c-73 0 -114 46 -109 111c0 6 4 10 10 10h31c6 0 10 -3 11 -10c3 -35 26 -54 66 -54
c41 0 70 19 87 54c3 7 6 10 13 10h32c6 0 9 -4 7 -10c-19 -65 -75 -111 -148 -111z" />
    <glyph glyph-name="edotaccent" unicode="&#x117;" horiz-adv-x="485" 
d="M212 -11c-109 0 -166 62 -166 168c0 62 14 150 42 207c38 80 105 126 202 126c92 0 160 -56 160 -163c0 -25 -3 -52 -12 -101c-1 -6 -6 -10 -12 -10h-293c-4 0 -6 -2 -7 -6c-3 -16 -3 -27 -3 -41c0 -73 34 -107 102 -107c52 0 98 25 130 57c6 5 11 4 15 1l31 -35
c4 -4 4 -10 -1 -15c-45 -46 -110 -81 -188 -81zM145 279h216c4 0 7 2 8 6c3 14 4 29 4 40c0 64 -33 95 -93 95c-52 0 -96 -26 -120 -76c-8 -16 -15 -39 -19 -59c-1 -4 0 -6 4 -6zM337 591h-66c-6 0 -9 4 -8 10l12 69c1 6 5 10 11 10h66c6 0 9 -4 8 -10l-12 -69
c-1 -6 -5 -10 -11 -10z" />
    <glyph glyph-name="eogonek" unicode="&#x119;" horiz-adv-x="485" 
d="M250 -180c-39 0 -67 22 -67 63c0 33 24 75 62 111c-10 -3 -22 -5 -33 -5c-109 0 -166 62 -166 168c0 62 14 150 42 207c38 80 105 126 202 126c92 0 160 -56 160 -163c0 -25 -3 -52 -12 -101c-1 -6 -6 -10 -12 -10h-293c-4 0 -6 -2 -7 -6c-3 -16 -3 -27 -3 -41
c0 -73 34 -107 102 -107c52 0 98 25 130 57c6 5 11 4 15 1l31 -35c4 -4 3 -10 -1 -15c-15 -15 -31 -28 -48 -40c-77 -65 -101 -102 -101 -127c0 -14 8 -21 22 -21c9 0 17 2 27 8c5 3 10 1 12 -3l10 -34c2 -5 0 -9 -5 -13c-18 -12 -42 -20 -67 -20zM145 279h216c4 0 7 2 8 6
c3 14 4 29 4 40c0 64 -33 95 -93 95c-52 0 -96 -26 -120 -76c-8 -16 -15 -39 -19 -59c-1 -4 0 -6 4 -6z" />
    <glyph glyph-name="gcircumflex" unicode="&#x11d;" horiz-adv-x="507" 
d="M437 557h-38c-8 0 -11 2 -16 10l-49 75h-1l-76 -75c-7 -8 -12 -10 -20 -10h-44c-5 0 -7 5 -3 10l112 124c6 7 11 9 18 9h39c7 0 11 -2 14 -9l69 -124c3 -5 1 -10 -5 -10zM167 -191c-68 0 -123 30 -150 75c-4 6 -3 12 2 15l42 36c6 4 11 4 15 -2c25 -30 55 -50 100 -50
c75 0 123 42 138 133l11 55h-1c-29 -41 -72 -66 -137 -66c-93 0 -138 61 -138 153c0 55 16 157 44 216c37 76 97 116 176 116c65 0 102 -29 116 -69h1l9 48c1 6 5 10 11 10h59c6 0 9 -4 8 -10l-79 -449c-28 -152 -100 -211 -227 -211zM218 78c45 0 84 22 109 73
c20 40 37 125 37 169c0 60 -28 98 -88 98c-50 0 -85 -26 -110 -75c-23 -46 -37 -117 -37 -168c0 -61 26 -97 89 -97z" />
    <glyph glyph-name="gbreve" unicode="&#x11f;" horiz-adv-x="507" 
d="M167 -191c-68 0 -123 30 -150 75c-4 6 -3 12 2 15l42 36c6 4 11 4 15 -2c25 -30 55 -50 100 -50c75 0 123 42 138 133l11 55h-1c-29 -41 -72 -66 -137 -66c-93 0 -138 61 -138 153c0 55 16 157 44 216c37 76 97 116 176 116c65 0 102 -29 116 -69h1l9 48c1 6 5 10 11 10
h59c6 0 9 -4 8 -10l-79 -449c-28 -152 -100 -211 -227 -211zM218 78c45 0 84 22 109 73c20 40 37 125 37 169c0 60 -28 98 -88 98c-50 0 -85 -26 -110 -75c-23 -46 -37 -117 -37 -168c0 -61 26 -97 89 -97zM315 563c-73 0 -114 46 -109 111c0 6 4 10 10 10h31
c6 0 10 -3 11 -10c3 -35 26 -54 66 -54c41 0 70 19 87 54c3 7 6 10 13 10h32c6 0 9 -4 7 -10c-19 -65 -75 -111 -148 -111z" />
    <glyph glyph-name="gdotaccent" unicode="&#x121;" horiz-adv-x="507" 
d="M167 -191c-68 0 -123 30 -150 75c-4 6 -3 12 2 15l42 36c6 4 11 4 15 -2c25 -30 55 -50 100 -50c75 0 123 42 138 133l11 55h-1c-29 -41 -72 -66 -137 -66c-93 0 -138 61 -138 153c0 55 16 157 44 216c37 76 97 116 176 116c65 0 102 -29 116 -69h1l9 48c1 6 5 10 11 10
h59c6 0 9 -4 8 -10l-79 -449c-28 -152 -100 -211 -227 -211zM218 78c45 0 84 22 109 73c20 40 37 125 37 169c0 60 -28 98 -88 98c-50 0 -85 -26 -110 -75c-23 -46 -37 -117 -37 -168c0 -61 26 -97 89 -97zM353 591h-66c-6 0 -9 4 -8 10l12 69c1 6 5 10 11 10h66
c6 0 9 -4 8 -10l-12 -69c-1 -6 -5 -10 -11 -10z" />
    <glyph glyph-name="gcommaaccent" unicode="&#x123;" horiz-adv-x="507" 
d="M344 572h-57c-6 0 -9 4 -8 10l10 57c2 9 4 13 10 20l59 62c5 6 9 8 14 8s8 -4 7 -10l-23 -137c-1 -6 -6 -10 -12 -10zM167 -191c-68 0 -123 30 -150 75c-4 6 -3 12 2 15l42 36c6 4 11 4 15 -2c25 -30 55 -50 100 -50c75 0 123 42 138 133l11 55h-1
c-29 -41 -72 -66 -137 -66c-93 0 -138 61 -138 153c0 55 16 157 44 216c37 76 97 116 176 116c65 0 102 -29 116 -69h1l9 48c1 6 5 10 11 10h59c6 0 9 -4 8 -10l-79 -449c-28 -152 -100 -211 -227 -211zM218 78c45 0 84 22 109 73c20 40 37 125 37 169c0 60 -28 98 -88 98
c-50 0 -85 -26 -110 -75c-23 -46 -37 -117 -37 -168c0 -61 26 -97 89 -97z" />
    <glyph glyph-name="hcircumflex" unicode="&#x125;" horiz-adv-x="522" 
d="M401 0h-60c-5 0 -9 4 -8 10l50 281c14 81 -12 127 -81 127c-61 0 -116 -49 -129 -121l-51 -287c-1 -6 -4 -10 -10 -10h-61c-5 0 -9 4 -8 10l117 660c1 6 5 10 11 10h60c6 0 9 -4 8 -10l-44 -246h1c30 39 79 66 141 66c101 0 148 -70 129 -180l-54 -300
c-1 -6 -5 -10 -11 -10zM486 754h-38c-8 0 -11 2 -17 10l-48 75h-1l-77 -75c-7 -8 -11 -10 -20 -10h-43c-6 0 -8 5 -3 10l112 124c6 7 11 9 18 9h39c7 0 10 -2 14 -9l69 -124c3 -5 0 -10 -5 -10z" />
    <glyph glyph-name="hbar" unicode="&#x127;" horiz-adv-x="522" 
d="M401 0h-60c-5 0 -9 4 -8 10l50 281c14 81 -12 127 -81 127c-61 0 -116 -49 -129 -121l-51 -287c-1 -6 -4 -10 -10 -10h-61c-5 0 -9 4 -8 10l95 540c1 4 -1 6 -4 6h-22c-6 0 -10 4 -9 10l8 44c1 7 6 10 12 10h21c4 0 6 2 7 6l9 44c1 6 5 10 11 10h60c6 0 9 -4 8 -10
l-8 -44c-1 -4 1 -6 5 -6h116c5 0 8 -4 7 -10l-7 -44c-1 -6 -5 -10 -11 -10h-116c-4 0 -6 -2 -7 -6l-23 -126h1c30 39 79 66 141 66c101 0 148 -70 129 -180l-54 -300c-1 -6 -5 -10 -11 -10z" />
    <glyph glyph-name="dotlessi" unicode="&#x131;" horiz-adv-x="238" 
d="M112 0h-60c-6 0 -10 4 -9 10l81 459c1 6 5 10 11 10h61c6 0 9 -4 8 -10l-82 -459c-1 -6 -4 -10 -10 -10z" />
    <glyph glyph-name="igrave" unicode="&#xec;" horiz-adv-x="238" 
d="M112 0h-60c-6 0 -10 4 -9 10l81 459c1 6 5 10 11 10h61c6 0 9 -4 8 -10l-82 -459c-1 -6 -4 -10 -10 -10zM190 557h-41c-9 0 -11 2 -16 10l-66 123c-3 5 1 10 7 10h58c8 0 11 -3 14 -10l52 -123c2 -6 -2 -10 -8 -10z" />
    <glyph glyph-name="iacute" unicode="&#xed;" horiz-adv-x="238" 
d="M200 557h-42c-6 0 -9 4 -5 10l92 123c5 7 11 10 19 10h62c6 0 8 -6 3 -11l-109 -122c-7 -8 -11 -10 -20 -10zM112 0h-60c-6 0 -10 4 -9 10l81 459c1 6 5 10 11 10h61c6 0 9 -4 8 -10l-82 -459c-1 -6 -4 -10 -10 -10z" />
    <glyph glyph-name="icircumflex" unicode="&#xee;" horiz-adv-x="238" 
d="M302 557h-38c-8 0 -11 2 -16 10l-49 75h-1l-76 -75c-7 -8 -12 -10 -20 -10h-44c-5 0 -7 5 -3 10l112 124c6 7 11 9 18 9h39c7 0 11 -2 14 -9l69 -124c3 -5 1 -10 -5 -10zM112 0h-60c-6 0 -10 4 -9 10l81 459c1 6 5 10 11 10h61c6 0 9 -4 8 -10l-82 -459
c-1 -6 -4 -10 -10 -10z" />
    <glyph glyph-name="itilde" unicode="&#x129;" horiz-adv-x="238" 
d="M112 0h-60c-6 0 -10 4 -9 10l81 459c1 6 5 10 11 10h61c6 0 9 -4 8 -10l-82 -459c-1 -6 -4 -10 -10 -10zM232 580c-25 0 -41 8 -58 20c-16 11 -29 18 -48 18c-24 0 -44 -12 -65 -32c-4 -4 -9 -1 -8 3l7 46c2 8 4 11 11 17c21 20 44 30 69 30s41 -9 58 -21
c16 -10 29 -18 48 -18c24 0 44 13 65 32c4 4 9 2 8 -3l-7 -46c-2 -7 -4 -11 -11 -17c-20 -19 -43 -29 -69 -29z" />
    <glyph glyph-name="idieresis" unicode="&#xef;" horiz-adv-x="238" 
d="M307 591h-56c-6 0 -9 4 -8 10l13 69c1 6 5 10 11 10h55c6 0 9 -4 8 -10l-12 -69c-1 -6 -5 -10 -11 -10zM117 591h-56c-6 0 -9 4 -8 10l13 69c1 6 5 10 11 10h55c6 0 9 -4 8 -10l-12 -69c-1 -6 -5 -10 -11 -10zM112 0h-60c-6 0 -10 4 -9 10l81 459c1 6 5 10 11 10h61
c6 0 9 -4 8 -10l-82 -459c-1 -6 -4 -10 -10 -10z" />
    <glyph glyph-name="imacron" unicode="&#x12b;" horiz-adv-x="238" 
d="M112 0h-60c-6 0 -10 4 -9 10l81 459c1 6 5 10 11 10h61c6 0 9 -4 8 -10l-82 -459c-1 -6 -4 -10 -10 -10zM305 605h-244c-6 0 -9 4 -8 10l7 41c1 6 5 10 11 10h244c6 0 9 -4 8 -10l-7 -41c-1 -6 -5 -10 -11 -10z" />
    <glyph glyph-name="ibreve" unicode="&#x12d;" horiz-adv-x="238" 
d="M112 0h-60c-6 0 -10 4 -9 10l81 459c1 6 5 10 11 10h61c6 0 9 -4 8 -10l-82 -459c-1 -6 -4 -10 -10 -10zM180 563c-73 0 -114 46 -109 111c0 6 4 10 10 10h31c6 0 10 -3 11 -10c3 -35 26 -54 66 -54c41 0 70 19 87 54c3 7 6 10 13 10h32c6 0 9 -4 7 -10
c-19 -65 -75 -111 -148 -111z" />
    <glyph glyph-name="iogonek" unicode="&#x12f;" horiz-adv-x="238" 
d="M218 591h-65c-6 0 -9 4 -8 10l12 69c1 6 5 10 11 10h66c6 0 9 -4 8 -10l-12 -69c-1 -7 -5 -10 -12 -10zM36 -180c-39 0 -67 22 -67 63c0 39 27 78 77 119v1c-3 0 -4 4 -3 7l81 459c1 6 5 10 11 10h61c6 0 9 -4 8 -10l-82 -459c-1 -5 -2 -7 -5 -10
c-65 -50 -80 -75 -80 -97c0 -14 8 -21 22 -21c9 0 17 2 27 8c5 3 10 1 12 -3l10 -34c2 -5 0 -9 -5 -13c-18 -12 -42 -20 -67 -20z" />
    <glyph glyph-name="dotlessj" unicode="&#x237;" horiz-adv-x="238" 
d="M-46 -180h-19c-6 0 -9 4 -8 10l9 53c1 7 6 10 12 10h13c46 0 64 14 73 67l90 509c1 6 5 10 11 10h61c6 0 9 -4 8 -10l-90 -508c-20 -112 -59 -141 -160 -141z" />
    <glyph glyph-name="jcircumflex" unicode="&#x135;" horiz-adv-x="238" 
d="M-46 -180h-19c-6 0 -9 4 -8 10l9 53c1 7 6 10 12 10h13c46 0 64 14 73 67l90 509c1 6 5 10 11 10h61c6 0 9 -4 8 -10l-90 -508c-20 -112 -59 -141 -160 -141zM296 557h-38c-8 0 -11 2 -16 10l-49 75h-1l-76 -75c-7 -8 -12 -10 -20 -10h-44c-5 0 -7 5 -3 10l112 124
c6 7 11 9 18 9h39c7 0 11 -2 14 -9l69 -124c3 -5 1 -10 -5 -10z" />
    <glyph glyph-name="kcommaaccent" unicode="&#x137;" horiz-adv-x="492" 
d="M153 -211c-5 0 -8 4 -7 10l23 136c1 6 6 10 12 10h57c6 0 9 -4 8 -10l-10 -57c-2 -8 -4 -13 -9 -20l-60 -62c-5 -5 -9 -7 -14 -7zM415 0h-63c-7 0 -10 3 -13 10l-94 233l-101 -106l-22 -127c-1 -6 -5 -10 -11 -10h-60c-6 0 -9 4 -8 10l117 660c1 6 5 10 11 10h60
c6 0 9 -4 8 -10l-74 -417l215 217c7 7 11 9 19 9h73c6 0 8 -5 4 -10l-172 -171l119 -288c2 -5 -2 -10 -8 -10z" />
    <glyph glyph-name="kgreenlandic" unicode="&#x138;" horiz-adv-x="492" 
d="M415 0h-63c-7 0 -10 3 -13 10l-94 233l-101 -106l-22 -127c-1 -6 -5 -10 -11 -10h-60c-6 0 -9 4 -8 10l82 459c1 6 5 10 11 10h60c6 0 9 -4 8 -10l-39 -216l215 217c7 7 11 9 19 9h73c6 0 8 -5 4 -10l-172 -171l119 -288c2 -5 -2 -10 -8 -10z" />
    <glyph glyph-name="lacute" unicode="&#x13a;" horiz-adv-x="265" 
d="M239 763h-45c-6 0 -8 5 -4 10l97 105c6 6 12 10 20 10h66c6 0 9 -5 3 -10l-118 -107c-8 -7 -12 -8 -19 -8zM182 -5h-32c-79 0 -103 39 -89 124l100 551c1 6 5 10 11 10h60c6 0 10 -4 9 -10l-101 -550c-6 -38 4 -51 36 -51h18c6 0 9 -4 8 -10l-8 -54c-1 -6 -6 -10 -12 -10
z" />
    <glyph glyph-name="lcaron" unicode="&#x13e;" horiz-adv-x="265" 
d="M277 521c-6 0 -9 4 -8 10l24 139c1 6 5 10 11 10h57c6 0 9 -4 8 -10l-10 -60c-2 -8 -4 -14 -9 -20l-60 -62c-5 -5 -8 -7 -13 -7zM182 -5h-32c-79 0 -103 39 -89 124l100 551c1 6 5 10 11 10h60c6 0 10 -4 9 -10l-101 -550c-6 -38 4 -51 36 -51h18c6 0 9 -4 8 -10l-8 -54
c-1 -6 -6 -10 -12 -10z" />
    <glyph glyph-name="lcommaaccent" unicode="&#x13c;" horiz-adv-x="265" 
d="M47 -211c-5 0 -8 4 -7 10l23 136c1 6 6 10 12 10h57c6 0 9 -4 8 -10l-10 -57c-2 -8 -4 -13 -9 -20l-60 -62c-5 -5 -9 -7 -14 -7zM182 -5h-32c-79 0 -103 39 -89 124l100 551c1 6 5 10 11 10h60c6 0 10 -4 9 -10l-101 -550c-6 -38 4 -51 36 -51h18c6 0 9 -4 8 -10l-8 -54
c-1 -6 -6 -10 -12 -10z" />
    <glyph glyph-name="lslash" unicode="&#x142;" horiz-adv-x="265" 
d="M182 -5h-32c-79 0 -103 39 -89 124l33 183l-36 -17c-7 -3 -11 0 -10 6l8 50c1 6 4 11 12 15l39 19l54 295c1 6 5 10 11 10h60c6 0 10 -4 9 -10l-47 -253l62 30c7 3 11 0 10 -6l-8 -49c-1 -7 -4 -12 -12 -16l-65 -32l-41 -224c-6 -38 4 -51 36 -51h18c6 0 9 -4 8 -10
l-8 -54c-1 -6 -6 -10 -12 -10z" />
    <glyph glyph-name="ldot" unicode="&#x140;" horiz-adv-x="304" 
d="M182 -5h-32c-79 0 -103 39 -89 124l100 551c1 6 5 10 11 10h60c6 0 10 -4 9 -10l-101 -550c-6 -38 4 -51 36 -51h18c6 0 9 -4 8 -10l-8 -54c-1 -6 -6 -10 -12 -10zM304 283h-70c-6 0 -10 4 -9 10l14 82c1 6 5 10 11 10h70c6 0 10 -4 9 -10l-14 -82c-1 -6 -5 -10 -11 -10z
" />
    <glyph glyph-name="nacute" unicode="&#x144;" horiz-adv-x="522" 
d="M314 557h-42c-6 0 -9 4 -5 10l92 123c5 7 11 10 19 10h62c6 0 8 -6 3 -11l-109 -122c-7 -8 -11 -10 -20 -10zM401 0h-60c-5 0 -9 4 -8 10l50 281c14 81 -12 127 -81 127c-61 0 -116 -49 -129 -121l-51 -287c-1 -6 -4 -10 -10 -10h-61c-5 0 -9 4 -8 10l81 459
c1 6 5 10 11 10h61c6 0 9 -4 8 -10l-9 -45h1c30 39 79 66 141 66c101 0 148 -70 129 -180l-54 -300c-1 -6 -5 -10 -11 -10z" />
    <glyph glyph-name="ncaron" unicode="&#x148;" horiz-adv-x="522" 
d="M330 556h-38c-7 0 -11 3 -14 9l-69 124c-3 5 -1 10 5 10h38c8 0 11 -2 16 -9l49 -76h1l76 76c7 7 12 9 20 9h44c5 0 7 -5 3 -10l-112 -124c-6 -7 -11 -9 -19 -9zM401 0h-60c-5 0 -9 4 -8 10l50 281c14 81 -12 127 -81 127c-61 0 -116 -49 -129 -121l-51 -287
c-1 -6 -4 -10 -10 -10h-61c-5 0 -9 4 -8 10l81 459c1 6 5 10 11 10h61c6 0 9 -4 8 -10l-9 -45h1c30 39 79 66 141 66c101 0 148 -70 129 -180l-54 -300c-1 -6 -5 -10 -11 -10z" />
    <glyph glyph-name="ntilde" unicode="&#xf1;" horiz-adv-x="522" 
d="M401 0h-60c-5 0 -9 4 -8 10l50 281c14 81 -12 127 -81 127c-61 0 -116 -49 -129 -121l-51 -287c-1 -6 -4 -10 -10 -10h-61c-5 0 -9 4 -8 10l81 459c1 6 5 10 11 10h61c6 0 9 -4 8 -10l-9 -45h1c30 39 79 66 141 66c101 0 148 -70 129 -180l-54 -300c-1 -6 -5 -10 -11 -10
zM366 580c-25 0 -41 8 -58 20c-16 11 -29 18 -48 18c-24 0 -44 -12 -65 -32c-4 -4 -9 -1 -8 3l7 46c2 8 4 11 11 17c21 20 44 30 69 30s41 -9 58 -21c16 -10 29 -18 48 -18c24 0 44 13 65 32c4 4 9 2 8 -3l-7 -46c-2 -7 -4 -11 -11 -17c-20 -19 -43 -29 -69 -29z" />
    <glyph glyph-name="ncommaaccent" unicode="&#x146;" horiz-adv-x="522" 
d="M171 -211c-5 0 -8 4 -7 10l23 136c1 6 6 10 12 10h57c6 0 9 -4 8 -10l-10 -57c-2 -8 -4 -13 -9 -20l-60 -62c-5 -5 -9 -7 -14 -7zM401 0h-60c-5 0 -9 4 -8 10l50 281c14 81 -12 127 -81 127c-61 0 -116 -49 -129 -121l-51 -287c-1 -6 -4 -10 -10 -10h-61c-5 0 -9 4 -8 10
l81 459c1 6 5 10 11 10h61c6 0 9 -4 8 -10l-9 -45h1c30 39 79 66 141 66c101 0 148 -70 129 -180l-54 -300c-1 -6 -5 -10 -11 -10z" />
    <glyph glyph-name="eng" unicode="&#x14b;" horiz-adv-x="522" 
d="M243 -180h-18c-5 0 -9 4 -8 10l9 53c1 7 6 10 11 10h15c45 0 63 14 73 66l58 332c15 80 -12 127 -81 127c-62 0 -116 -50 -129 -121l-51 -287c-1 -6 -4 -10 -10 -10h-60c-6 0 -10 4 -9 10l81 459c1 6 5 10 11 10h61c6 0 9 -4 8 -10l-9 -45h1c29 38 78 66 141 66
c100 0 148 -70 129 -180l-62 -350c-18 -101 -68 -140 -161 -140z" />
    <glyph glyph-name="ograve" unicode="&#xf2;" horiz-adv-x="494" 
d="M209 -11c-104 0 -163 62 -163 165c0 64 21 164 46 214c42 85 111 122 203 122c103 0 163 -62 163 -164c0 -65 -22 -164 -47 -215c-41 -85 -111 -122 -202 -122zM220 62c53 0 93 27 119 78c18 38 37 127 37 173c0 66 -26 105 -93 105c-53 0 -92 -27 -118 -79
c-19 -37 -38 -127 -38 -172c0 -67 27 -105 93 -105zM319 557h-41c-9 0 -11 2 -16 10l-66 123c-3 5 1 10 7 10h58c8 0 11 -3 14 -10l52 -123c2 -6 -2 -10 -8 -10z" />
    <glyph glyph-name="oacute" unicode="&#xf3;" horiz-adv-x="494" 
d="M315 557h-42c-6 0 -9 4 -5 10l92 123c5 7 11 10 19 10h62c6 0 8 -6 3 -11l-109 -122c-7 -8 -11 -10 -20 -10zM209 -11c-104 0 -163 62 -163 165c0 64 21 164 46 214c42 85 111 122 203 122c103 0 163 -62 163 -164c0 -65 -22 -164 -47 -215c-41 -85 -111 -122 -202 -122z
M220 62c53 0 93 27 119 78c18 38 37 127 37 173c0 66 -26 105 -93 105c-53 0 -92 -27 -118 -79c-19 -37 -38 -127 -38 -172c0 -67 27 -105 93 -105z" />
    <glyph glyph-name="ocircumflex" unicode="&#xf4;" horiz-adv-x="494" 
d="M426 557h-38c-8 0 -11 2 -16 10l-49 75h-1l-76 -75c-7 -8 -12 -10 -20 -10h-44c-5 0 -7 5 -3 10l112 124c6 7 11 9 18 9h39c7 0 11 -2 14 -9l69 -124c3 -5 1 -10 -5 -10zM209 -11c-104 0 -163 62 -163 165c0 64 21 164 46 214c42 85 111 122 203 122
c103 0 163 -62 163 -164c0 -65 -22 -164 -47 -215c-41 -85 -111 -122 -202 -122zM220 62c53 0 93 27 119 78c18 38 37 127 37 173c0 66 -26 105 -93 105c-53 0 -92 -27 -118 -79c-19 -37 -38 -127 -38 -172c0 -67 27 -105 93 -105z" />
    <glyph glyph-name="otilde" unicode="&#xf5;" horiz-adv-x="494" 
d="M209 -11c-104 0 -163 62 -163 165c0 64 21 164 46 214c42 85 111 122 203 122c103 0 163 -62 163 -164c0 -65 -22 -164 -47 -215c-41 -85 -111 -122 -202 -122zM220 62c53 0 93 27 119 78c18 38 37 127 37 173c0 66 -26 105 -93 105c-53 0 -92 -27 -118 -79
c-19 -37 -38 -127 -38 -172c0 -67 27 -105 93 -105zM367 580c-25 0 -41 8 -58 20c-16 11 -29 18 -48 18c-24 0 -44 -12 -65 -32c-4 -4 -9 -1 -8 3l7 46c2 8 4 11 11 17c21 20 44 30 69 30s41 -9 58 -21c16 -10 29 -18 48 -18c24 0 44 13 65 32c4 4 9 2 8 -3l-7 -46
c-2 -7 -4 -11 -11 -17c-20 -19 -43 -29 -69 -29z" />
    <glyph glyph-name="odieresis" unicode="&#xf6;" horiz-adv-x="494" 
d="M433 591h-56c-6 0 -9 4 -8 10l13 69c1 6 5 10 11 10h55c6 0 9 -4 8 -10l-12 -69c-1 -6 -5 -10 -11 -10zM243 591h-56c-6 0 -9 4 -8 10l13 69c1 6 5 10 11 10h55c6 0 9 -4 8 -10l-12 -69c-1 -6 -5 -10 -11 -10zM209 -11c-104 0 -163 62 -163 165c0 64 21 164 46 214
c42 85 111 122 203 122c103 0 163 -62 163 -164c0 -65 -22 -164 -47 -215c-41 -85 -111 -122 -202 -122zM220 62c53 0 93 27 119 78c18 38 37 127 37 173c0 66 -26 105 -93 105c-53 0 -92 -27 -118 -79c-19 -37 -38 -127 -38 -172c0 -67 27 -105 93 -105z" />
    <glyph glyph-name="omacron" unicode="&#x14d;" horiz-adv-x="494" 
d="M437 605h-244c-6 0 -9 4 -8 10l7 41c1 6 5 10 11 10h244c6 0 9 -4 8 -10l-7 -41c-1 -6 -5 -10 -11 -10zM209 -11c-104 0 -163 62 -163 165c0 64 21 164 46 214c42 85 111 122 203 122c103 0 163 -62 163 -164c0 -65 -22 -164 -47 -215c-41 -85 -111 -122 -202 -122z
M220 62c53 0 93 27 119 78c18 38 37 127 37 173c0 66 -26 105 -93 105c-53 0 -92 -27 -118 -79c-19 -37 -38 -127 -38 -172c0 -67 27 -105 93 -105z" />
    <glyph glyph-name="obreve" unicode="&#x14f;" horiz-adv-x="494" 
d="M209 -11c-104 0 -163 62 -163 165c0 64 21 164 46 214c42 85 111 122 203 122c103 0 163 -62 163 -164c0 -65 -22 -164 -47 -215c-41 -85 -111 -122 -202 -122zM220 62c53 0 93 27 119 78c18 38 37 127 37 173c0 66 -26 105 -93 105c-53 0 -92 -27 -118 -79
c-19 -37 -38 -127 -38 -172c0 -67 27 -105 93 -105zM314 563c-73 0 -114 46 -109 111c0 6 4 10 10 10h31c6 0 10 -3 11 -10c3 -35 26 -54 66 -54c41 0 70 19 87 54c3 7 6 10 13 10h32c6 0 9 -4 7 -10c-19 -65 -75 -111 -148 -111z" />
    <glyph glyph-name="ohungarumlaut" unicode="&#x151;" horiz-adv-x="494" 
d="M388 557h-40c-6 0 -9 4 -5 10l85 123c5 6 10 10 18 10h51c6 0 8 -5 4 -10l-96 -124c-5 -6 -10 -9 -17 -9zM253 557h-40c-6 0 -9 4 -5 10l86 123c4 6 9 10 17 10h51c6 0 8 -5 4 -10l-96 -124c-5 -6 -10 -9 -17 -9zM209 -11c-104 0 -163 62 -163 165c0 64 21 164 46 214
c42 85 111 122 203 122c103 0 163 -62 163 -164c0 -65 -22 -164 -47 -215c-41 -85 -111 -122 -202 -122zM220 62c53 0 93 27 119 78c18 38 37 127 37 173c0 66 -26 105 -93 105c-53 0 -92 -27 -118 -79c-19 -37 -38 -127 -38 -172c0 -67 27 -105 93 -105z" />
    <glyph glyph-name="oslash" unicode="&#xf8;" horiz-adv-x="494" 
d="M42 -30h-26c-6 0 -7 5 -3 10l59 72c-17 27 -26 61 -26 102c0 64 21 164 46 214c42 85 111 122 203 122c46 0 84 -13 111 -36l37 45c6 7 11 10 18 10h26c6 0 7 -5 3 -10l-59 -73c17 -26 27 -60 27 -100c0 -65 -22 -164 -47 -215c-41 -85 -111 -122 -202 -122
c-47 0 -85 13 -112 36l-37 -45c-6 -7 -11 -10 -18 -10zM126 167c0 -17 2 -32 5 -45l222 270c-15 17 -38 26 -70 26c-53 0 -94 -27 -120 -79c-18 -37 -37 -127 -37 -172zM220 61c53 0 94 28 120 79c18 38 37 127 37 173c0 16 -2 31 -5 44l-223 -270c16 -17 39 -26 71 -26z
" />
    <glyph glyph-name="oe" unicode="&#x153;" horiz-adv-x="801" 
d="M528 -11c-78 0 -126 29 -146 88h-2c-42 -60 -100 -88 -171 -88c-104 0 -163 62 -163 165c0 64 21 164 46 214c42 85 111 122 203 122c69 0 118 -27 140 -86h2c41 60 104 86 169 86c91 0 159 -56 159 -163c0 -25 -2 -52 -11 -101c-1 -6 -6 -10 -12 -10h-292
c-4 0 -7 -2 -8 -6c-3 -16 -3 -27 -3 -41c0 -73 34 -107 101 -107c53 0 99 25 131 57c5 5 10 4 14 1l31 -35c4 -4 4 -10 -1 -15c-44 -46 -109 -81 -187 -81zM461 279h216c4 0 7 2 8 6c2 14 4 29 4 40c0 64 -34 95 -93 95c-53 0 -96 -26 -120 -76c-8 -16 -16 -39 -20 -59
c-1 -4 1 -6 5 -6zM220 62c53 0 93 27 119 78c18 38 37 127 37 173c0 66 -26 105 -93 105c-53 0 -92 -27 -118 -79c-19 -37 -38 -127 -38 -172c0 -67 27 -105 93 -105z" />
    <glyph glyph-name="racute" unicode="&#x155;" horiz-adv-x="394" 
d="M264 557h-42c-6 0 -9 4 -5 10l92 123c5 7 11 10 19 10h62c6 0 8 -6 3 -11l-109 -122c-7 -8 -11 -10 -20 -10zM112 0h-60c-6 0 -10 4 -9 10l81 459c1 6 5 10 11 10h61c6 0 9 -4 8 -10l-10 -51h1c27 43 74 72 132 72c38 0 70 -14 89 -36c3 -4 4 -9 0 -14l-41 -44
c-4 -5 -9 -5 -14 -2c-18 14 -39 24 -67 24c-70 0 -110 -62 -125 -145l-47 -263c-1 -6 -4 -10 -10 -10z" />
    <glyph glyph-name="rcaron" unicode="&#x159;" horiz-adv-x="394" 
d="M300 556h-38c-7 0 -11 3 -14 9l-69 124c-3 5 -1 10 5 10h38c8 0 11 -2 16 -9l49 -76h1l76 76c7 7 12 9 20 9h44c5 0 7 -5 3 -10l-112 -124c-6 -7 -11 -9 -19 -9zM112 0h-60c-6 0 -10 4 -9 10l81 459c1 6 5 10 11 10h61c6 0 9 -4 8 -10l-10 -51h1c27 43 74 72 132 72
c38 0 70 -14 89 -36c3 -4 4 -9 0 -14l-41 -44c-4 -5 -9 -5 -14 -2c-18 14 -39 24 -67 24c-70 0 -110 -62 -125 -145l-47 -263c-1 -6 -4 -10 -10 -10z" />
    <glyph glyph-name="rcommaaccent" unicode="&#x157;" horiz-adv-x="394" 
d="M15 -211c-5 0 -8 4 -7 10l23 136c1 6 6 10 12 10h57c6 0 9 -4 8 -10l-10 -57c-2 -8 -4 -13 -9 -20l-60 -62c-5 -5 -9 -7 -14 -7zM112 0h-60c-6 0 -10 4 -9 10l81 459c1 6 5 10 11 10h61c6 0 9 -4 8 -10l-10 -51h1c27 43 74 72 132 72c38 0 70 -14 89 -36c3 -4 4 -9 0 -14
l-41 -44c-4 -5 -9 -5 -14 -2c-18 14 -39 24 -67 24c-70 0 -110 -62 -125 -145l-47 -263c-1 -6 -4 -10 -10 -10z" />
    <glyph glyph-name="sacute" unicode="&#x15b;" horiz-adv-x="470" 
d="M298 557h-42c-6 0 -9 4 -5 10l92 123c5 7 11 10 19 10h62c6 0 8 -6 3 -11l-109 -122c-7 -8 -11 -10 -20 -10zM202 -11c-88 0 -150 38 -181 71c-3 4 -2 10 2 14l43 41c5 4 10 3 13 0c31 -31 77 -54 133 -54c76 0 122 43 122 91c0 33 -20 50 -75 55l-48 5
c-84 9 -122 50 -122 113c0 104 83 165 196 165c62 0 123 -25 155 -53c4 -3 4 -9 1 -13l-38 -39c-4 -5 -9 -6 -14 -2c-27 18 -68 37 -116 37c-64 0 -105 -37 -105 -82c0 -31 18 -48 77 -54l47 -5c84 -8 121 -49 121 -110c0 -109 -80 -180 -211 -180z" />
    <glyph glyph-name="scircumflex" unicode="&#x15d;" horiz-adv-x="470" 
d="M412 557h-38c-8 0 -11 2 -16 10l-49 75h-1l-76 -75c-7 -8 -12 -10 -20 -10h-44c-5 0 -7 5 -3 10l112 124c6 7 11 9 18 9h39c7 0 11 -2 14 -9l69 -124c3 -5 1 -10 -5 -10zM202 -11c-88 0 -150 38 -181 71c-3 4 -2 10 2 14l43 41c5 4 10 3 13 0c31 -31 77 -54 133 -54
c76 0 122 43 122 91c0 33 -20 50 -75 55l-48 5c-84 9 -122 50 -122 113c0 104 83 165 196 165c62 0 123 -25 155 -53c4 -3 4 -9 1 -13l-38 -39c-4 -5 -9 -6 -14 -2c-27 18 -68 37 -116 37c-64 0 -105 -37 -105 -82c0 -31 18 -48 77 -54l47 -5c84 -8 121 -49 121 -110
c0 -109 -80 -180 -211 -180z" />
    <glyph glyph-name="scaron" unicode="&#x161;" horiz-adv-x="470" 
d="M317 556h-38c-7 0 -11 3 -14 9l-69 124c-3 5 -1 10 5 10h38c8 0 11 -2 16 -9l49 -76h1l76 76c7 7 12 9 20 9h44c5 0 7 -5 3 -10l-112 -124c-6 -7 -11 -9 -19 -9zM202 -11c-88 0 -150 38 -181 71c-3 4 -2 10 2 14l43 41c5 4 10 3 13 0c31 -31 77 -54 133 -54
c76 0 122 43 122 91c0 33 -20 50 -75 55l-48 5c-84 9 -122 50 -122 113c0 104 83 165 196 165c62 0 123 -25 155 -53c4 -3 4 -9 1 -13l-38 -39c-4 -5 -9 -6 -14 -2c-27 18 -68 37 -116 37c-64 0 -105 -37 -105 -82c0 -31 18 -48 77 -54l47 -5c84 -8 121 -49 121 -110
c0 -109 -80 -180 -211 -180z" />
    <glyph glyph-name="scedilla" unicode="&#x15f;" horiz-adv-x="470" 
d="M159 -151h-51c-6 0 -8 4 -5 10l74 131c-75 6 -128 40 -156 70c-3 4 -2 10 2 14l43 41c5 4 10 3 13 0c31 -31 77 -54 133 -54c76 0 122 43 122 91c0 33 -20 50 -75 55l-48 5c-84 9 -122 50 -122 113c0 104 83 165 196 165c62 0 123 -25 155 -53c4 -3 4 -9 1 -13l-38 -39
c-4 -5 -9 -6 -14 -2c-27 18 -68 37 -116 37c-64 0 -105 -37 -105 -82c0 -31 18 -48 77 -54l47 -5c84 -8 121 -49 121 -110c0 -98 -65 -165 -172 -177l-65 -133c-4 -8 -9 -10 -17 -10z" />
    <glyph glyph-name="scommaaccent" unicode="&#x219;" horiz-adv-x="470" 
d="M133 -211c-5 0 -8 4 -7 10l23 136c1 6 6 10 12 10h57c6 0 9 -4 8 -10l-10 -57c-2 -8 -4 -13 -9 -20l-60 -62c-5 -5 -9 -7 -14 -7zM202 -11c-88 0 -150 38 -181 71c-3 4 -2 10 2 14l43 41c5 4 10 3 13 0c31 -31 77 -54 133 -54c76 0 122 43 122 91c0 33 -20 50 -75 55
l-48 5c-84 9 -122 50 -122 113c0 104 83 165 196 165c62 0 123 -25 155 -53c4 -3 4 -9 1 -13l-38 -39c-4 -5 -9 -6 -14 -2c-27 18 -68 37 -116 37c-64 0 -105 -37 -105 -82c0 -31 18 -48 77 -54l47 -5c84 -8 121 -49 121 -110c0 -109 -80 -180 -211 -180z" />
    <glyph glyph-name="germandbls" unicode="&#xdf;" horiz-adv-x="535" 
d="M254 -4h-21c-6 0 -9 4 -8 10l9 53c1 6 6 10 12 10h18c48 0 79 13 99 53c14 29 36 161 36 191c0 49 -27 70 -86 70h-11c-6 0 -9 4 -8 10l9 54c1 6 6 10 12 10h19c65 0 101 39 101 98c0 42 -30 63 -90 63c-81 0 -121 -36 -137 -123l-86 -485c-1 -6 -5 -10 -10 -10h-60
c-6 0 -10 4 -9 10l85 483c22 125 89 198 227 198c106 0 161 -47 161 -122c0 -66 -26 -119 -86 -145v-2c33 -17 49 -46 49 -90c0 -55 -23 -193 -48 -245c-34 -68 -91 -91 -177 -91z" />
    <glyph glyph-name="tcaron" unicode="&#x165;" horiz-adv-x="302" 
d="M333 521c-6 0 -9 4 -8 10l24 139c1 6 5 10 11 10h57c6 0 9 -4 8 -10l-10 -60c-2 -8 -4 -14 -9 -20l-60 -62c-5 -5 -8 -7 -13 -7zM210 -5h-36c-89 0 -117 41 -100 135l52 279c1 4 -1 6 -5 6h-40c-6 0 -9 4 -8 10l8 44c1 7 5 10 11 10h41c4 0 6 2 7 6l24 135
c1 6 5 10 11 10h60c6 0 9 -4 8 -10l-24 -135c-1 -4 1 -6 4 -6h75c6 0 9 -4 8 -10l-8 -44c-1 -6 -5 -10 -11 -10h-75c-3 0 -5 -2 -6 -6l-52 -275c-9 -52 3 -65 48 -65h20c6 0 9 -4 8 -10l-9 -54c-1 -6 -5 -10 -11 -10z" />
    <glyph glyph-name="uni0163" unicode="&#x163;" horiz-adv-x="302" 
d="M69 -211c-5 0 -8 4 -7 10l23 136c1 6 6 10 12 10h57c6 0 9 -4 8 -10l-10 -57c-2 -8 -4 -13 -9 -20l-60 -62c-5 -5 -9 -7 -14 -7zM210 -5h-36c-89 0 -117 41 -100 135l52 279c1 4 -1 6 -5 6h-40c-6 0 -9 4 -8 10l8 44c1 7 5 10 11 10h41c4 0 6 2 7 6l24 135
c1 6 5 10 11 10h60c6 0 9 -4 8 -10l-24 -135c-1 -4 1 -6 4 -6h75c6 0 9 -4 8 -10l-8 -44c-1 -6 -5 -10 -11 -10h-75c-3 0 -5 -2 -6 -6l-52 -275c-9 -52 3 -65 48 -65h20c6 0 9 -4 8 -10l-9 -54c-1 -6 -5 -10 -11 -10z" />
    <glyph glyph-name="uni021B" unicode="&#x21b;" horiz-adv-x="302" 
d="M69 -211c-5 0 -8 4 -7 10l23 136c1 6 6 10 12 10h57c6 0 9 -4 8 -10l-10 -57c-2 -8 -4 -13 -9 -20l-60 -62c-5 -5 -9 -7 -14 -7zM210 -5h-36c-89 0 -117 41 -100 135l52 279c1 4 -1 6 -5 6h-40c-6 0 -9 4 -8 10l8 44c1 7 5 10 11 10h41c4 0 6 2 7 6l24 135
c1 6 5 10 11 10h60c6 0 9 -4 8 -10l-24 -135c-1 -4 1 -6 4 -6h75c6 0 9 -4 8 -10l-8 -44c-1 -6 -5 -10 -11 -10h-75c-3 0 -5 -2 -6 -6l-52 -275c-9 -52 3 -65 48 -65h20c6 0 9 -4 8 -10l-9 -54c-1 -6 -5 -10 -11 -10z" />
    <glyph glyph-name="tbar" unicode="&#x167;" horiz-adv-x="302" 
d="M210 -5h-36c-89 0 -117 41 -100 135l28 143c1 4 -1 6 -5 6h-30c-6 0 -9 4 -8 10l7 41c1 6 6 9 12 9h30c4 0 6 2 7 6l11 64c1 4 -1 6 -5 6h-40c-6 0 -9 4 -8 10l8 44c1 7 5 10 11 10h41c4 0 6 2 7 6l24 135c1 6 5 10 11 10h60c6 0 9 -4 8 -10l-24 -135c-1 -4 1 -6 4 -6h75
c6 0 9 -4 8 -10l-8 -44c-1 -6 -5 -10 -11 -10h-75c-3 0 -5 -2 -6 -6l-12 -64c-1 -4 0 -6 4 -6h65c6 0 8 -4 7 -10l-7 -41c-1 -6 -5 -9 -11 -9h-64c-4 0 -6 -2 -7 -6l-27 -139c-9 -52 3 -65 48 -65h20c6 0 9 -4 8 -10l-9 -54c-1 -6 -5 -10 -11 -10z" />
    <glyph glyph-name="thorn" unicode="&#xfe;" horiz-adv-x="516" 
d="M254 -11c-68 0 -106 32 -122 70h-1l-40 -229c-1 -6 -4 -10 -10 -10h-61c-6 0 -9 4 -8 10l148 840c1 6 5 10 11 10h60c6 0 9 -4 8 -10l-43 -247h1c29 38 74 67 143 67c90 0 140 -61 140 -157c0 -70 -22 -178 -49 -233c-38 -77 -97 -111 -177 -111zM245 62
c52 0 91 27 115 76c22 43 38 131 38 180c0 61 -24 100 -90 100c-50 0 -91 -25 -118 -79c-16 -32 -36 -131 -36 -179c0 -60 29 -98 91 -98z" />
    <glyph glyph-name="ugrave" unicode="&#xf9;" horiz-adv-x="518" 
d="M129 479h60c6 0 9 -4 8 -10l-50 -280c-14 -81 11 -126 80 -126c60 0 114 47 127 120l50 286c1 6 5 10 11 10h61c5 0 9 -4 8 -10l-81 -459c-1 -6 -5 -10 -11 -10h-61c-5 0 -9 4 -8 10l8 45h-1c-32 -39 -78 -66 -138 -66c-100 0 -147 71 -127 181l54 299c1 6 5 10 10 10z
M341 557h-41c-9 0 -11 2 -16 10l-66 123c-3 5 1 10 7 10h58c8 0 11 -3 14 -10l52 -123c2 -6 -2 -10 -8 -10z" />
    <glyph glyph-name="uacute" unicode="&#xfa;" horiz-adv-x="518" 
d="M320 557h-42c-6 0 -9 4 -5 10l92 123c5 7 11 10 19 10h62c6 0 8 -6 3 -11l-109 -122c-7 -8 -11 -10 -20 -10zM129 479h60c6 0 9 -4 8 -10l-50 -280c-14 -81 11 -126 80 -126c60 0 114 47 127 120l50 286c1 6 5 10 11 10h61c5 0 9 -4 8 -10l-81 -459c-1 -6 -5 -10 -11 -10
h-61c-5 0 -9 4 -8 10l8 45h-1c-32 -39 -78 -66 -138 -66c-100 0 -147 71 -127 181l54 299c1 6 5 10 10 10z" />
    <glyph glyph-name="ucircumflex" unicode="&#xfb;" horiz-adv-x="518" 
d="M436 557h-38c-8 0 -11 2 -16 10l-49 75h-1l-76 -75c-7 -8 -12 -10 -20 -10h-44c-5 0 -7 5 -3 10l112 124c6 7 11 9 18 9h39c7 0 11 -2 14 -9l69 -124c3 -5 1 -10 -5 -10zM129 479h60c6 0 9 -4 8 -10l-50 -280c-14 -81 11 -126 80 -126c60 0 114 47 127 120l50 286
c1 6 5 10 11 10h61c5 0 9 -4 8 -10l-81 -459c-1 -6 -5 -10 -11 -10h-61c-5 0 -9 4 -8 10l8 45h-1c-32 -39 -78 -66 -138 -66c-100 0 -147 71 -127 181l54 299c1 6 5 10 10 10z" />
    <glyph glyph-name="utilde" unicode="&#x169;" horiz-adv-x="518" 
d="M129 479h60c6 0 9 -4 8 -10l-50 -280c-14 -81 11 -126 80 -126c60 0 114 47 127 120l50 286c1 6 5 10 11 10h61c5 0 9 -4 8 -10l-81 -459c-1 -6 -5 -10 -11 -10h-61c-5 0 -9 4 -8 10l8 45h-1c-32 -39 -78 -66 -138 -66c-100 0 -147 71 -127 181l54 299c1 6 5 10 10 10z
M374 580c-25 0 -41 8 -58 20c-16 11 -29 18 -48 18c-24 0 -44 -12 -65 -32c-4 -4 -9 -1 -8 3l7 46c2 8 4 11 11 17c21 20 44 30 69 30s41 -9 58 -21c16 -10 29 -18 48 -18c24 0 44 13 65 32c4 4 9 2 8 -3l-7 -46c-2 -7 -4 -11 -11 -17c-20 -19 -43 -29 -69 -29z" />
    <glyph glyph-name="udieresis" unicode="&#xfc;" horiz-adv-x="518" 
d="M440 591h-56c-6 0 -9 4 -8 10l13 69c1 6 5 10 11 10h55c6 0 9 -4 8 -10l-12 -69c-1 -6 -5 -10 -11 -10zM250 591h-56c-6 0 -9 4 -8 10l13 69c1 6 5 10 11 10h55c6 0 9 -4 8 -10l-12 -69c-1 -6 -5 -10 -11 -10zM129 479h60c6 0 9 -4 8 -10l-50 -280
c-14 -81 11 -126 80 -126c60 0 114 47 127 120l50 286c1 6 5 10 11 10h61c5 0 9 -4 8 -10l-81 -459c-1 -6 -5 -10 -11 -10h-61c-5 0 -9 4 -8 10l8 45h-1c-32 -39 -78 -66 -138 -66c-100 0 -147 71 -127 181l54 299c1 6 5 10 10 10z" />
    <glyph glyph-name="umacron" unicode="&#x16b;" horiz-adv-x="518" 
d="M129 479h60c6 0 9 -4 8 -10l-50 -280c-14 -81 11 -126 80 -126c60 0 114 47 127 120l50 286c1 6 5 10 11 10h61c5 0 9 -4 8 -10l-81 -459c-1 -6 -5 -10 -11 -10h-61c-5 0 -9 4 -8 10l8 45h-1c-32 -39 -78 -66 -138 -66c-100 0 -147 71 -127 181l54 299c1 6 5 10 10 10z
M442 605h-244c-6 0 -9 4 -8 10l7 41c1 6 5 10 11 10h244c6 0 9 -4 8 -10l-7 -41c-1 -6 -5 -10 -11 -10z" />
    <glyph glyph-name="ubreve" unicode="&#x16d;" horiz-adv-x="518" 
d="M129 479h60c6 0 9 -4 8 -10l-50 -280c-14 -81 11 -126 80 -126c60 0 114 47 127 120l50 286c1 6 5 10 11 10h61c5 0 9 -4 8 -10l-81 -459c-1 -6 -5 -10 -11 -10h-61c-5 0 -9 4 -8 10l8 45h-1c-32 -39 -78 -66 -138 -66c-100 0 -147 71 -127 181l54 299c1 6 5 10 10 10z
M314 563c-73 0 -114 46 -109 111c0 6 4 10 10 10h31c6 0 10 -3 11 -10c3 -35 26 -54 66 -54c41 0 70 19 87 54c3 7 6 10 13 10h32c6 0 9 -4 7 -10c-19 -65 -75 -111 -148 -111z" />
    <glyph glyph-name="uring" unicode="&#x16f;" horiz-adv-x="518" 
d="M314 536c-45 0 -75 31 -75 76c0 59 43 110 107 110c45 0 76 -31 76 -76c0 -59 -44 -110 -108 -110zM321 575c33 0 60 27 60 65c0 25 -15 43 -42 43c-32 0 -60 -27 -60 -65c0 -25 16 -43 42 -43zM129 479h60c6 0 9 -4 8 -10l-50 -280c-14 -81 11 -126 80 -126
c60 0 114 47 127 120l50 286c1 6 5 10 11 10h61c5 0 9 -4 8 -10l-81 -459c-1 -6 -5 -10 -11 -10h-61c-5 0 -9 4 -8 10l8 45h-1c-32 -39 -78 -66 -138 -66c-100 0 -147 71 -127 181l54 299c1 6 5 10 10 10z" />
    <glyph glyph-name="uhungarumlaut" unicode="&#x171;" horiz-adv-x="518" 
d="M129 479h60c6 0 9 -4 8 -10l-50 -280c-14 -81 11 -126 80 -126c60 0 114 47 127 120l50 286c1 6 5 10 11 10h61c5 0 9 -4 8 -10l-81 -459c-1 -6 -5 -10 -11 -10h-61c-5 0 -9 4 -8 10l8 45h-1c-32 -39 -78 -66 -138 -66c-100 0 -147 71 -127 181l54 299c1 6 5 10 10 10z
M404 557h-40c-6 0 -9 4 -5 10l85 123c5 6 10 10 18 10h51c6 0 8 -5 4 -10l-96 -124c-5 -6 -10 -9 -17 -9zM269 557h-40c-6 0 -9 4 -5 10l86 123c4 6 9 10 17 10h51c6 0 8 -5 4 -10l-96 -124c-5 -6 -10 -9 -17 -9z" />
    <glyph glyph-name="uogonek" unicode="&#x173;" horiz-adv-x="518" 
d="M299 -180c-39 0 -68 22 -68 63c0 47 35 80 93 120c-1 1 -2 3 -1 7l8 45h-1c-32 -39 -78 -66 -138 -66c-100 0 -147 71 -127 181l54 299c1 6 5 10 10 10h60c6 0 9 -4 8 -10l-50 -280c-14 -81 11 -126 80 -126c60 0 114 47 127 120l50 286c1 6 5 10 11 10h61
c5 0 9 -4 8 -10l-81 -459c-1 -6 -3 -8 -7 -10c-74 -46 -97 -72 -97 -97c0 -14 8 -21 22 -21c10 0 17 2 27 8c6 3 10 1 12 -3l11 -34c2 -5 0 -9 -6 -13c-18 -12 -42 -20 -66 -20z" />
    <glyph glyph-name="wcircumflex" unicode="&#x175;" horiz-adv-x="715" 
d="M543 557h-38c-8 0 -11 2 -16 10l-49 75h-1l-76 -75c-7 -8 -12 -10 -20 -10h-44c-5 0 -7 5 -3 10l112 124c6 7 11 9 18 9h39c7 0 11 -2 14 -9l69 -124c3 -5 1 -10 -5 -10zM490 0h-53c-6 0 -9 4 -10 10l-41 352h-2l-170 -352c-3 -6 -7 -10 -13 -10h-53c-6 0 -9 4 -10 10
l-63 459c-1 6 1 10 8 10h58c7 0 11 -2 12 -10l40 -354h1l168 354c3 7 7 10 13 10h50c6 0 10 -3 11 -10l44 -354h1l164 354c3 8 6 10 13 10h65c6 0 8 -4 5 -10l-225 -459c-3 -7 -7 -10 -13 -10z" />
    <glyph glyph-name="wacute" unicode="&#x1e83;" horiz-adv-x="715" 
d="M439 557h-42c-6 0 -9 4 -5 10l92 123c5 7 11 10 19 10h62c6 0 8 -6 3 -11l-109 -122c-7 -8 -11 -10 -20 -10zM490 0h-53c-6 0 -9 4 -10 10l-41 352h-2l-170 -352c-3 -6 -7 -10 -13 -10h-53c-6 0 -9 4 -10 10l-63 459c-1 6 1 10 8 10h58c7 0 11 -2 12 -10l40 -354h1
l168 354c3 7 7 10 13 10h50c6 0 10 -3 11 -10l44 -354h1l164 354c3 8 6 10 13 10h65c6 0 8 -4 5 -10l-225 -459c-3 -7 -7 -10 -13 -10z" />
    <glyph glyph-name="wdieresis" unicode="&#x1e85;" horiz-adv-x="715" 
d="M549 591h-56c-6 0 -9 4 -8 10l13 69c1 6 5 10 11 10h55c6 0 9 -4 8 -10l-12 -69c-1 -6 -5 -10 -11 -10zM359 591h-56c-6 0 -9 4 -8 10l13 69c1 6 5 10 11 10h55c6 0 9 -4 8 -10l-12 -69c-1 -6 -5 -10 -11 -10zM490 0h-53c-6 0 -9 4 -10 10l-41 352h-2l-170 -352
c-3 -6 -7 -10 -13 -10h-53c-6 0 -9 4 -10 10l-63 459c-1 6 1 10 8 10h58c7 0 11 -2 12 -10l40 -354h1l168 354c3 7 7 10 13 10h50c6 0 10 -3 11 -10l44 -354h1l164 354c3 8 6 10 13 10h65c6 0 8 -4 5 -10l-225 -459c-3 -7 -7 -10 -13 -10z" />
    <glyph glyph-name="wgrave" unicode="&#x1e81;" horiz-adv-x="715" 
d="M490 0h-53c-6 0 -9 4 -10 10l-41 352h-2l-170 -352c-3 -6 -7 -10 -13 -10h-53c-6 0 -9 4 -10 10l-63 459c-1 6 1 10 8 10h58c7 0 11 -2 12 -10l40 -354h1l168 354c3 7 7 10 13 10h50c6 0 10 -3 11 -10l44 -354h1l164 354c3 8 6 10 13 10h65c6 0 8 -4 5 -10l-225 -459
c-3 -7 -7 -10 -13 -10zM422 557h-41c-9 0 -11 2 -16 10l-66 123c-3 5 1 10 7 10h58c8 0 11 -3 14 -10l52 -123c2 -6 -2 -10 -8 -10z" />
    <glyph glyph-name="yacute" unicode="&#xfd;" horiz-adv-x="460" 
d="M38 -180h-25c-6 0 -10 4 -8 10l9 53c1 7 6 10 12 10h17c38 0 61 18 92 76l23 45l-88 455c-1 6 1 10 8 10h63c7 0 10 -2 11 -10l59 -350h2l182 350c3 8 7 10 13 10h64c7 0 10 -4 7 -10l-273 -508c-60 -111 -101 -141 -168 -141zM295 557h-42c-6 0 -9 4 -5 10l92 123
c5 7 11 10 19 10h62c6 0 8 -6 3 -11l-109 -122c-7 -8 -11 -10 -20 -10z" />
    <glyph glyph-name="ycircumflex" unicode="&#x177;" horiz-adv-x="460" 
d="M38 -180h-25c-6 0 -10 4 -8 10l9 53c1 7 6 10 12 10h17c38 0 61 18 92 76l23 45l-88 455c-1 6 1 10 8 10h63c7 0 10 -2 11 -10l59 -350h2l182 350c3 8 7 10 13 10h64c7 0 10 -4 7 -10l-273 -508c-60 -111 -101 -141 -168 -141zM413 557h-38c-8 0 -11 2 -16 10l-49 75h-1
l-76 -75c-7 -8 -12 -10 -20 -10h-44c-5 0 -7 5 -3 10l112 124c6 7 11 9 18 9h39c7 0 11 -2 14 -9l69 -124c3 -5 1 -10 -5 -10z" />
    <glyph glyph-name="ydieresis" unicode="&#xff;" horiz-adv-x="460" 
d="M38 -180h-25c-6 0 -10 4 -8 10l9 53c1 7 6 10 12 10h17c38 0 61 18 92 76l23 45l-88 455c-1 6 1 10 8 10h63c7 0 10 -2 11 -10l59 -350h2l182 350c3 8 7 10 13 10h64c7 0 10 -4 7 -10l-273 -508c-60 -111 -101 -141 -168 -141zM415 591h-56c-6 0 -9 4 -8 10l13 69
c1 6 5 10 11 10h55c6 0 9 -4 8 -10l-12 -69c-1 -6 -5 -10 -11 -10zM225 591h-56c-6 0 -9 4 -8 10l13 69c1 6 5 10 11 10h55c6 0 9 -4 8 -10l-12 -69c-1 -6 -5 -10 -11 -10z" />
    <glyph glyph-name="ygrave" unicode="&#x1ef3;" horiz-adv-x="460" 
d="M38 -180h-25c-6 0 -10 4 -8 10l9 53c1 7 6 10 12 10h17c38 0 61 18 92 76l23 45l-88 455c-1 6 1 10 8 10h63c7 0 10 -2 11 -10l59 -350h2l182 350c3 8 7 10 13 10h64c7 0 10 -4 7 -10l-273 -508c-60 -111 -101 -141 -168 -141zM304 557h-41c-9 0 -11 2 -16 10l-66 123
c-3 5 1 10 7 10h58c8 0 11 -3 14 -10l52 -123c2 -6 -2 -10 -8 -10z" />
    <glyph glyph-name="zacute" unicode="&#x17a;" horiz-adv-x="457" 
d="M295 557h-42c-6 0 -9 4 -5 10l92 123c5 7 11 10 19 10h62c6 0 8 -6 3 -11l-109 -122c-7 -8 -11 -10 -20 -10zM358 0h-333c-6 0 -9 4 -8 10l8 49c1 4 3 7 6 11l310 337v1h-232c-6 0 -9 4 -8 10l9 51c1 6 5 10 11 10h321c6 0 9 -4 8 -10l-9 -51c-1 -5 -2 -8 -6 -12
l-308 -332v-2h243c6 0 9 -4 8 -10l-9 -52c-1 -6 -4 -10 -11 -10z" />
    <glyph glyph-name="zcaron" unicode="&#x17e;" horiz-adv-x="457" 
d="M305 556h-38c-7 0 -11 3 -14 9l-69 124c-3 5 -1 10 5 10h38c8 0 11 -2 16 -9l49 -76h1l76 76c7 7 12 9 20 9h44c5 0 7 -5 3 -10l-112 -124c-6 -7 -11 -9 -19 -9zM358 0h-333c-6 0 -9 4 -8 10l8 49c1 4 3 7 6 11l310 337v1h-232c-6 0 -9 4 -8 10l9 51c1 6 5 10 11 10h321
c6 0 9 -4 8 -10l-9 -51c-1 -5 -2 -8 -6 -12l-308 -332v-2h243c6 0 9 -4 8 -10l-9 -52c-1 -6 -4 -10 -11 -10z" />
    <glyph glyph-name="zdotaccent" unicode="&#x17c;" horiz-adv-x="457" 
d="M358 0h-333c-6 0 -9 4 -8 10l8 49c1 4 3 7 6 11l310 337v1h-232c-6 0 -9 4 -8 10l9 51c1 6 5 10 11 10h321c6 0 9 -4 8 -10l-9 -51c-1 -5 -2 -8 -6 -12l-308 -332v-2h243c6 0 9 -4 8 -10l-9 -52c-1 -6 -4 -10 -11 -10zM326 591h-66c-6 0 -9 4 -8 10l12 69c1 6 5 10 11 10
h66c6 0 9 -4 8 -10l-12 -69c-1 -6 -5 -10 -11 -10z" />
    <glyph glyph-name="f_i" unicode="&#xf001;" horiz-adv-x="543" 
d="M523 591h-65c-6 0 -9 4 -8 10l12 69c1 6 5 10 11 10h66c6 0 9 -4 8 -10l-12 -69c-1 -7 -5 -10 -12 -10zM417 0h-60c-6 0 -10 4 -9 10l81 459c1 6 5 10 11 10h61c6 0 9 -4 8 -10l-82 -459c-1 -6 -4 -10 -10 -10zM127 0h-61c-5 0 -9 4 -8 10l71 399c1 4 -1 6 -4 6h-41
c-6 0 -8 4 -7 10l7 44c1 7 5 10 11 10h41c3 0 6 2 7 6l7 44c20 111 69 151 166 151h35c6 0 9 -4 8 -10l-9 -53c-1 -7 -6 -10 -11 -10h-25c-57 0 -73 -13 -84 -75l-9 -47c-1 -4 0 -6 4 -6h90c6 0 10 -4 9 -10l-8 -44c-1 -6 -5 -10 -12 -10h-89c-3 0 -5 -2 -6 -6l-72 -399
c-1 -6 -5 -10 -10 -10z" />
    <glyph glyph-name="f_l" unicode="&#xf002;" horiz-adv-x="570" 
d="M487 -5h-32c-79 0 -103 39 -89 124l100 551c1 6 5 10 11 10h60c6 0 10 -4 9 -10l-101 -550c-6 -38 4 -51 36 -51h18c6 0 9 -4 8 -10l-8 -54c-1 -6 -6 -10 -12 -10zM127 0h-61c-5 0 -9 4 -8 10l71 399c1 4 -1 6 -4 6h-41c-6 0 -8 4 -7 10l7 44c1 7 5 10 11 10h41
c3 0 6 2 7 6l7 44c20 111 69 151 166 151h35c6 0 9 -4 8 -10l-9 -53c-1 -7 -6 -10 -11 -10h-25c-57 0 -73 -13 -84 -75l-9 -47c-1 -4 0 -6 4 -6h90c6 0 10 -4 9 -10l-8 -44c-1 -6 -5 -10 -12 -10h-89c-3 0 -5 -2 -6 -6l-72 -399c-1 -6 -5 -10 -10 -10z" />
    <glyph glyph-name="grave.cap" horiz-adv-x="407" 
d="M382 763h-45c-8 0 -10 1 -16 8l-82 106c-3 5 0 11 5 11h61c10 0 14 -3 19 -10l64 -105c3 -6 0 -10 -6 -10z" />
    <glyph glyph-name="acute" unicode="&#xb4;" horiz-adv-x="407" 
d="M235 557h-42c-6 0 -9 4 -5 10l92 123c5 7 11 10 19 10h62c6 0 8 -6 3 -11l-109 -122c-7 -8 -11 -10 -20 -10z" />
    <glyph glyph-name="acute.cap" horiz-adv-x="407" 
d="M269 763h-45c-6 0 -8 5 -4 10l97 105c6 6 12 10 20 10h66c6 0 9 -5 3 -10l-118 -107c-8 -7 -12 -8 -19 -8z" />
    <glyph glyph-name="circumflex" unicode="&#x2c6;" horiz-adv-x="407" 
d="M384 557h-38c-8 0 -11 2 -16 10l-49 75h-1l-76 -75c-7 -8 -12 -10 -20 -10h-44c-5 0 -7 5 -3 10l112 124c6 7 11 9 18 9h39c7 0 11 -2 14 -9l69 -124c3 -5 1 -10 -5 -10z" />
    <glyph glyph-name="circumflex.cap" horiz-adv-x="407" 
d="M419 754h-38c-8 0 -11 2 -17 10l-48 75h-1l-77 -75c-7 -8 -11 -10 -20 -10h-43c-6 0 -8 5 -3 10l112 124c6 7 11 9 18 9h39c7 0 10 -2 14 -9l69 -124c3 -5 0 -10 -5 -10z" />
    <glyph glyph-name="caron" unicode="&#x2c7;" horiz-adv-x="407" 
d="M280 556h-38c-7 0 -11 3 -14 9l-69 124c-3 5 -1 10 5 10h38c8 0 11 -2 16 -9l49 -76h1l76 76c7 7 12 9 20 9h44c5 0 7 -5 3 -10l-112 -124c-6 -7 -11 -9 -19 -9z" />
    <glyph glyph-name="caron.cap" horiz-adv-x="407" 
d="M316 753h-39c-7 0 -10 2 -14 9l-69 124c-3 5 0 10 5 10h38c8 0 11 -2 17 -10l48 -75h1l76 75c8 8 12 10 21 10h43c6 0 8 -5 3 -10l-112 -124c-6 -7 -11 -9 -18 -9z" />
    <glyph glyph-name="caron.alt" horiz-adv-x="407" 
d="M230 521c-6 0 -9 4 -8 10l24 139c1 6 5 10 11 10h57c6 0 9 -4 8 -10l-10 -60c-2 -8 -4 -14 -9 -20l-60 -62c-5 -5 -8 -7 -13 -7z" />
    <glyph glyph-name="tilde" unicode="&#x2dc;" horiz-adv-x="407" 
d="M322 580c-25 0 -41 8 -58 20c-16 11 -29 18 -48 18c-24 0 -44 -12 -65 -32c-4 -4 -9 -1 -8 3l7 46c2 8 4 11 11 17c21 20 44 30 69 30s41 -9 58 -21c16 -10 29 -18 48 -18c24 0 44 13 65 32c4 4 9 2 8 -3l-7 -46c-2 -7 -4 -11 -11 -17c-20 -19 -43 -29 -69 -29z" />
    <glyph glyph-name="tilde.cap" horiz-adv-x="407" 
d="M355 770c-24 0 -40 8 -58 20c-15 11 -28 18 -47 18c-24 0 -45 -12 -66 -31c-4 -4 -9 -2 -8 3l8 45c2 8 4 12 10 18c21 19 44 29 70 29c25 0 40 -8 58 -20c16 -11 29 -18 47 -18c25 0 45 12 66 32c4 4 9 1 8 -3l-8 -46c-1 -8 -4 -11 -10 -17c-21 -20 -44 -30 -70 -30z" />
    <glyph glyph-name="dieresis" unicode="&#xa8;" horiz-adv-x="407" 
d="M394 591h-56c-6 0 -9 4 -8 10l13 69c1 6 5 10 11 10h55c6 0 9 -4 8 -10l-12 -69c-1 -6 -5 -10 -11 -10zM204 591h-56c-6 0 -9 4 -8 10l13 69c1 6 5 10 11 10h55c6 0 9 -4 8 -10l-12 -69c-1 -6 -5 -10 -11 -10z" />
    <glyph glyph-name="dieresis.cap" horiz-adv-x="407" 
d="M426 778h-56c-6 0 -9 4 -8 10l13 70c1 6 5 10 11 10h55c6 0 9 -4 8 -10l-12 -70c-1 -6 -5 -10 -11 -10zM236 778h-56c-6 0 -9 4 -8 10l13 70c1 6 5 10 11 10h55c6 0 9 -4 8 -10l-12 -70c-1 -6 -5 -10 -11 -10z" />
    <glyph glyph-name="macron" unicode="&#xaf;" horiz-adv-x="407" 
d="M395 605h-244c-6 0 -9 4 -8 10l7 41c1 6 5 10 11 10h244c6 0 9 -4 8 -10l-7 -41c-1 -6 -5 -10 -11 -10z" />
    <glyph glyph-name="macron.cap" horiz-adv-x="407" 
d="M428 792h-244c-6 0 -9 4 -8 10l6 41c1 7 5 10 11 10h245c6 0 9 -4 8 -10l-7 -41c-1 -6 -5 -10 -11 -10z" />
    <glyph glyph-name="uni02C9" unicode="&#x2c9;" horiz-adv-x="407" 
d="M428 792h-244c-6 0 -9 4 -8 10l6 41c1 7 5 10 11 10h245c6 0 9 -4 8 -10l-7 -41c-1 -6 -5 -10 -11 -10z" />
    <glyph glyph-name="breve" unicode="&#x2d8;" horiz-adv-x="407" 
d="M265 563c-73 0 -114 46 -109 111c0 6 4 10 10 10h31c6 0 10 -3 11 -10c3 -35 26 -54 66 -54c41 0 70 19 87 54c3 7 6 10 13 10h32c6 0 9 -4 7 -10c-19 -65 -75 -111 -148 -111z" />
    <glyph glyph-name="breve.cap" horiz-adv-x="407" 
d="M300 762c-73 0 -114 46 -109 111c0 6 4 10 10 10h31c6 0 10 -3 11 -10c3 -36 26 -54 66 -54c41 0 70 19 87 54c3 7 6 10 13 10h32c6 0 9 -4 7 -10c-19 -65 -75 -111 -148 -111z" />
    <glyph glyph-name="ring" unicode="&#x2da;" horiz-adv-x="407" 
d="M260 536c-45 0 -75 31 -75 76c0 59 43 110 107 110c45 0 76 -31 76 -76c0 -59 -44 -110 -108 -110zM267 575c33 0 60 27 60 65c0 25 -15 43 -42 43c-32 0 -60 -27 -60 -65c0 -25 16 -43 42 -43z" />
    <glyph glyph-name="ring.cap" horiz-adv-x="407" 
d="M295 730c-45 0 -76 31 -76 75c0 60 44 111 108 111c45 0 76 -32 76 -76c0 -59 -44 -110 -108 -110zM302 769c33 0 60 27 60 65c0 25 -16 43 -42 43c-33 0 -60 -27 -60 -65c0 -25 16 -43 42 -43z" />
    <glyph glyph-name="hungarumlaut" unicode="&#x2dd;" horiz-adv-x="407" 
d="M312 557h-40c-6 0 -9 4 -5 10l85 123c5 6 10 10 18 10h51c6 0 8 -5 4 -10l-96 -124c-5 -6 -10 -9 -17 -9zM177 557h-40c-6 0 -9 4 -5 10l86 123c4 6 9 10 17 10h51c6 0 8 -5 4 -10l-96 -124c-5 -6 -10 -9 -17 -9z" />
    <glyph glyph-name="hungarumlaut.cap" horiz-adv-x="407" 
d="M354 764h-40c-6 0 -9 4 -5 10l83 105c5 7 10 10 18 10h51c6 0 8 -5 4 -10l-93 -106c-5 -6 -10 -9 -18 -9zM219 764h-40c-5 0 -9 4 -4 10l83 105c4 7 10 10 18 10h50c6 0 8 -5 4 -10l-92 -106c-6 -6 -11 -9 -19 -9z" />
    <glyph glyph-name="dotaccent" unicode="&#x2d9;" horiz-adv-x="407" 
d="M304 591h-66c-6 0 -9 4 -8 10l12 69c1 6 5 10 11 10h66c6 0 9 -4 8 -10l-12 -69c-1 -6 -5 -10 -11 -10z" />
    <glyph glyph-name="dotaccent.cap" horiz-adv-x="407" 
d="M336 778h-66c-6 0 -9 4 -8 10l12 70c1 6 5 10 11 10h66c6 0 9 -4 8 -10l-12 -70c-1 -6 -5 -10 -11 -10z" />
    <glyph glyph-name="cedilla" unicode="&#xb8;" horiz-adv-x="407" 
d="M139 -151h-51c-6 0 -8 4 -5 10l80 141c4 7 7 10 14 10h43c6 0 9 -4 6 -10l-70 -141c-4 -8 -9 -10 -17 -10z" />
    <glyph glyph-name="ogonek" unicode="&#x2db;" horiz-adv-x="407" 
d="M133 -180c-39 0 -68 22 -68 63c0 46 30 79 86 117c10 7 16 10 25 10h54c6 0 7 -7 1 -10c-74 -45 -98 -72 -98 -97c0 -14 8 -21 22 -21c10 0 17 2 28 8c5 3 9 1 11 -3l11 -34c2 -5 0 -9 -6 -13c-17 -12 -42 -20 -66 -20z" />
    <glyph glyph-name="commaaccent" horiz-adv-x="407" 
d="M100 -211c-5 0 -8 4 -7 10l23 136c1 6 6 10 12 10h57c6 0 9 -4 8 -10l-10 -57c-2 -8 -4 -13 -9 -20l-60 -62c-5 -5 -9 -7 -14 -7z" />
    <glyph glyph-name="commaaccent.alt" horiz-adv-x="407" 
d="M295 572h-57c-6 0 -9 4 -8 10l10 57c2 9 4 13 10 20l59 62c5 6 9 8 14 8s8 -4 7 -10l-23 -137c-1 -6 -6 -10 -12 -10z" />
    <glyph glyph-name="ellipsis" unicode="&#x2026;" horiz-adv-x="673" 
d="M560 93l-14 -83c-1 -6 -5 -10 -11 -10h-70c-6 0 -10 4 -9 10l14 83c1 6 5 10 11 10h70c6 0 10 -4 9 -10zM335 93l-13 -83c-1 -6 -5 -10 -11 -10h-71c-6 0 -9 4 -8 10l13 83c1 6 5 10 11 10h71c6 0 9 -4 8 -10zM111 93l-14 -83c-1 -6 -5 -10 -11 -10h-70c-6 0 -10 4 -9 10
l14 83c1 6 5 10 11 10h70c6 0 10 -4 9 -10z" />
    <glyph glyph-name="uni00AD" unicode="&#xad;" horiz-adv-x="365" 
d="M312 227h-254c-6 0 -9 4 -8 10l10 57c1 6 5 9 11 9h254c6 0 9 -4 8 -10l-10 -57c-1 -6 -5 -9 -11 -9z" />
    <glyph glyph-name="exclamdown" unicode="&#xa1;" horiz-adv-x="273" 
d="M175 296c5 0 8 -4 7 -10l-70 -477c-1 -7 -5 -10 -10 -10h-69c-6 0 -9 4 -8 10l99 477c1 6 5 10 11 10h40zM228 469l-14 -83c-1 -6 -5 -10 -11 -10h-70c-6 0 -10 4 -9 10l14 83c1 6 5 10 11 10h71c6 0 9 -4 8 -10z" />
    <glyph glyph-name="questiondown" unicode="&#xbf;" horiz-adv-x="437" 
d="M276 298c6 0 9 -4 8 -10l-8 -41c-7 -40 -19 -64 -44 -92l-78 -90c-50 -54 -69 -86 -69 -127c0 -47 30 -76 79 -76c55 0 98 39 120 97c2 6 6 9 12 8l57 -10c6 -1 7 -5 5 -11c-30 -97 -107 -158 -207 -158c-91 0 -147 57 -147 138c0 55 24 104 78 163l77 90
c25 27 32 41 39 76l8 33c1 6 5 10 11 10h59zM319 469l-13 -83c-1 -6 -5 -10 -11 -10h-71c-6 0 -9 4 -8 10l13 83c1 6 5 10 11 10h71c6 0 9 -4 8 -10z" />
    <glyph glyph-name="quoteleft" unicode="&#x2018;" horiz-adv-x="207" 
d="M184 506h-57c-6 0 -9 4 -8 10l14 81c2 10 4 16 9 21l59 56c5 5 9 8 13 8c6 0 9 -4 8 -10l-27 -156c-1 -6 -5 -10 -11 -10z" />
    <glyph glyph-name="quoteright" unicode="&#x2019;" horiz-adv-x="207" 
d="M127 505c-6 0 -9 3 -8 9l27 156c1 6 5 10 11 10h57c6 0 9 -4 8 -10l-14 -81c-2 -10 -5 -15 -10 -21l-58 -56c-5 -5 -9 -7 -13 -7z" />
    <glyph glyph-name="quotedblleft" unicode="&#x201c;" horiz-adv-x="355" 
d="M332 506h-57c-6 0 -9 4 -8 10l14 81c2 10 5 16 10 21l58 56c5 5 9 8 14 8s8 -4 7 -10l-27 -156c-1 -6 -5 -10 -11 -10zM184 506h-57c-6 0 -9 4 -8 10l14 81c2 10 4 16 9 21l59 56c5 5 9 8 13 8c6 0 9 -4 8 -10l-27 -156c-1 -6 -5 -10 -11 -10z" />
    <glyph glyph-name="quotedblright" unicode="&#x201d;" horiz-adv-x="355" 
d="M275 505c-6 0 -9 3 -8 9l27 156c1 6 5 10 11 10h58c6 0 8 -4 7 -10l-14 -81c-2 -10 -4 -15 -9 -21l-58 -56c-5 -5 -10 -7 -14 -7zM127 505c-6 0 -9 3 -8 9l27 156c1 6 5 10 11 10h57c6 0 9 -4 8 -10l-14 -81c-2 -10 -5 -15 -10 -21l-58 -56c-5 -5 -9 -7 -13 -7z" />
    <glyph glyph-name="quotesinglbase" unicode="&#x201a;" horiz-adv-x="207" 
d="M22 -86c-6 0 -9 4 -8 10l27 155c1 6 5 10 11 10h58c6 0 8 -4 7 -10l-14 -81c-2 -10 -4 -15 -9 -21l-58 -55c-5 -6 -10 -8 -14 -8z" />
    <glyph glyph-name="quotedblbase" unicode="&#x201e;" horiz-adv-x="355" 
d="M170 -86c-5 0 -8 4 -7 10l27 155c1 6 5 10 11 10h57c6 0 9 -4 8 -10l-14 -81c-2 -10 -5 -15 -10 -21l-58 -55c-5 -6 -9 -8 -14 -8zM22 -86c-6 0 -9 4 -8 10l27 155c1 6 5 10 11 10h58c6 0 8 -4 7 -10l-14 -81c-2 -10 -4 -15 -9 -21l-58 -55c-5 -6 -10 -8 -14 -8z" />
    <glyph glyph-name="guilsinglleft" unicode="&#x2039;" horiz-adv-x="299" 
d="M195 68l-146 189c-4 4 -3 10 2 14l212 189c4 4 10 2 9 -4l-11 -72c-2 -8 -4 -12 -12 -20l-115 -99c-4 -3 -4 -5 -2 -8l79 -102c6 -7 7 -11 5 -19l-10 -64c-1 -6 -7 -8 -11 -4z" />
    <glyph glyph-name="guilsinglright" unicode="&#x203a;" horiz-adv-x="299" 
d="M53 68c-4 -4 -10 -2 -9 4l12 72c1 8 3 12 11 19l115 100c4 3 4 5 2 8l-78 101c-6 7 -7 12 -6 20l11 64c1 6 7 8 10 4l147 -189c3 -5 3 -10 -2 -14z" />
    <glyph glyph-name="guillemotleft" unicode="&#xab;" horiz-adv-x="506" 
d="M401 68l-146 189c-3 4 -3 10 2 14l213 189c4 4 10 2 9 -4l-12 -72c-2 -8 -4 -12 -11 -20l-116 -99c-3 -3 -4 -5 -2 -8l79 -102c6 -7 7 -11 5 -19l-10 -64c-1 -6 -7 -8 -11 -4zM195 68l-146 189c-4 4 -3 10 2 14l212 189c4 4 10 2 9 -4l-11 -72c-2 -8 -4 -12 -12 -20
l-115 -99c-4 -3 -4 -5 -2 -8l79 -102c6 -7 7 -11 5 -19l-10 -64c-1 -6 -7 -8 -11 -4z" />
    <glyph glyph-name="guillemotright" unicode="&#xbb;" horiz-adv-x="506" 
d="M260 68c-4 -4 -10 -2 -9 4l11 72c2 8 4 12 12 19l115 100c3 3 4 5 2 8l-79 101c-6 7 -7 12 -5 20l10 64c1 6 7 8 11 4l146 -189c3 -5 3 -10 -2 -14zM53 68c-4 -4 -10 -2 -9 4l12 72c1 8 3 12 11 19l115 100c4 3 4 5 2 8l-78 101c-6 7 -7 12 -6 20l11 64c1 6 7 8 10 4
l147 -189c3 -5 3 -10 -2 -14z" />
    <glyph glyph-name="endash" unicode="&#x2013;" horiz-adv-x="492" 
d="M463 232h-426c-6 0 -9 4 -8 10l8 49c1 6 6 10 11 10h427c5 0 8 -4 7 -10l-8 -50c-1 -6 -6 -9 -11 -9z" />
    <glyph glyph-name="emdash" unicode="&#x2014;" horiz-adv-x="815" 
d="M786 232h-749c-6 0 -9 4 -8 10l8 49c1 6 6 10 11 10h749c6 0 9 -4 8 -10l-8 -50c-1 -6 -6 -9 -11 -9z" />
    <glyph glyph-name="bullet" unicode="&#x2022;" horiz-adv-x="383" 
d="M212 180c-74 0 -127 53 -127 128s53 128 127 128c73 0 127 -53 127 -128s-54 -128 -127 -128z" />
    <glyph glyph-name="periodcentered" unicode="&#xb7;" horiz-adv-x="226" 
d="M150 214h-70c-6 0 -10 4 -9 10l14 82c1 6 5 10 11 10h70c6 0 10 -4 9 -10l-14 -82c-1 -6 -5 -10 -11 -10z" />
    <glyph glyph-name="uni2219" unicode="&#x2219;" horiz-adv-x="226" 
d="M150 214h-70c-6 0 -10 4 -9 10l14 82c1 6 5 10 11 10h70c6 0 10 -4 9 -10l-14 -82c-1 -6 -5 -10 -11 -10z" />
    <glyph glyph-name="dagger" unicode="&#x2020;" horiz-adv-x="465" 
d="M193 -180h-57c-6 0 -9 4 -8 10l95 533c1 4 -1 6 -5 6h-135c-6 0 -9 4 -8 10l9 50c1 6 6 9 12 9h133c4 0 6 2 7 6l40 226c1 6 5 10 11 10h57c6 0 10 -4 9 -10l-40 -226c-1 -4 0 -6 4 -6h134c6 0 9 -4 8 -10l-9 -50c-1 -6 -5 -9 -11 -9h-132c-4 0 -7 -2 -8 -6l-94 -533
c-2 -6 -6 -10 -12 -10z" />
    <glyph glyph-name="daggerdbl" unicode="&#x2021;" horiz-adv-x="465" 
d="M193 -180h-57c-6 0 -10 4 -8 10l35 197c1 4 -1 6 -5 6h-134c-6 0 -9 4 -8 10l9 50c1 6 5 9 11 9h134c4 0 6 2 7 6l51 285c1 4 -1 6 -5 6h-135c-6 0 -9 4 -8 10l9 50c1 6 5 9 11 9h134c4 0 6 2 7 6l35 196c1 6 5 10 11 10h57c6 0 10 -4 9 -10l-35 -196c-1 -4 0 -6 4 -6
h134c6 0 9 -4 8 -10l-9 -50c-1 -6 -5 -9 -11 -9h-132c-4 0 -7 -2 -8 -6l-51 -285c-1 -4 0 -6 4 -6h135c6 0 9 -4 8 -10l-9 -50c-1 -6 -5 -9 -11 -9h-134c-4 0 -6 -2 -7 -6l-34 -197c-2 -6 -6 -10 -12 -10z" />
    <glyph glyph-name="section" unicode="&#xa7;" horiz-adv-x="527" 
d="M191 -191c-103 0 -145 59 -137 141c0 5 3 10 8 11l56 11c6 1 8 -2 8 -7c-4 -55 13 -90 75 -90c59 0 105 43 105 107c0 47 -26 72 -105 90c-77 18 -111 65 -111 136c0 90 47 174 130 205v1c-37 21 -56 57 -56 94c0 104 77 183 187 183c98 0 141 -62 132 -135
c-1 -7 -4 -10 -10 -11l-55 -11c-5 -1 -8 2 -8 7c5 48 -16 84 -70 84c-61 0 -100 -46 -100 -105c0 -43 29 -69 101 -87c74 -19 110 -65 110 -136c0 -87 -44 -173 -128 -205v-1c40 -18 59 -55 59 -96c0 -109 -81 -186 -191 -186zM250 138c76 0 126 65 126 144
c0 54 -33 85 -85 85c-76 0 -126 -65 -126 -145c0 -54 33 -84 85 -84z" />
    <glyph glyph-name="paragraph" unicode="&#xb6;" horiz-adv-x="576" 
d="M414 -180h-51c-6 0 -9 4 -8 10l137 775c1 4 -1 6 -5 6h-82c-3 0 -5 -2 -6 -6l-137 -775c-1 -6 -5 -10 -11 -10h-50c-6 0 -9 4 -8 10l76 433c-110 7 -167 88 -154 194c14 124 111 223 253 223h197c6 0 9 -4 8 -10l-148 -840c-1 -6 -5 -10 -11 -10z" />
    <glyph glyph-name="brokenbar" unicode="&#xa6;" horiz-adv-x="280" 
d="M177 388h-47c-6 0 -10 4 -10 10v332c0 6 4 10 10 10h47c6 0 10 -4 10 -10v-332c0 -6 -4 -10 -10 -10zM177 -84h-47c-6 0 -10 4 -10 10v336c0 6 4 10 10 10h47c6 0 10 -4 10 -10v-336c0 -6 -4 -10 -10 -10z" />
    <glyph glyph-name="copyright" unicode="&#xa9;" horiz-adv-x="829" 
d="M434 -11c-198 0 -350 153 -350 351s152 351 350 351c199 0 351 -153 351 -351s-152 -351 -351 -351zM434 47c167 0 291 125 291 293s-124 293 -291 293c-165 0 -291 -125 -291 -293s126 -293 291 -293zM443 143c-74 0 -129 36 -151 105c-6 20 -11 44 -11 92s5 72 11 92
c22 69 77 105 151 105c59 0 104 -27 130 -64c4 -5 3 -10 -2 -14l-29 -26c-5 -4 -10 -3 -14 2c-21 27 -44 44 -84 44c-46 0 -78 -22 -92 -64c-5 -16 -7 -32 -7 -75s2 -59 7 -75c14 -42 46 -64 92 -64c40 0 63 17 84 44c4 5 9 6 14 2l29 -26c5 -4 6 -9 2 -14
c-26 -37 -71 -64 -130 -64z" />
    <glyph glyph-name="registered" unicode="&#xae;" horiz-adv-x="454" 
d="M275 301c-108 0 -190 83 -190 192c0 108 82 191 190 191s191 -83 191 -191c0 -109 -83 -192 -191 -192zM275 333c90 0 158 68 158 160c0 91 -68 159 -158 159s-158 -68 -158 -159c0 -92 68 -160 158 -160zM230 388h-22c-4 0 -7 2 -7 7v198c0 5 3 7 7 7h81
c45 0 71 -23 71 -63c0 -29 -15 -50 -42 -58l43 -84c2 -4 1 -7 -4 -7h-25c-5 0 -7 2 -9 7l-41 79h-41c-2 0 -4 -2 -4 -5v-74c0 -5 -3 -7 -7 -7zM288 507c25 0 37 11 37 30c0 20 -12 31 -37 31h-47c-2 0 -4 -1 -4 -4v-53c0 -2 2 -4 4 -4h47z" />
    <glyph glyph-name="trademark" unicode="&#x2122;" horiz-adv-x="831" 
d="M811 286h-38c-6 0 -10 4 -10 10v248h-2l-93 -192c-3 -6 -7 -10 -13 -10h-30c-6 0 -10 4 -13 10l-93 192h-2v-248c0 -6 -4 -10 -10 -10h-38c-6 0 -10 4 -10 10v374c0 6 4 10 10 10h37c6 0 10 -3 13 -9l121 -256h3l118 256c3 6 7 9 13 9h37c6 0 10 -4 10 -10v-374
c0 -6 -4 -10 -10 -10zM257 286h-42c-6 0 -10 4 -10 10v323c0 4 -2 6 -6 6h-106c-6 0 -10 4 -10 10v35c0 6 4 10 10 10h285c6 0 10 -4 10 -10v-35c0 -6 -4 -10 -10 -10h-105c-4 0 -6 -2 -6 -6v-323c0 -6 -4 -10 -10 -10z" />
    <glyph glyph-name="currency" unicode="&#xa4;" 
d="M461 135l-38 -33c-5 -4 -10 -4 -13 0l-48 59c-33 -21 -72 -33 -115 -33c-42 0 -77 13 -104 35l-69 -62c-5 -4 -10 -4 -14 0l-29 37c-3 4 -3 9 3 14l70 62c-9 21 -14 45 -14 71c0 58 20 112 54 153l-47 60c-3 4 -3 9 2 14l38 34c5 4 11 4 14 0l46 -60c33 21 72 33 115 33
c41 0 75 -13 102 -34l70 63c5 4 10 4 14 0l30 -38c3 -3 3 -9 -3 -13l-71 -64c9 -21 15 -45 15 -71c0 -58 -20 -112 -54 -154l48 -59c3 -4 3 -10 -2 -14zM254 192c85 0 149 77 149 161c0 59 -38 102 -98 102c-85 0 -149 -77 -149 -161c0 -59 38 -102 98 -102z" />
    <glyph glyph-name="Euro" unicode="&#x20ac;" 
d="M248 -11c-104 0 -162 60 -162 167c0 22 3 45 10 87c1 4 -1 6 -5 6h-40c-6 0 -9 4 -8 10l7 41c1 6 5 10 11 10h40c4 0 6 2 7 6l10 55c1 3 0 6 -4 6h-41c-6 0 -9 4 -8 10l7 40c1 6 6 10 12 10h40c4 0 6 2 7 6c10 54 20 88 34 117c42 87 115 131 206 131
c92 0 140 -54 156 -119c2 -6 -1 -11 -6 -13l-52 -23c-5 -2 -10 -1 -12 5c-16 48 -41 76 -97 76c-53 0 -95 -26 -121 -79c-10 -21 -20 -47 -28 -95c-1 -4 1 -6 5 -6h185c6 0 9 -4 8 -10l-16 -40c-3 -6 -7 -10 -13 -10h-175c-4 0 -6 -2 -7 -6l-9 -55c-1 -4 1 -6 5 -6h165
c6 0 9 -4 8 -10l-17 -41c-3 -6 -7 -10 -13 -10h-154c-4 0 -6 -2 -7 -6c-8 -44 -9 -61 -9 -77c0 -67 28 -103 93 -103c51 0 93 30 125 77c4 6 9 7 14 5l46 -25c4 -3 6 -7 3 -13c-42 -68 -108 -118 -200 -118z" />
    <glyph glyph-name="cent" unicode="&#xa2;" 
d="M236 -100h-22c-6 0 -9 4 -8 10l14 81c-90 9 -139 66 -139 161c0 62 12 146 43 212c37 76 99 119 184 125l14 81c1 6 6 10 12 10h22c6 0 9 -4 8 -10l-15 -81c62 -6 103 -36 125 -85c2 -4 2 -10 -4 -13l-43 -33c-6 -3 -12 -1 -14 4c-17 34 -39 52 -76 55l-62 -353
c35 4 67 21 97 55c4 5 9 6 13 2l36 -37c4 -4 3 -10 -1 -14c-38 -47 -89 -76 -158 -80l-14 -80c-1 -6 -6 -10 -12 -10zM162 164c0 -54 20 -91 71 -99l62 350c-40 -8 -75 -34 -95 -75c-26 -55 -38 -134 -38 -176z" />
    <glyph glyph-name="sterling" unicode="&#xa3;" 
d="M402 0h-332c-6 0 -9 4 -8 10l8 53c1 4 4 8 7 11c27 24 43 43 54 100l19 108c1 4 -1 6 -5 6h-46c-6 0 -8 4 -7 10l7 42c1 6 6 10 12 10h45c4 0 6 2 7 6l27 154c22 123 90 181 186 181c80 0 123 -50 127 -123c0 -6 -3 -10 -10 -12l-55 -14c-6 -1 -9 2 -9 8
c-2 40 -24 67 -63 67c-49 0 -84 -35 -94 -94l-29 -167c-1 -4 1 -6 4 -6h124c6 0 9 -4 8 -10l-7 -42c-1 -6 -6 -10 -12 -10h-123c-4 0 -6 -2 -7 -6l-17 -96c-10 -56 -25 -88 -48 -111l-1 -2h249c5 0 9 -4 8 -10l-9 -53c-1 -6 -5 -10 -10 -10z" />
    <glyph glyph-name="florin" unicode="&#x192;" 
d="M424 338h-99l-119 -369c-34 -106 -83 -149 -176 -149h-25c-6 0 -10 4 -9 10l9 51c1 7 6 10 12 10h19c46 0 74 20 93 77l119 370h-73c-6 0 -9 4 -8 10l8 43c1 6 6 10 12 10h82l42 130c34 106 83 149 176 149h25c6 0 10 -4 9 -10l-9 -51c-1 -7 -6 -10 -12 -10h-19
c-46 0 -74 -20 -93 -77l-43 -131h90c6 0 9 -4 8 -10l-7 -43c-1 -6 -6 -10 -12 -10z" />
    <glyph glyph-name="yen" unicode="&#xa5;" 
d="M255 0h-60c-6 0 -9 4 -8 10l24 132c1 5 -1 7 -5 7h-122c-6 0 -9 4 -8 10l6 40c1 6 6 10 12 10h122c4 0 6 2 7 6l9 51c1 4 -1 6 -5 6h-122c-6 0 -9 4 -8 10l7 41c1 6 5 10 11 10h106v1l-91 335c-1 6 2 11 8 11h63c7 0 10 -4 12 -10l73 -305h3l181 305c4 7 8 10 16 10h63
c6 0 9 -5 5 -11l-209 -335v-1h106c6 0 9 -4 8 -10l-7 -41c-1 -6 -5 -10 -11 -10h-123c-4 0 -6 -2 -7 -6l-9 -51c-1 -4 1 -6 5 -6h122c6 0 9 -4 8 -10l-6 -40c-1 -6 -6 -10 -12 -10h-124c-3 0 -5 -2 -6 -6l-23 -133c-1 -6 -5 -10 -11 -10z" />
    <glyph glyph-name="ordfeminine" unicode="&#xaa;" horiz-adv-x="330" 
d="M305 392h-41c-5 0 -9 4 -8 10l3 17h-2c-18 -20 -49 -32 -90 -32c-49 0 -84 25 -84 73c0 71 58 105 135 105h60c3 0 5 2 6 6l3 16c7 30 -7 45 -58 45c-27 0 -53 -9 -71 -19c-5 -3 -11 -2 -13 3l-12 32c-2 5 -1 10 5 14c26 16 63 26 108 26c89 0 115 -32 103 -101l-33 -185
c-1 -6 -5 -10 -11 -10zM193 439c42 0 72 19 77 49l4 24c1 4 -1 6 -5 6h-54c-42 0 -70 -17 -70 -47c0 -20 18 -32 48 -32z" />
    <glyph glyph-name="ordmasculine" unicode="&#xba;" horiz-adv-x="337" 
d="M199 384c-66 0 -109 35 -109 107c0 35 7 80 25 116c27 56 75 81 136 81c67 0 110 -35 110 -107c0 -35 -8 -80 -25 -116c-28 -56 -76 -81 -137 -81zM208 443c31 0 53 16 68 44c11 23 18 60 18 81c0 37 -14 61 -52 61c-31 0 -52 -16 -67 -44c-12 -23 -19 -60 -19 -81
c0 -37 14 -61 52 -61z" />
    <glyph glyph-name="fraction" unicode="&#x2044;" horiz-adv-x="218" 
d="M-102 -11h-45c-6 0 -8 5 -4 10l499 682c5 7 8 10 16 10h44c6 0 7 -5 4 -10l-498 -682c-5 -7 -9 -10 -16 -10z" />
    <glyph glyph-name="uni2215" unicode="&#x2215;" horiz-adv-x="218" 
d="M-102 -11h-45c-6 0 -8 5 -4 10l499 682c5 7 8 10 16 10h44c6 0 7 -5 4 -10l-498 -682c-5 -7 -9 -10 -16 -10z" />
    <glyph glyph-name="onequarter" unicode="&#xbc;" horiz-adv-x="802" 
d="M188 -11h-45c-6 0 -8 5 -4 10l499 682c5 7 8 10 16 10h44c6 0 7 -5 4 -10l-498 -682c-5 -7 -9 -10 -16 -10zM230 274h-44c-6 0 -9 4 -8 10l56 318h-2l-70 -43c-6 -4 -11 0 -10 6l9 48c1 7 3 12 10 16l70 44c7 5 12 7 17 7h43c5 0 9 -4 8 -10l-68 -386
c-1 -6 -5 -10 -11 -10zM639 0h-42c-5 0 -8 4 -7 10l9 53c1 4 -1 6 -5 6h-155c-6 0 -9 4 -8 10l6 37c1 5 3 10 7 16l170 264c4 6 9 10 16 10h45c5 0 8 -4 4 -10l-169 -269v-1h94c4 0 6 2 7 6l16 91c1 6 6 10 11 10h42c6 0 9 -4 8 -10l-16 -91c-1 -4 1 -6 5 -6h26
c6 0 9 -4 8 -10l-7 -38c-1 -6 -4 -9 -10 -9h-28c-3 0 -5 -2 -6 -6l-9 -53c-1 -6 -6 -10 -12 -10z" />
    <glyph glyph-name="onehalf" unicode="&#xbd;" horiz-adv-x="836" 
d="M188 -11h-45c-6 0 -8 5 -4 10l499 682c5 7 8 10 16 10h44c6 0 7 -5 4 -10l-498 -682c-5 -7 -9 -10 -16 -10zM230 274h-44c-6 0 -9 4 -8 10l56 318h-2l-70 -43c-6 -4 -11 0 -10 6l9 48c1 7 3 12 10 16l70 44c7 5 12 7 17 7h43c5 0 9 -4 8 -10l-68 -386
c-1 -6 -5 -10 -11 -10zM709 0h-226c-6 0 -9 4 -8 10l7 38c1 5 3 9 8 14l174 171c26 25 43 49 43 78c0 27 -16 44 -47 44s-55 -20 -69 -52c-3 -6 -6 -8 -11 -7l-41 9c-5 1 -7 5 -5 11c16 50 63 97 137 97c64 0 100 -39 100 -92c0 -48 -23 -84 -61 -123l-145 -139v-1h153
c6 0 9 -4 8 -10l-6 -38c-1 -6 -6 -10 -11 -10z" />
    <glyph glyph-name="threequarters" unicode="&#xbe;" horiz-adv-x="861" 
d="M247 -11h-45c-6 0 -8 5 -4 10l499 682c5 7 8 10 16 10h44c6 0 7 -5 4 -10l-498 -682c-5 -7 -9 -10 -16 -10zM698 0h-42c-5 0 -8 4 -7 10l9 53c1 4 -1 6 -5 6h-155c-6 0 -9 4 -8 10l6 37c1 5 3 10 7 16l170 264c4 6 9 10 16 10h45c5 0 8 -4 4 -10l-169 -269v-1h94
c4 0 6 2 7 6l16 91c1 6 6 10 11 10h42c6 0 9 -4 8 -10l-16 -91c-1 -4 1 -6 5 -6h26c6 0 9 -4 8 -10l-7 -38c-1 -6 -4 -9 -10 -9h-28c-3 0 -5 -2 -6 -6l-9 -53c-1 -6 -6 -10 -12 -10zM224 267c-65 0 -103 33 -111 86c-1 6 2 12 7 13l42 10c7 2 9 -1 11 -7
c5 -24 23 -44 57 -44c43 0 77 33 77 77c0 31 -20 52 -57 52h-17c-6 0 -9 4 -8 10l6 38c1 6 5 10 12 10h13c42 0 73 29 73 73c0 26 -17 44 -48 44c-32 0 -52 -16 -65 -38c-4 -6 -7 -9 -13 -8l-37 10c-6 1 -7 5 -5 12c18 44 64 82 132 82c66 0 102 -37 102 -90
c0 -47 -20 -84 -63 -109v-1c19 -10 39 -36 39 -74c0 -88 -62 -146 -147 -146z" />
    <glyph glyph-name="perthousand" unicode="&#x2030;" horiz-adv-x="1040" 
d="M160 -11h-43c-6 0 -8 5 -4 10l499 682c5 7 8 10 16 10h44c6 0 8 -5 4 -10l-499 -682c-5 -7 -9 -10 -17 -10zM212 330c-56 0 -100 34 -100 95c0 33 19 150 37 187c24 49 61 76 122 76c57 0 100 -34 100 -95c0 -33 -19 -150 -37 -187c-24 -49 -61 -76 -122 -76zM219 385
c26 0 46 12 59 37c14 27 33 137 33 165s-17 46 -47 46c-26 0 -46 -12 -58 -37c-15 -27 -34 -137 -34 -165s18 -46 47 -46zM813 -9c-57 0 -100 34 -100 96c0 33 19 149 37 186c24 49 61 76 122 76c56 0 100 -34 100 -95c0 -33 -19 -149 -37 -186c-24 -50 -61 -77 -122 -77z
M518 -9c-56 0 -100 34 -100 96c0 33 19 149 37 186c24 49 61 76 122 76c57 0 100 -34 100 -95c0 -33 -19 -149 -37 -186c-24 -50 -61 -77 -122 -77zM819 46c27 0 46 13 59 37c14 28 33 137 33 165s-17 46 -47 46c-26 0 -46 -12 -58 -36c-15 -28 -34 -138 -34 -165
c0 -29 18 -47 47 -47zM525 46c26 0 45 13 58 37c14 28 33 137 33 165s-17 46 -47 46c-26 0 -45 -12 -58 -36c-14 -28 -33 -138 -33 -165c0 -29 17 -47 47 -47z" />
    <glyph glyph-name="minus" unicode="&#x2212;" 
d="M473 240h-397c-6 0 -10 4 -10 10v52c0 6 4 10 10 10h397c6 0 10 -4 10 -10v-52c0 -6 -4 -10 -10 -10z" />
    <glyph glyph-name="plusminus" unicode="&#xb1;" 
d="M285 131h-53c-6 0 -10 4 -10 10v157c0 4 -2 6 -6 6h-156c-6 0 -10 4 -10 10v53c0 6 4 10 10 10h156c4 0 6 2 6 6v157c0 6 4 10 10 10h53c6 0 10 -4 10 -10v-157c0 -4 2 -6 6 -6h156c6 0 10 -4 10 -10v-53c0 -6 -4 -10 -10 -10h-156c-4 0 -6 -2 -6 -6v-157
c0 -6 -4 -10 -10 -10zM457 0h-397c-6 0 -10 4 -10 10v53c0 6 4 10 10 10h397c6 0 10 -4 10 -10v-53c0 -6 -4 -10 -10 -10z" />
    <glyph glyph-name="multiply" unicode="&#xd7;" 
d="M444 136l-34 -36c-4 -4 -10 -4 -14 0l-123 121c-3 3 -5 3 -8 0l-123 -121c-4 -4 -10 -4 -14 0l-35 36c-4 4 -4 10 0 14l124 122c3 3 3 5 0 8l-124 122c-4 4 -4 10 0 14l35 36c4 4 10 4 14 0l123 -121c3 -3 6 -3 9 0l122 121c4 4 10 4 14 0l34 -36c4 -4 4 -10 0 -14
l-122 -121c-3 -3 -3 -6 0 -9l122 -122c4 -4 4 -10 0 -14z" />
    <glyph glyph-name="divide" unicode="&#xf7;" 
d="M268 381c-30 0 -54 24 -54 55c0 30 24 54 54 54s53 -24 53 -54c0 -31 -23 -55 -53 -55zM467 240h-397c-6 0 -10 4 -10 10v52c0 6 4 10 10 10h397c6 0 10 -4 10 -10v-52c0 -6 -4 -10 -10 -10zM268 61c-30 0 -54 25 -54 55c0 31 24 55 54 55s53 -24 53 -55
c0 -30 -23 -55 -53 -55z" />
    <glyph glyph-name="notequal" unicode="&#x2260;" 
d="M153 31h-46c-6 0 -8 5 -5 10l52 100h-94c-6 0 -10 4 -10 10v53c0 6 4 10 10 10h133l65 124h-198c-6 0 -10 4 -10 10v53c0 6 4 10 10 10h236l53 100c3 7 8 10 15 10h46c6 0 8 -5 5 -10l-53 -100h95c6 0 10 -4 10 -10v-53c0 -6 -4 -10 -10 -10h-133l-65 -124h198
c6 0 10 -4 10 -10v-53c0 -6 -4 -10 -10 -10h-237l-52 -100c-3 -7 -8 -10 -15 -10z" />
    <glyph glyph-name="approxequal" unicode="&#x2248;" 
d="M344 306c-42 0 -75 19 -101 37c-23 15 -46 29 -71 29c-34 0 -55 -17 -77 -54c-3 -5 -8 -6 -13 -2l-34 21c-6 4 -7 7 -3 14c26 54 73 88 128 88c42 0 74 -19 101 -38c23 -15 45 -28 71 -28c34 0 54 18 76 53c3 5 8 6 14 2l33 -20c6 -4 7 -7 3 -14
c-25 -54 -72 -88 -127 -88zM344 113c-42 0 -75 19 -101 38c-23 15 -46 28 -71 28c-34 0 -55 -18 -77 -53c-3 -5 -8 -6 -13 -2l-34 20c-6 4 -7 7 -3 14c26 54 73 88 128 88c42 0 74 -19 101 -37c23 -15 45 -29 71 -29c34 0 54 17 76 54c3 5 8 6 14 2l33 -21c6 -4 7 -7 3 -14
c-25 -54 -72 -88 -127 -88z" />
    <glyph glyph-name="lessequal" unicode="&#x2264;" 
d="M457 142l-397 162c-6 2 -10 7 -10 14v44c0 6 4 11 10 13l397 162c6 2 10 0 10 -6v-59c0 -7 -3 -10 -10 -13l-304 -118v-2l304 -118c7 -3 10 -6 10 -13v-60c0 -6 -4 -8 -10 -6zM457 0h-397c-6 0 -10 4 -10 10v53c0 6 4 10 10 10h397c6 0 10 -4 10 -10v-53
c0 -6 -4 -10 -10 -10z" />
    <glyph glyph-name="greaterequal" unicode="&#x2265;" 
d="M467 304l-397 -162c-6 -2 -10 0 -10 6v60c0 7 3 10 10 13l303 118v2l-303 118c-7 3 -10 6 -10 13v59c0 6 4 8 10 6l397 -162c6 -2 10 -7 10 -13v-44c0 -7 -4 -12 -10 -14zM467 0h-397c-6 0 -10 4 -10 10v53c0 6 4 10 10 10h397c6 0 10 -4 10 -10v-53c0 -6 -4 -10 -10 -10
z" />
    <glyph glyph-name="logicalnot" unicode="&#xac;" 
d="M457 106h-54c-6 0 -10 4 -10 10v118c0 4 -2 6 -6 6h-327c-6 0 -10 4 -10 10v52c0 6 4 10 10 10h397c6 0 10 -4 10 -10v-186c0 -6 -4 -10 -10 -10z" />
    <glyph glyph-name="Delta" unicode="&#x2206;" horiz-adv-x="579" 
d="M516 0h-522c-6 0 -8 4 -5 10l344 660c3 6 7 10 14 10h59c7 0 10 -4 11 -10l107 -660c1 -6 -2 -10 -8 -10zM429 70c5 0 7 2 6 6l-75 478h-3l-248 -478c-2 -4 -1 -6 4 -6h316z" />
    <glyph glyph-name="Omega" unicode="&#x2126;" horiz-adv-x="612" 
d="M501 0h-181c-6 0 -9 4 -8 10l10 58c1 7 5 10 11 12c88 29 127 98 156 260c13 76 17 114 17 141c0 83 -42 132 -125 132c-73 0 -127 -37 -159 -103c-14 -28 -28 -64 -48 -170c-9 -50 -14 -91 -14 -125c0 -77 24 -116 78 -135c7 -2 8 -5 7 -12l-9 -58c-1 -6 -5 -10 -11 -10
h-179c-6 0 -9 4 -8 10l9 57c1 6 5 10 11 10h77v2c-38 27 -58 64 -58 133c0 34 5 77 14 128c20 113 33 155 52 194c52 108 137 157 251 157c122 0 197 -70 197 -201c0 -32 -4 -73 -18 -150c-28 -160 -65 -221 -135 -261v-2h75c5 0 8 -4 7 -10l-9 -57c-1 -6 -5 -10 -10 -10z
" />
    <glyph glyph-name="mu" unicode="&#xb5;" horiz-adv-x="525" 
d="M19 -180c-5 0 -9 4 -8 9l114 641c1 5 6 9 11 9h60c6 0 8 -4 7 -9l-44 -247c-10 -54 -10 -66 -10 -77c0 -54 28 -83 85 -83c50 0 113 37 128 121l50 286c1 5 6 9 11 9h62c4 0 8 -3 7 -9l-59 -335c-4 -21 -6 -36 -6 -45c0 -18 13 -21 30 -21c6 0 9 -4 8 -10l-9 -53
c-1 -8 -5 -11 -12 -11h-8c-57 0 -76 17 -82 52c0 5 -1 14 -1 20h-1c-30 -48 -81 -76 -141 -77c-39 0 -71 11 -84 41l-1 -1l-35 -201c-1 -6 -5 -9 -10 -9h-62z" />
    <glyph glyph-name="degree" unicode="&#xb0;" horiz-adv-x="457" 
d="M279 399c-83 0 -144 62 -144 144c0 83 61 146 144 146s146 -63 146 -146c0 -82 -63 -144 -146 -144zM279 449c54 0 93 41 93 94c0 55 -38 95 -93 95c-53 0 -92 -40 -92 -95c0 -53 39 -94 92 -94z" />
    <glyph glyph-name="afii61289" unicode="&#x2113;" horiz-adv-x="389" 
d="M69 182c-5 -3 -10 -3 -13 2l-18 37c-3 5 -1 11 3 14l78 58l37 209c22 124 72 189 153 189c56 0 91 -37 91 -101c0 -113 -87 -227 -207 -326l-25 -141c-8 -42 5 -60 32 -60c20 0 39 10 62 30c5 4 10 3 13 -2l19 -39c3 -4 2 -9 -3 -14c-33 -30 -73 -49 -114 -49
c-73 0 -103 48 -87 134l14 84zM236 511l-27 -156c77 75 122 152 122 226c0 28 -11 44 -30 44c-26 0 -49 -24 -65 -114z" />
    <glyph glyph-name="estimated" unicode="&#x212e;" horiz-adv-x="624" 
d="M315 -11c-142 0 -233 113 -233 252s91 248 233 248c140 0 234 -102 235 -248h-366v-165c35 -34 80 -52 131 -52c74 0 129 32 173 108l33 -20c-56 -85 -111 -123 -206 -123zM447 273v131c-38 36 -82 55 -132 55c-51 0 -96 -19 -131 -55v-131h263z" />
    <glyph glyph-name="infinity" unicode="&#x221e;" horiz-adv-x="767" 
d="M568 88c-65 0 -121 35 -185 110c-65 -74 -121 -110 -185 -110c-89 0 -155 64 -155 159c0 94 65 159 156 159c63 0 116 -36 183 -113c71 81 122 113 185 113c90 0 157 -63 157 -159c0 -94 -66 -159 -156 -159zM565 146c62 0 98 49 98 102c0 55 -35 99 -98 99
c-44 0 -81 -28 -142 -102c63 -75 98 -99 142 -99zM202 146c43 0 82 31 141 101c-61 72 -97 100 -141 100c-63 0 -98 -43 -98 -99c0 -58 39 -102 98 -102z" />
    <glyph glyph-name="partialdiff" unicode="&#x2202;" horiz-adv-x="511" 
d="M192 -11c-99 0 -156 70 -156 167c0 134 91 260 234 260c60 0 107 -23 135 -72h1c7 38 11 73 11 106c0 101 -36 169 -116 169c-38 0 -76 -16 -115 -42c-5 -3 -9 -2 -12 3l-20 43c-2 5 -1 10 4 14c44 31 99 54 157 54c120 0 178 -87 178 -225c0 -93 -25 -217 -69 -311
c-52 -109 -128 -166 -232 -166zM210 63c85 0 147 82 182 215c-27 45 -68 71 -121 71c-97 0 -159 -88 -159 -181c0 -64 36 -105 98 -105z" />
    <glyph glyph-name="integral" unicode="&#x222b;" horiz-adv-x="392" 
d="M32 -180c-10 0 -28 1 -38 2c-6 1 -9 4 -8 10l9 52c1 7 5 11 11 10c10 -1 19 -1 28 -1c44 0 71 30 84 102l98 553c24 139 76 191 168 192c10 0 27 0 38 -2c5 -1 8 -4 7 -10l-8 -52c-1 -7 -6 -11 -11 -10c-10 1 -20 2 -28 2c-45 0 -71 -30 -84 -102l-98 -553
c-24 -140 -76 -192 -168 -193z" />
    <glyph glyph-name="radical" unicode="&#x221a;" horiz-adv-x="621" 
d="M265 -180h-48c-6 0 -9 3 -11 10l-84 284c-1 4 -4 5 -8 3l-68 -32c-6 -3 -10 -1 -12 4l-13 42c-2 6 0 10 6 13l131 60c6 3 11 2 12 -4l77 -276h3l355 806c3 7 8 10 14 10h51c6 0 9 -5 6 -10l-398 -900c-3 -6 -7 -10 -13 -10z" />
    <glyph glyph-name="summation" unicode="&#x2211;" horiz-adv-x="534" 
d="M481 -180h-420c-6 0 -10 4 -10 10v59c0 4 1 7 2 9l186 422l-181 336c-2 4 -3 7 -3 11v63c0 6 4 10 10 10h406c6 0 10 -4 10 -10v-63c0 -6 -4 -10 -10 -10h-315l174 -324c2 -5 2 -9 0 -14l-183 -416h334c6 0 10 -4 10 -10v-63c0 -6 -4 -10 -10 -10z" />
    <glyph glyph-name="product" unicode="&#x220f;" horiz-adv-x="652" 
d="M558 -180h-69c-6 0 -10 4 -10 10v821c0 4 -2 6 -6 6h-294c-4 0 -6 -2 -6 -6v-821c0 -6 -4 -10 -10 -10h-69c-6 0 -10 4 -10 10v900c0 6 4 10 10 10h464c6 0 10 -4 10 -10v-900c0 -6 -4 -10 -10 -10z" />
    <glyph glyph-name="lozenge" unicode="&#x25ca;" horiz-adv-x="538" 
d="M248 -52h-52c-7 0 -9 3 -11 10l-106 364c-1 5 0 9 3 14l234 364c4 6 8 10 15 10h52c6 0 9 -3 11 -10l106 -364c1 -5 0 -9 -3 -14l-233 -364c-4 -7 -9 -10 -16 -10zM235 27l198 309l-85 295h-2l-198 -309l85 -295h2z" />
    <glyph glyph-name="uniF8FF" unicode="&#xf8ff;" horiz-adv-x="477" 
d="M467 0h-457c-6 0 -10 4 -10 10v660c0 6 4 10 10 10h457c6 0 10 -4 10 -10v-660c0 -6 -4 -10 -10 -10zM422 47c4 0 6 2 6 6v574c0 4 -2 6 -6 6h-367c-4 0 -6 -2 -6 -6v-574c0 -4 2 -6 6 -6h367zM247 231h-39c-6 0 -10 4 -10 10v24c0 28 6 42 20 60l44 60
c22 27 28 43 28 66c0 34 -24 58 -59 58s-57 -19 -65 -54c-1 -6 -5 -10 -12 -9l-37 6c-6 1 -9 5 -8 11c12 60 55 99 124 99s116 -48 116 -111c0 -34 -10 -58 -32 -84l-43 -60c-13 -16 -17 -26 -17 -48v-18c0 -6 -4 -10 -10 -10zM250 114h-45c-6 0 -10 4 -10 10v49
c0 6 4 10 10 10h45c6 0 10 -4 10 -10v-49c0 -6 -4 -10 -10 -10z" />
    <glyph glyph-name="uni03A9" unicode="&#x3a9;" horiz-adv-x="612" 
d="M501 0h-181c-6 0 -9 4 -8 10l10 58c1 7 5 10 11 12c88 29 127 98 156 260c13 76 17 114 17 141c0 83 -42 132 -125 132c-73 0 -127 -37 -159 -103c-14 -28 -28 -64 -48 -170c-9 -50 -14 -91 -14 -125c0 -77 24 -116 78 -135c7 -2 8 -5 7 -12l-9 -58c-1 -6 -5 -10 -11 -10
h-179c-6 0 -9 4 -8 10l9 57c1 6 5 10 11 10h77v2c-38 27 -58 64 -58 133c0 34 5 77 14 128c20 113 33 155 52 194c52 108 137 157 251 157c122 0 197 -70 197 -201c0 -32 -4 -73 -18 -150c-28 -160 -65 -221 -135 -261v-2h75c5 0 8 -4 7 -10l-9 -57c-1 -6 -5 -10 -10 -10z
" />
    <glyph glyph-name="uni03BC" unicode="&#x3bc;" horiz-adv-x="525" 
d="M19 -180c-5 0 -9 4 -8 9l114 641c1 5 6 9 11 9h60c6 0 8 -4 7 -9l-44 -247c-10 -54 -10 -66 -10 -77c0 -54 28 -83 85 -83c50 0 113 37 128 121l50 286c1 5 6 9 11 9h62c4 0 8 -3 7 -9l-59 -335c-4 -21 -6 -36 -6 -45c0 -18 13 -21 30 -21c6 0 9 -4 8 -10l-9 -53
c-1 -8 -5 -11 -12 -11h-8c-57 0 -76 17 -82 52c0 5 -1 14 -1 20h-1c-30 -48 -81 -76 -141 -77c-39 0 -71 11 -84 41l-1 -1l-35 -201c-1 -6 -5 -9 -10 -9h-62z" />
    <glyph glyph-name="pi" unicode="&#x3c0;" horiz-adv-x="566" 
d="M74 0c-5 0 -9 3 -8 9l68 389c1 5 -2 7 -5 7h-59c-5 0 -7 3 -6 9l10 56c1 5 5 9 11 9h465c8 0 9 -3 8 -8l-10 -57c-1 -6 -5 -9 -12 -9h-54c-4 0 -7 -2 -8 -7l-51 -271c-1 -7 -2 -16 -2 -25c0 -23 17 -33 41 -33h6c6 0 9 -4 8 -10l-9 -54c-1 -7 -6 -10 -12 -10h-17
c-67 0 -99 33 -99 87c0 11 1 24 3 37l52 279c1 5 -2 7 -5 7h-167c-4 0 -7 -2 -8 -7l-69 -389c-1 -5 -4 -9 -9 -9h-62z" />
    <glyph glyph-name="uni0394" unicode="&#x394;" horiz-adv-x="579" 
d="M516 0h-522c-6 0 -8 4 -5 10l344 660c3 6 7 10 14 10h59c7 0 10 -4 11 -10l107 -660c1 -6 -2 -10 -8 -10zM429 70c5 0 7 2 6 6l-75 478h-3l-248 -478c-2 -4 -1 -6 4 -6h316z" />
    <glyph glyph-name="zero.denominator" horiz-adv-x="325" 
d="M125 -7c-64 0 -105 37 -105 103c0 44 28 198 46 237c26 55 72 80 133 80c64 0 105 -37 105 -103c0 -44 -28 -198 -46 -237c-26 -55 -72 -80 -133 -80zM134 51c29 0 48 10 65 41c15 30 40 178 40 214c0 31 -16 49 -49 49c-29 0 -50 -12 -64 -39c-15 -30 -41 -180 -41 -216
c0 -31 16 -49 49 -49z" />
    <glyph glyph-name="one.denominator" horiz-adv-x="325" 
d="M168 0h-44c-6 0 -9 4 -8 10l56 318h-2l-70 -43c-6 -4 -11 0 -10 6l9 48c1 7 3 12 10 16l70 44c7 5 12 7 17 7h43c5 0 9 -4 8 -10l-68 -386c-1 -6 -5 -10 -11 -10z" />
    <glyph glyph-name="two.denominator" horiz-adv-x="325" 
d="M238 0h-226c-6 0 -9 4 -8 10l7 38c1 5 3 9 8 14l174 171c26 25 43 49 43 78c0 27 -16 44 -47 44s-55 -20 -69 -52c-3 -6 -6 -8 -11 -7l-41 9c-5 1 -7 5 -5 11c16 50 63 97 137 97c64 0 100 -39 100 -92c0 -48 -23 -84 -61 -123l-145 -139v-1h153c6 0 9 -4 8 -10l-6 -38
c-1 -6 -6 -10 -11 -10z" />
    <glyph glyph-name="three.denominator" horiz-adv-x="325" 
d="M127 -7c-65 0 -103 33 -111 86c-1 6 2 12 7 13l42 10c7 2 9 -1 11 -7c5 -24 23 -44 57 -44c43 0 77 33 77 77c0 31 -20 52 -57 52h-17c-6 0 -9 4 -8 10l6 38c1 6 5 10 12 10h13c42 0 73 29 73 73c0 26 -17 44 -48 44c-32 0 -52 -16 -65 -38c-4 -6 -7 -9 -13 -8l-37 10
c-6 1 -7 5 -5 12c18 44 64 82 132 82c66 0 102 -37 102 -90c0 -47 -20 -84 -63 -109v-1c19 -10 39 -36 39 -74c0 -88 -62 -146 -147 -146z" />
    <glyph glyph-name="four.denominator" horiz-adv-x="325" 
d="M209 0h-42c-5 0 -8 4 -7 10l9 53c1 4 -1 6 -5 6h-155c-6 0 -9 4 -8 10l6 37c1 5 3 10 7 16l170 264c4 6 9 10 16 10h45c5 0 8 -4 4 -10l-169 -269v-1h94c4 0 6 2 7 6l16 91c1 6 6 10 11 10h42c6 0 9 -4 8 -10l-16 -91c-1 -4 1 -6 5 -6h26c6 0 9 -4 8 -10l-7 -38
c-1 -6 -4 -9 -10 -9h-28c-3 0 -5 -2 -6 -6l-9 -53c-1 -6 -6 -10 -12 -10z" />
    <glyph glyph-name="five.denominator" horiz-adv-x="325" 
d="M124 -7c-63 0 -96 33 -102 80c-1 6 1 12 7 13l43 15c5 1 9 -1 10 -6c5 -26 20 -43 52 -43c30 0 49 13 62 37c9 16 17 52 17 71c0 31 -17 48 -49 48c-27 0 -44 -11 -54 -26c-4 -5 -8 -8 -13 -8h-44c-6 0 -9 4 -8 10l37 212c1 6 5 10 11 10h210c6 0 9 -4 8 -10l-6 -38
c-1 -6 -5 -10 -10 -10h-154c-4 0 -7 -2 -7 -6l-19 -99h1c14 12 38 23 69 23c52 0 92 -29 92 -87c0 -30 -10 -83 -23 -111c-26 -53 -69 -75 -130 -75z" />
    <glyph glyph-name="six.denominator" horiz-adv-x="325" 
d="M125 -7c-67 0 -110 39 -110 101c0 40 16 78 49 125l126 178c5 6 9 9 16 9h51c5 0 7 -6 3 -11l-112 -158l1 -1c8 5 19 8 33 8c58 0 97 -38 97 -97c0 -84 -61 -154 -154 -154zM135 51c44 0 80 35 80 83c0 32 -21 53 -56 53c-43 0 -80 -36 -80 -83c0 -32 21 -53 56 -53z" />
    <glyph glyph-name="seven.denominator" horiz-adv-x="325" 
d="M99 0h-45c-6 0 -8 4 -4 11l196 335v2h-111c-4 0 -6 -2 -7 -6l-8 -42c-1 -6 -5 -10 -11 -10h-42c-6 0 -9 4 -8 10l17 96c1 6 5 10 11 10h225c5 0 9 -4 8 -10l-8 -43c-1 -6 -3 -10 -6 -15l-193 -329c-4 -7 -7 -9 -14 -9z" />
    <glyph glyph-name="eight.denominator" horiz-adv-x="325" 
d="M124 -7c-67 0 -111 40 -111 100c0 49 26 95 73 121v1c-18 14 -31 36 -31 64c0 72 63 134 144 134c67 0 102 -42 102 -94c0 -42 -22 -80 -59 -104v-2c21 -15 37 -41 37 -74c0 -84 -68 -146 -155 -146zM168 240c37 0 70 32 70 70c0 27 -19 46 -50 46c-36 0 -70 -32 -70 -70
c0 -27 20 -46 50 -46zM134 50c45 0 82 37 82 80c0 32 -23 54 -58 54c-45 0 -82 -37 -82 -80c0 -32 23 -54 58 -54z" />
    <glyph glyph-name="nine.denominator" horiz-adv-x="325" 
d="M118 0h-52c-5 0 -6 6 -2 11l111 158v1c-8 -5 -20 -8 -34 -8c-58 0 -97 38 -97 97c0 84 61 154 154 154c67 0 110 -39 110 -101c0 -40 -16 -78 -49 -125l-126 -178c-5 -6 -9 -9 -15 -9zM164 219c44 0 80 36 80 83c0 32 -21 53 -55 53c-44 0 -81 -35 -81 -83
c0 -32 21 -53 56 -53z" />
    <glyph glyph-name="zero.inferior" unicode="&#x2080;" horiz-adv-x="325" 
d="M98 -163c-64 0 -105 37 -105 103c0 44 28 198 46 237c26 55 72 80 133 80c64 0 105 -37 105 -103c0 -44 -28 -198 -46 -237c-26 -55 -72 -80 -133 -80zM107 -105c29 0 48 10 65 41c15 30 40 178 40 214c0 31 -16 49 -49 49c-29 0 -50 -12 -64 -39
c-15 -30 -41 -180 -41 -216c0 -31 16 -49 49 -49z" />
    <glyph glyph-name="one.inferior" unicode="&#x2081;" horiz-adv-x="325" 
d="M141 -156h-44c-6 0 -9 4 -8 10l56 318h-2l-70 -43c-6 -4 -11 0 -10 6l9 48c1 7 3 12 10 16l70 44c7 5 12 7 17 7h43c5 0 9 -4 8 -10l-68 -386c-1 -6 -5 -10 -11 -10z" />
    <glyph glyph-name="two.inferior" unicode="&#x2082;" horiz-adv-x="325" 
d="M211 -156h-226c-6 0 -9 4 -8 10l7 38c1 5 3 9 8 14l174 171c26 25 43 49 43 78c0 27 -16 44 -47 44s-55 -20 -69 -52c-3 -6 -6 -8 -11 -7l-41 9c-5 1 -7 5 -5 11c16 50 63 97 137 97c64 0 100 -39 100 -92c0 -48 -23 -84 -61 -123l-145 -139v-1h153c6 0 9 -4 8 -10
l-6 -38c-1 -6 -6 -10 -11 -10z" />
    <glyph glyph-name="three.inferior" unicode="&#x2083;" horiz-adv-x="325" 
d="M100 -163c-65 0 -103 33 -111 86c-1 6 2 12 7 13l42 10c7 2 9 -1 11 -7c5 -24 23 -44 57 -44c43 0 77 33 77 77c0 31 -20 52 -57 52h-17c-6 0 -9 4 -8 10l6 38c1 6 5 10 12 10h13c42 0 73 29 73 73c0 26 -17 44 -48 44c-32 0 -52 -16 -65 -38c-4 -6 -7 -9 -13 -8l-37 10
c-6 1 -7 5 -5 12c18 44 64 82 132 82c66 0 102 -37 102 -90c0 -47 -20 -84 -63 -109v-1c19 -10 39 -36 39 -74c0 -88 -62 -146 -147 -146z" />
    <glyph glyph-name="four.inferior" unicode="&#x2084;" horiz-adv-x="325" 
d="M182 -156h-42c-5 0 -8 4 -7 10l9 53c1 4 -1 6 -5 6h-155c-6 0 -9 4 -8 10l6 37c1 5 3 10 7 16l170 264c4 6 9 10 16 10h45c5 0 8 -4 4 -10l-169 -269v-1h94c4 0 6 2 7 6l16 91c1 6 6 10 11 10h42c6 0 9 -4 8 -10l-16 -91c-1 -4 1 -6 5 -6h26c6 0 9 -4 8 -10l-7 -38
c-1 -6 -4 -9 -10 -9h-28c-3 0 -5 -2 -6 -6l-9 -53c-1 -6 -6 -10 -12 -10z" />
    <glyph glyph-name="five.inferior" unicode="&#x2085;" horiz-adv-x="325" 
d="M97 -163c-63 0 -96 33 -102 80c-1 6 1 12 7 13l43 15c5 1 9 -1 10 -6c5 -26 20 -43 52 -43c30 0 49 13 62 37c9 16 17 52 17 71c0 31 -17 48 -49 48c-27 0 -44 -11 -54 -26c-4 -5 -8 -8 -13 -8h-44c-6 0 -9 4 -8 10l37 212c1 6 5 10 11 10h210c6 0 9 -4 8 -10l-6 -38
c-1 -6 -5 -10 -10 -10h-154c-4 0 -7 -2 -7 -6l-19 -99h1c14 12 38 23 69 23c52 0 92 -29 92 -87c0 -30 -10 -83 -23 -111c-26 -53 -69 -75 -130 -75z" />
    <glyph glyph-name="six.inferior" unicode="&#x2086;" horiz-adv-x="325" 
d="M98 -163c-67 0 -110 39 -110 101c0 40 16 78 49 125l126 178c5 6 9 9 16 9h51c5 0 7 -6 3 -11l-112 -158l1 -1c8 5 19 8 33 8c58 0 97 -38 97 -97c0 -84 -61 -154 -154 -154zM108 -105c44 0 80 35 80 83c0 32 -21 53 -56 53c-43 0 -80 -36 -80 -83c0 -32 21 -53 56 -53z
" />
    <glyph glyph-name="seven.inferior" unicode="&#x2087;" horiz-adv-x="325" 
d="M72 -156h-45c-6 0 -8 4 -4 11l196 335v2h-111c-4 0 -6 -2 -7 -6l-8 -42c-1 -6 -5 -10 -11 -10h-42c-6 0 -9 4 -8 10l17 96c1 6 5 10 11 10h225c5 0 9 -4 8 -10l-8 -43c-1 -6 -3 -10 -6 -15l-193 -329c-4 -7 -7 -9 -14 -9z" />
    <glyph glyph-name="eight.inferior" unicode="&#x2088;" horiz-adv-x="325" 
d="M97 -163c-67 0 -111 40 -111 100c0 49 26 95 73 121v1c-18 14 -31 36 -31 64c0 72 63 134 144 134c67 0 102 -42 102 -94c0 -42 -22 -80 -59 -104v-2c21 -15 37 -41 37 -74c0 -84 -68 -146 -155 -146zM141 84c37 0 70 32 70 70c0 27 -19 46 -50 46c-36 0 -70 -32 -70 -70
c0 -27 20 -46 50 -46zM107 -106c45 0 82 37 82 80c0 32 -23 54 -58 54c-45 0 -82 -37 -82 -80c0 -32 23 -54 58 -54z" />
    <glyph glyph-name="nine.inferior" unicode="&#x2089;" horiz-adv-x="325" 
d="M91 -156h-52c-5 0 -6 6 -2 11l111 158v1c-8 -5 -20 -8 -34 -8c-58 0 -97 38 -97 97c0 84 61 154 154 154c67 0 110 -39 110 -101c0 -40 -16 -78 -49 -125l-126 -178c-5 -6 -9 -9 -15 -9zM137 63c44 0 80 36 80 83c0 32 -21 53 -55 53c-44 0 -81 -35 -81 -83
c0 -32 21 -53 56 -53z" />
    <glyph glyph-name="zero.numerator" horiz-adv-x="325" 
d="M171 267c-64 0 -105 37 -105 103c0 44 28 198 46 237c26 55 72 80 133 80c64 0 105 -37 105 -103c0 -44 -28 -198 -46 -237c-26 -55 -72 -80 -133 -80zM180 325c29 0 48 10 65 41c15 30 40 178 40 214c0 31 -16 49 -49 49c-29 0 -50 -12 -64 -39
c-15 -30 -41 -180 -41 -216c0 -31 16 -49 49 -49z" />
    <glyph glyph-name="one.numerator" horiz-adv-x="325" 
d="M215 274h-44c-6 0 -9 4 -8 10l56 318h-2l-70 -43c-6 -4 -11 0 -10 6l9 48c1 7 3 12 10 16l70 44c7 5 12 7 17 7h43c5 0 9 -4 8 -10l-68 -386c-1 -6 -5 -10 -11 -10z" />
    <glyph glyph-name="two.numerator" horiz-adv-x="325" 
d="M286 274h-226c-6 0 -9 4 -8 10l7 38c1 5 3 9 8 14l174 171c26 25 43 49 43 78c0 27 -16 44 -47 44s-55 -20 -69 -52c-3 -6 -6 -8 -11 -7l-41 9c-5 1 -7 5 -5 11c16 50 63 97 137 97c64 0 100 -39 100 -92c0 -48 -23 -84 -61 -123l-145 -139v-1h153c6 0 9 -4 8 -10l-6 -38
c-1 -6 -6 -10 -11 -10z" />
    <glyph glyph-name="three.numerator" horiz-adv-x="325" 
d="M174 267c-65 0 -103 33 -111 86c-1 6 2 12 7 13l42 10c7 2 9 -1 11 -7c5 -24 23 -44 57 -44c43 0 77 33 77 77c0 31 -20 52 -57 52h-17c-6 0 -9 4 -8 10l6 38c1 6 5 10 12 10h13c42 0 73 29 73 73c0 26 -17 44 -48 44c-32 0 -52 -16 -65 -38c-4 -6 -7 -9 -13 -8l-37 10
c-6 1 -7 5 -5 12c18 44 64 82 132 82c66 0 102 -37 102 -90c0 -47 -20 -84 -63 -109v-1c19 -10 39 -36 39 -74c0 -88 -62 -146 -147 -146z" />
    <glyph glyph-name="four.numerator" horiz-adv-x="325" 
d="M255 274h-42c-5 0 -8 4 -7 10l9 53c1 4 -1 6 -5 6h-155c-6 0 -9 4 -8 10l6 37c1 5 3 10 7 16l170 264c4 6 9 10 16 10h45c5 0 8 -4 4 -10l-169 -269v-1h94c4 0 6 2 7 6l16 91c1 6 6 10 11 10h42c6 0 9 -4 8 -10l-16 -91c-1 -4 1 -6 5 -6h26c6 0 9 -4 8 -10l-7 -38
c-1 -6 -4 -9 -10 -9h-28c-3 0 -5 -2 -6 -6l-9 -53c-1 -6 -6 -10 -12 -10z" />
    <glyph glyph-name="five.numerator" horiz-adv-x="325" 
d="M172 267c-63 0 -96 33 -102 80c-1 6 1 12 7 13l43 15c5 1 9 -1 10 -6c5 -26 20 -43 52 -43c30 0 49 13 62 37c9 16 17 52 17 71c0 31 -17 48 -49 48c-27 0 -44 -11 -54 -26c-4 -5 -8 -8 -13 -8h-44c-6 0 -9 4 -8 10l37 212c1 6 5 10 11 10h210c6 0 9 -4 8 -10l-6 -38
c-1 -6 -5 -10 -10 -10h-154c-4 0 -7 -2 -7 -6l-19 -99h1c14 12 38 23 69 23c52 0 92 -29 92 -87c0 -30 -10 -83 -23 -111c-26 -53 -69 -75 -130 -75z" />
    <glyph glyph-name="six.numerator" horiz-adv-x="325" 
d="M172 267c-67 0 -110 39 -110 101c0 40 16 78 49 125l126 178c5 6 9 9 16 9h51c5 0 7 -6 3 -11l-112 -158l1 -1c8 5 19 8 33 8c58 0 97 -38 97 -97c0 -84 -61 -154 -154 -154zM182 325c44 0 80 35 80 83c0 32 -21 53 -56 53c-43 0 -80 -36 -80 -83c0 -32 21 -53 56 -53z
" />
    <glyph glyph-name="seven.numerator" horiz-adv-x="325" 
d="M147 274h-45c-6 0 -8 4 -4 11l196 335v2h-111c-4 0 -6 -2 -7 -6l-8 -42c-1 -6 -5 -10 -11 -10h-42c-6 0 -9 4 -8 10l17 96c1 6 5 10 11 10h225c5 0 9 -4 8 -10l-8 -43c-1 -6 -3 -10 -6 -15l-193 -329c-4 -7 -7 -9 -14 -9z" />
    <glyph glyph-name="eight.numerator" horiz-adv-x="325" 
d="M171 267c-67 0 -111 40 -111 100c0 49 26 95 73 121v1c-18 14 -31 36 -31 64c0 72 63 134 144 134c67 0 102 -42 102 -94c0 -42 -22 -80 -59 -104v-2c21 -15 37 -41 37 -74c0 -84 -68 -146 -155 -146zM215 514c37 0 70 32 70 70c0 27 -19 46 -50 46
c-36 0 -70 -32 -70 -70c0 -27 20 -46 50 -46zM181 324c45 0 82 37 82 80c0 32 -23 54 -58 54c-45 0 -82 -37 -82 -80c0 -32 23 -54 58 -54z" />
    <glyph glyph-name="nine.numerator" horiz-adv-x="325" 
d="M165 274h-52c-5 0 -6 6 -2 11l111 158v1c-8 -5 -20 -8 -34 -8c-58 0 -97 38 -97 97c0 84 61 154 154 154c67 0 110 -39 110 -101c0 -40 -16 -78 -49 -125l-126 -178c-5 -6 -9 -9 -15 -9zM211 493c44 0 80 36 80 83c0 32 -21 53 -55 53c-44 0 -81 -35 -81 -83
c0 -32 21 -53 56 -53z" />
    <glyph glyph-name="zero.superior" unicode="&#x2070;" horiz-adv-x="325" 
d="M199 423c-64 0 -105 37 -105 103c0 44 28 198 46 237c26 55 72 80 133 80c64 0 105 -37 105 -103c0 -44 -28 -198 -46 -237c-26 -55 -72 -80 -133 -80zM208 481c29 0 48 10 65 41c15 30 40 178 40 214c0 31 -16 49 -49 49c-29 0 -50 -12 -64 -39
c-15 -30 -41 -180 -41 -216c0 -31 16 -49 49 -49z" />
    <glyph glyph-name="onesuperior" unicode="&#xb9;" horiz-adv-x="325" 
d="M242 430h-44c-6 0 -9 4 -8 10l56 318h-2l-70 -43c-6 -4 -11 0 -10 6l9 48c1 7 3 12 10 16l70 44c7 5 12 7 17 7h43c5 0 9 -4 8 -10l-68 -386c-1 -6 -5 -10 -11 -10z" />
    <glyph glyph-name="twosuperior" unicode="&#xb2;" horiz-adv-x="325" 
d="M313 430h-226c-6 0 -9 4 -8 10l7 38c1 5 3 9 8 14l174 171c26 25 43 49 43 78c0 27 -16 44 -47 44s-55 -20 -69 -52c-3 -6 -6 -8 -11 -7l-41 9c-5 1 -7 5 -5 11c16 50 63 97 137 97c64 0 100 -39 100 -92c0 -48 -23 -84 -61 -123l-145 -139v-1h153c6 0 9 -4 8 -10l-6 -38
c-1 -6 -6 -10 -11 -10z" />
    <glyph glyph-name="threesuperior" unicode="&#xb3;" horiz-adv-x="325" 
d="M201 423c-65 0 -103 33 -111 86c-1 6 2 12 7 13l42 10c7 2 9 -1 11 -7c5 -24 23 -44 57 -44c43 0 77 33 77 77c0 31 -20 52 -57 52h-17c-6 0 -9 4 -8 10l6 38c1 6 5 10 12 10h13c42 0 73 29 73 73c0 26 -17 44 -48 44c-32 0 -52 -16 -65 -38c-4 -6 -7 -9 -13 -8l-37 10
c-6 1 -7 5 -5 12c18 44 64 82 132 82c66 0 102 -37 102 -90c0 -47 -20 -84 -63 -109v-1c19 -10 39 -36 39 -74c0 -88 -62 -146 -147 -146z" />
    <glyph glyph-name="four.superior" unicode="&#x2074;" horiz-adv-x="325" 
d="M283 430h-42c-5 0 -8 4 -7 10l9 53c1 4 -1 6 -5 6h-155c-6 0 -9 4 -8 10l6 37c1 5 3 10 7 16l170 264c4 6 9 10 16 10h45c5 0 8 -4 4 -10l-169 -269v-1h94c4 0 6 2 7 6l16 91c1 6 6 10 11 10h42c6 0 9 -4 8 -10l-16 -91c-1 -4 1 -6 5 -6h26c6 0 9 -4 8 -10l-7 -38
c-1 -6 -4 -9 -10 -9h-28c-3 0 -5 -2 -6 -6l-9 -53c-1 -6 -6 -10 -12 -10z" />
    <glyph glyph-name="five.superior" unicode="&#x2075;" horiz-adv-x="325" 
d="M199 423c-63 0 -96 33 -102 80c-1 6 1 12 7 13l43 15c5 1 9 -1 10 -6c5 -26 20 -43 52 -43c30 0 49 13 62 37c9 16 17 52 17 71c0 31 -17 48 -49 48c-27 0 -44 -11 -54 -26c-4 -5 -8 -8 -13 -8h-44c-6 0 -9 4 -8 10l37 212c1 6 5 10 11 10h210c6 0 9 -4 8 -10l-6 -38
c-1 -6 -5 -10 -10 -10h-154c-4 0 -7 -2 -7 -6l-19 -99h1c14 12 38 23 69 23c52 0 92 -29 92 -87c0 -30 -10 -83 -23 -111c-26 -53 -69 -75 -130 -75z" />
    <glyph glyph-name="six.superior" unicode="&#x2076;" horiz-adv-x="325" 
d="M199 423c-67 0 -110 39 -110 101c0 40 16 78 49 125l126 178c5 6 9 9 16 9h51c5 0 7 -6 3 -11l-112 -158l1 -1c8 5 19 8 33 8c58 0 97 -38 97 -97c0 -84 -61 -154 -154 -154zM209 481c44 0 80 35 80 83c0 32 -21 53 -56 53c-43 0 -80 -36 -80 -83c0 -32 21 -53 56 -53z
" />
    <glyph glyph-name="seven.superior" unicode="&#x2077;" horiz-adv-x="325" 
d="M174 430h-45c-6 0 -8 4 -4 11l196 335v2h-111c-4 0 -6 -2 -7 -6l-8 -42c-1 -6 -5 -10 -11 -10h-42c-6 0 -9 4 -8 10l17 96c1 6 5 10 11 10h225c5 0 9 -4 8 -10l-8 -43c-1 -6 -3 -10 -6 -15l-193 -329c-4 -7 -7 -9 -14 -9z" />
    <glyph glyph-name="eight.superior" unicode="&#x2078;" horiz-adv-x="325" 
d="M198 423c-67 0 -111 40 -111 100c0 49 26 95 73 121v1c-18 14 -31 36 -31 64c0 72 63 134 144 134c67 0 102 -42 102 -94c0 -42 -22 -80 -59 -104v-2c21 -15 37 -41 37 -74c0 -84 -68 -146 -155 -146zM242 670c37 0 70 32 70 70c0 27 -19 46 -50 46
c-36 0 -70 -32 -70 -70c0 -27 20 -46 50 -46zM208 480c45 0 82 37 82 80c0 32 -23 54 -58 54c-45 0 -82 -37 -82 -80c0 -32 23 -54 58 -54z" />
    <glyph glyph-name="nine.superior" unicode="&#x2079;" horiz-adv-x="325" 
d="M192 430h-52c-5 0 -6 6 -2 11l111 158v1c-8 -5 -20 -8 -34 -8c-58 0 -97 38 -97 97c0 84 61 154 154 154c67 0 110 -39 110 -101c0 -40 -16 -78 -49 -125l-126 -178c-5 -6 -9 -9 -15 -9zM238 649c44 0 80 36 80 83c0 32 -21 53 -55 53c-44 0 -81 -35 -81 -83
c0 -32 21 -53 56 -53z" />
    <glyph glyph-name="interrobang" unicode="&#x203d;" horiz-adv-x="437" 
d="M179 181c-6 0 -9 4 -8 10l37 289c1 7 5 10 10 10h62c6 0 9 -4 8 -10l-22 -118h2l28 33c48 56 74 105 74 146c0 47 -30 76 -79 76c-55 0 -96 -28 -118 -86c-2 -6 -6 -9 -12 -8l-57 10c-6 1 -7 5 -5 11c30 97 105 147 205 147c91 0 147 -57 147 -138
c0 -61 -22 -109 -75 -169l-78 -89c-24 -28 -38 -42 -44 -77l-5 -27c-1 -6 -5 -10 -11 -10h-59zM136 10l13 83c1 6 5 10 11 10h71c6 0 9 -4 8 -10l-13 -83c-1 -6 -5 -10 -11 -10h-71c-6 0 -9 4 -8 10z" />
    <glyph glyph-name="afii61248" unicode="&#x2105;" horiz-adv-x="748" 
d="M114 -1l500 682c5 7 8 10 15 10h44c6 0 8 -5 4 -10l-499 -682c-5 -7 -9 -10 -16 -10h-44c-6 0 -8 5 -4 10zM221 330c-65 0 -111 38 -111 111c0 55 14 115 34 159c28 62 82 88 139 88c52 0 88 -23 101 -68c1 -4 0 -7 -4 -9l-41 -23c-3 -2 -6 -1 -8 2c-10 34 -26 44 -51 44
c-29 0 -50 -7 -70 -49c-20 -43 -28 -97 -28 -126c0 -41 8 -71 55 -71c27 0 50 17 68 45c2 3 6 4 10 1l30 -27c4 -3 3 -7 0 -11c-30 -43 -68 -66 -124 -66zM515 -10c-72 0 -101 44 -101 114c0 56 19 130 34 162c28 58 69 84 128 84c72 0 108 -44 108 -115
c0 -55 -19 -134 -34 -166c-27 -60 -76 -79 -135 -79zM528 45c34 0 55 17 71 58c7 20 19 82 19 117c0 50 -8 73 -51 73c-34 0 -49 -17 -64 -57c-9 -21 -22 -81 -22 -120c0 -47 8 -71 47 -71z" />
    <glyph glyph-name="published" unicode="&#x2117;" horiz-adv-x="828" 
d="M414 -11c-198 0 -351 153 -351 351s153 351 351 351s351 -153 351 -351s-153 -351 -351 -351zM414 50c164 0 288 124 288 290s-124 290 -288 290s-288 -124 -288 -290s124 -290 288 -290zM346 140h-47c-5 0 -9 4 -9 9v368c0 6 4 9 9 9h118c93 0 160 -30 160 -121
c0 -101 -67 -133 -160 -133h-57c-3 0 -5 -2 -5 -5v-118c0 -5 -3 -9 -9 -9zM405 326c63 0 107 14 107 73c0 52 -41 68 -107 68h-46c-2 0 -4 -2 -4 -4v-133c0 -2 2 -4 4 -4h46z" />
    <glyph glyph-name="uni0406" unicode="&#x406;" horiz-adv-x="245" 
d="M54 0c-6 0 -10 4 -9 10l117 660c1 6 5 10 11 10h64c6 0 9 -4 8 -10l-117 -660c-1 -6 -4 -10 -10 -10h-64z" />
    <glyph glyph-name="uni0456" unicode="&#x456;" horiz-adv-x="238" 
d="M52 0c-6 0 -10 4 -9 10l81 459c1 6 5 10 11 10h61c6 0 9 -4 8 -10l-82 -459c-1 -6 -4 -10 -10 -10h-60zM153 591c-6 0 -9 4 -8 10l12 69c1 6 5 10 11 10h66c6 0 9 -4 8 -10l-12 -69c-1 -7 -5 -10 -12 -10h-65z" />
    <glyph glyph-name="uni0408" unicode="&#x408;" horiz-adv-x="473" 
d="M159 -11c-64 0 -126 34 -151 73c-2 4 -3 10 3 14l50 35c5 4 10 4 15 -2c21 -22 53 -41 90 -41c76 0 128 44 146 147l80 455c1 6 5 10 11 10h64c6 0 9 -4 8 -10l-81 -455c-30 -169 -109 -226 -235 -226z" />
    <glyph glyph-name="uni0458" unicode="&#x458;" horiz-adv-x="238" 
d="M-65 -180c-6 0 -9 4 -8 10l9 53c1 7 6 10 12 10h13c46 0 64 15 73 67l90 509c1 6 5 10 11 10h61c6 0 9 -4 8 -10l-90 -508c-20 -112 -59 -141 -160 -141h-19zM153 591c-6 0 -9 4 -8 10l12 69c1 6 5 10 11 10h66c6 0 9 -4 8 -10l-12 -69c-1 -7 -5 -10 -12 -10h-65z" />
    <glyph glyph-name="uni0410" unicode="&#x410;" horiz-adv-x="586" 
d="M-6 0c-6 0 -8 4 -5 10l344 660c3 6 7 10 14 10h60c7 0 10 -4 11 -10l107 -660c1 -6 -2 -10 -8 -10h-62c-6 0 -10 3 -11 10l-24 152h-265l-78 -152c-3 -7 -7 -10 -13 -10h-70zM194 238h215l-49 316h-3z" />
    <glyph glyph-name="uni0411" unicode="&#x411;" horiz-adv-x="585" 
d="M54 0c-6 0 -10 5 -9 10l117 661c1 5 4 9 11 9h382c6 0 10 -4 9 -9l-11 -60c-1 -6 -5 -9 -11 -9h-302c-4 0 -6 -2 -7 -6l-36 -196c-1 -4 1 -6 5 -6h149c109 0 183 -60 183 -165c0 -146 -101 -229 -240 -229h-240zM146 78h151c90 0 154 55 154 148c0 57 -38 90 -109 90
h-153c-4 0 -6 -2 -7 -6l-41 -226c-1 -4 1 -6 5 -6z" />
    <glyph glyph-name="uni0412" unicode="&#x412;" horiz-adv-x="583" 
d="M54 0c-6 0 -10 4 -9 10l117 660c1 6 5 10 11 10h227c113 0 170 -55 170 -146c0 -88 -40 -150 -117 -182v-4c35 -12 75 -50 75 -120c0 -140 -86 -228 -247 -228h-227zM145 76h154c89 0 146 58 146 140c0 55 -35 91 -105 91h-153c-4 0 -6 -2 -7 -6l-39 -219
c-1 -4 0 -6 4 -6zM200 384h148c84 0 139 57 139 133c0 54 -35 87 -99 87h-149c-4 0 -6 -2 -7 -6l-36 -208c-1 -4 1 -6 4 -6z" />
    <glyph glyph-name="uni0413" unicode="&#x413;" horiz-adv-x="480" 
d="M54 0c-7 0 -10 4 -9 10l117 660c1 6 5 10 11 10h367c5 0 10 -3 9 -10l-11 -59c-1 -6 -5 -9 -11 -9h-287c-4 0 -6 -2 -7 -6l-104 -586c-1 -6 -4 -10 -11 -10h-64z" />
    <glyph glyph-name="uni0414" unicode="&#x414;" horiz-adv-x="653" 
d="M-50 -154c-4 0 -7 4 -6 9l36 213c1 6 6 10 11 10h42c6 0 12 3 15 7c73 106 126 205 179 536l8 50c1 5 4 9 11 9h383c7 0 9 -5 8 -10l-104 -586c-1 -4 1 -6 5 -6h63c5 0 9 -4 8 -10l-37 -213c-1 -5 -6 -9 -11 -9h-62c-4 0 -7 4 -6 9l24 139c1 4 0 6 -4 6h-459
c-4 0 -7 -2 -8 -6l-24 -139c-1 -5 -6 -9 -11 -9h-61zM142 78h301c4 0 6 2 7 6l91 512c1 4 -1 6 -5 6h-224c-4 0 -6 -2 -7 -6l-2 -9c-53 -293 -99 -413 -164 -503c-2 -3 -2 -6 3 -6z" />
    <glyph glyph-name="uni0415" unicode="&#x415;" horiz-adv-x="540" 
d="M54 0c-6 0 -10 4 -9 10l117 660c1 6 5 10 11 10h390c6 0 10 -4 9 -10l-10 -58c-1 -6 -6 -10 -12 -10h-311c-4 0 -6 -2 -7 -6l-36 -207c-1 -4 1 -6 5 -6h264c6 0 9 -4 8 -10l-10 -58c-1 -6 -6 -10 -12 -10h-264c-4 0 -6 -2 -7 -6l-39 -215c-1 -4 1 -6 5 -6h311
c6 0 9 -4 8 -10l-10 -58c-1 -6 -5 -10 -11 -10h-390z" />
    <glyph glyph-name="uni0416" unicode="&#x416;" horiz-adv-x="897" 
d="M-12 -3c-6 0 -10 4 -9 10l11 59c1 6 5 9 11 9h14c46 0 61 13 86 58l76 136c24 42 58 76 101 84v4c-31 18 -46 51 -56 89l-28 103c-10 39 -24 57 -68 57h-10c-5 0 -9 3 -8 9l10 58c1 7 5 10 11 10h22c59 0 97 -28 115 -96l33 -125c9 -37 32 -79 83 -79h48c4 0 6 2 7 6
l50 281c1 6 5 10 11 10h63c6 0 10 -4 9 -10l-50 -281c-1 -4 1 -6 5 -6h46c54 0 87 41 109 78l83 140c40 68 65 82 137 82h28c5 0 10 -4 9 -10l-10 -58c-1 -6 -7 -9 -12 -9h-10c-42 0 -55 -9 -80 -51l-65 -112c-28 -49 -57 -79 -94 -90v-4c40 -7 55 -46 66 -87l35 -126
c12 -44 20 -61 63 -61h15c6 0 10 -4 9 -10l-11 -58c-1 -7 -5 -10 -11 -10h-35c-67 0 -92 39 -110 106l-37 140c-13 49 -43 62 -92 62h-46c-4 0 -6 -2 -7 -6l-52 -289c-1 -6 -5 -10 -11 -10h-63c-6 0 -10 4 -9 10l51 289c1 4 -1 6 -5 6h-51c-45 0 -78 -13 -106 -62l-89 -154
c-39 -67 -68 -92 -147 -92h-35z" />
    <glyph glyph-name="uni0417" unicode="&#x417;" horiz-adv-x="534" 
d="M219 -11c-94 0 -175 38 -215 88c-3 4 -1 9 4 14l43 44c4 4 10 4 12 0c39 -39 91 -68 157 -68c95 0 171 56 171 147c0 62 -44 93 -120 93h-70c-4 0 -9 5 -8 11l9 57c1 6 8 9 12 9h70c79 0 152 55 152 141c0 57 -46 89 -120 89c-63 0 -111 -24 -163 -64c-6 -4 -13 -4 -16 1
l-29 43c-3 5 -4 10 2 14c67 52 134 83 214 83c130 0 195 -56 195 -161c0 -76 -44 -149 -122 -177v-4c51 -17 78 -70 78 -132c0 -138 -100 -228 -256 -228z" />
    <glyph glyph-name="uni0418" unicode="&#x418;" horiz-adv-x="642" 
d="M54 0c-7 0 -10 5 -9 10l117 661c1 5 5 9 11 9h65c5 0 9 -4 8 -9l-92 -510h3l401 513c4 5 8 6 12 6h63c7 0 10 -4 9 -9l-117 -661c-1 -5 -5 -10 -11 -10h-64c-6 0 -10 5 -9 10l92 510h-3l-401 -512c-5 -6 -8 -8 -14 -8h-61z" />
    <glyph glyph-name="uni0419" unicode="&#x419;" horiz-adv-x="642" 
d="M412 754c-71 0 -112 38 -117 107c0 8 2 12 7 13l37 5c6 1 9 -1 10 -6c7 -34 25 -61 70 -61c44 0 71 30 89 62c2 5 6 6 12 5l36 -6c4 -1 5 -6 2 -13c-26 -70 -75 -106 -146 -106zM54 0c-7 0 -10 5 -9 10l117 661c1 5 5 9 11 9h65c5 0 9 -4 8 -9l-92 -510h3l401 513
c4 5 8 6 12 6h63c7 0 10 -4 9 -9l-117 -661c-1 -5 -5 -10 -11 -10h-64c-6 0 -10 5 -9 10l92 510h-3l-401 -512c-5 -6 -8 -8 -14 -8h-61z" />
    <glyph glyph-name="uni041A" unicode="&#x41a;" horiz-adv-x="593" 
d="M54 0c-6 0 -10 4 -9 10l117 660c1 6 5 10 11 10h64c6 0 9 -4 8 -10l-50 -281c-1 -4 1 -6 5 -6h67c51 0 87 40 109 78l84 143c40 68 72 79 136 79h28c5 0 10 -4 9 -10l-10 -58c-1 -6 -7 -9 -12 -9h-10c-41 0 -55 -8 -80 -51l-65 -112c-30 -51 -57 -79 -94 -90v-4
c40 -8 55 -46 66 -87l35 -126c12 -44 20 -61 63 -61h15c6 0 10 -4 9 -10l-10 -58c-1 -7 -6 -10 -11 -10h-30c-68 0 -96 31 -114 98l-39 148c-13 49 -47 62 -92 62h-67c-4 0 -6 -2 -7 -6l-51 -289c-1 -6 -5 -10 -11 -10h-64z" />
    <glyph glyph-name="uni041B" unicode="&#x41b;" horiz-adv-x="644" 
d="M-26 -3c-4 0 -9 4 -8 11l11 58c1 6 6 9 10 9h11c80 0 148 38 197 317l49 279c1 5 4 9 11 9h380c7 0 10 -4 9 -9l-117 -661c-1 -5 -5 -10 -10 -10h-65c-5 0 -9 5 -8 10l104 586c1 4 -1 6 -5 6h-223c-4 0 -6 -2 -7 -6l-39 -224c-53 -304 -134 -375 -260 -375h-40z" />
    <glyph glyph-name="uni041C" unicode="&#x41c;" horiz-adv-x="726" 
d="M54 0c-6 0 -10 4 -9 10l117 660c1 6 5 10 11 10h55c8 0 11 -3 13 -10l117 -458h3l277 458c4 7 9 10 15 10h64c6 0 10 -4 9 -10l-117 -660c-1 -6 -5 -10 -11 -10h-58c-6 0 -9 4 -8 10l86 480h-3l-235 -381c-5 -8 -10 -12 -19 -12h-36c-9 0 -14 4 -16 13l-98 381h-3
l-86 -481c-1 -6 -5 -10 -11 -10h-57z" />
    <glyph glyph-name="uni041D" unicode="&#x41d;" horiz-adv-x="627" 
d="M54 0c-6 0 -10 4 -9 10l117 660c1 6 5 10 11 10h64c6 0 9 -4 8 -10l-50 -281c-1 -4 1 -6 5 -6h287c4 0 6 2 7 6l50 281c1 6 4 10 10 10h64c6 0 10 -4 9 -10l-117 -660c-1 -6 -5 -10 -11 -10h-64c-6 0 -9 4 -8 10l51 289c1 4 -1 6 -5 6h-286c-4 0 -6 -2 -7 -6l-52 -289
c-1 -6 -4 -10 -10 -10h-64z" />
    <glyph glyph-name="uni041E" unicode="&#x41e;" horiz-adv-x="593" 
d="M257 -11c-119 0 -197 70 -197 199c0 66 35 277 71 351c52 105 132 152 248 152c119 0 197 -70 197 -199c0 -66 -35 -277 -72 -351c-51 -105 -131 -152 -247 -152zM270 67c73 0 126 39 158 104s63 254 63 313c0 81 -45 129 -125 129c-73 0 -126 -39 -158 -104
s-63 -254 -63 -313c0 -81 45 -129 125 -129z" />
    <glyph glyph-name="uni041F" unicode="&#x41f;" horiz-adv-x="620" 
d="M54 0c-6 0 -10 5 -9 10l117 661c1 5 4 9 11 9h438c7 0 10 -4 9 -9l-117 -661c-1 -5 -5 -10 -10 -10h-65c-5 0 -9 5 -8 10l104 586c1 4 -1 6 -5 6h-279c-4 0 -6 -2 -7 -6l-104 -586c-1 -5 -5 -10 -11 -10h-64z" />
    <glyph glyph-name="uni0420" unicode="&#x420;" horiz-adv-x="568" 
d="M54 0c-6 0 -9 4 -8 10l116 660c1 6 5 10 11 10h231c112 0 176 -61 176 -159c0 -159 -103 -244 -246 -244h-151c-4 0 -6 -2 -7 -6l-47 -261c-1 -6 -5 -10 -11 -10h-64zM196 355h145c92 0 156 57 156 153c0 59 -39 94 -110 94h-147c-4 0 -6 -2 -7 -6l-42 -235
c-1 -4 1 -6 5 -6z" />
    <glyph glyph-name="uni0421" unicode="&#x421;" horiz-adv-x="544" 
d="M255 -11c-118 0 -195 70 -195 199c0 66 35 276 71 349c52 107 129 154 239 154c92 0 159 -51 183 -140c2 -5 0 -8 -6 -11l-55 -26c-6 -3 -11 0 -12 5c-18 56 -54 94 -120 94c-71 0 -120 -37 -153 -104c-31 -65 -62 -254 -62 -313c0 -80 42 -129 123 -129
c64 0 114 39 149 93c3 5 8 7 13 5l52 -28c5 -2 5 -7 2 -12c-58 -96 -132 -136 -229 -136z" />
    <glyph glyph-name="uni0422" unicode="&#x422;" horiz-adv-x="514" 
d="M188 0c-5 0 -9 4 -8 10l104 586c1 4 -1 6 -5 6h-180c-6 0 -9 4 -8 10l10 58c1 6 5 10 11 10h454c6 0 10 -4 9 -10l-10 -58c-1 -6 -6 -10 -12 -10h-180c-3 0 -5 -2 -6 -6l-104 -586c-1 -6 -5 -10 -11 -10h-64z" />
    <glyph glyph-name="uni0423" unicode="&#x423;" horiz-adv-x="537" 
d="M54 -3c-5 0 -10 3 -9 10l10 59c1 6 6 9 11 9h36c45 0 68 21 94 65l35 57l-137 472c-2 8 2 11 7 11h67c8 0 10 -3 12 -9l106 -378h3l218 378c3 5 5 9 14 9h72c6 0 8 -4 4 -11l-335 -561c-37 -63 -82 -111 -155 -111h-53z" />
    <glyph glyph-name="uni0424" unicode="&#x424;" horiz-adv-x="735" 
d="M296 -11c-5 0 -9 5 -8 10l13 74c1 4 -1 6 -5 6c-157 10 -236 103 -236 235c0 185 134 303 332 309c4 0 6 2 7 6l10 54c1 5 4 8 11 8h64c7 0 10 -3 9 -8l-10 -54c-1 -4 1 -6 5 -6c153 -8 239 -100 239 -231c0 -187 -138 -305 -335 -313c-4 0 -6 -2 -7 -6l-13 -74
c-1 -5 -5 -10 -11 -10h-65zM310 156c4 0 6 2 7 6l67 378c1 4 -1 5 -5 5c-133 -2 -235 -86 -235 -228c0 -92 56 -155 166 -161zM406 156c133 5 236 91 236 234c0 91 -56 151 -166 155c-4 0 -7 -1 -8 -5l-68 -378c-1 -4 2 -6 6 -6z" />
    <glyph glyph-name="uni0425" unicode="&#x425;" horiz-adv-x="539" 
d="M-6 0c-6 0 -8 6 -4 12l258 343l-124 313c-3 6 0 12 7 12h70c7 0 10 -3 13 -9l91 -234h1l176 234c5 6 8 9 16 9h74c6 0 8 -6 4 -12l-235 -313l136 -343c3 -6 -1 -12 -7 -12h-69c-7 0 -11 3 -13 9l-102 264h-2l-199 -264c-5 -6 -8 -9 -14 -9h-77z" />
    <glyph glyph-name="uni0426" unicode="&#x426;" horiz-adv-x="635" 
d="M483 -154c-5 0 -8 4 -7 9l24 139c1 4 0 6 -4 6h-442c-6 0 -10 4 -9 9l117 661c1 5 5 10 11 10h64c6 0 10 -5 9 -10l-105 -586c-1 -4 1 -6 5 -6h279c4 0 6 2 7 6l105 586c1 5 4 10 10 10h64c6 0 10 -5 9 -10l-105 -586c-1 -4 1 -6 5 -6h63c5 0 10 -4 9 -10l-37 -213
c-1 -5 -6 -9 -11 -9h-61z" />
    <glyph glyph-name="uni0427" unicode="&#x427;" horiz-adv-x="591" 
d="M398 0c-5 0 -9 5 -8 10l46 262c1 5 -3 6 -8 5c-44 -14 -112 -29 -171 -29c-104 0 -176 54 -152 191l42 232c1 5 4 9 11 9h63c7 0 10 -4 9 -9l-41 -232c-16 -93 36 -113 97 -113c55 0 110 11 155 27c7 2 10 7 11 12l55 306c1 5 3 9 10 9h64c7 0 10 -4 9 -9l-117 -661
c-1 -5 -5 -10 -10 -10h-65z" />
    <glyph glyph-name="uni0428" unicode="&#x428;" horiz-adv-x="909" 
d="M54 0c-6 0 -10 4 -9 9l117 661c1 5 5 10 11 10h64c6 0 10 -5 9 -10l-105 -586c-1 -4 1 -6 5 -6h236c4 0 6 2 7 6l105 586c1 5 5 10 9 10h66c5 0 9 -5 8 -10l-104 -586c-1 -4 1 -6 5 -6h236c4 0 6 2 7 6l104 586c1 5 4 10 10 10h65c6 0 10 -5 9 -10l-117 -661
c-1 -5 -5 -9 -11 -9h-727z" />
    <glyph glyph-name="uni0429" unicode="&#x429;" horiz-adv-x="924" 
d="M771 -154c-6 0 -9 4 -8 9l24 139c1 4 0 6 -4 6h-729c-6 0 -10 4 -9 9l117 661c1 5 5 10 11 10h64c6 0 10 -5 9 -10l-105 -586c-1 -4 1 -6 5 -6h236c4 0 6 2 7 6l105 586c1 5 5 10 9 10h66c5 0 9 -5 8 -10l-104 -586c-1 -4 1 -6 5 -6h236c4 0 6 2 7 6l104 586
c1 5 4 10 10 10h65c6 0 10 -5 9 -10l-104 -586c-1 -4 1 -6 5 -6h61c5 0 9 -4 8 -10l-37 -213c-1 -5 -6 -9 -11 -9h-60z" />
    <glyph glyph-name="uni042A" unicode="&#x42a;" horiz-adv-x="683" 
d="M157 0c-7 0 -10 4 -9 10l104 586c1 4 -1 6 -5 6h-148c-5 0 -9 4 -8 9l10 60c1 6 5 9 10 9h228c6 0 10 -4 9 -10l-45 -258c-1 -4 1 -6 5 -6h151c119 0 185 -74 185 -174c0 -147 -103 -232 -245 -232h-242zM249 78h156c90 0 155 58 155 154c0 59 -40 96 -112 96h-154
c-4 0 -6 -2 -7 -6l-43 -238c-1 -4 1 -6 5 -6z" />
    <glyph glyph-name="uni042B" unicode="&#x42b;" horiz-adv-x="784" 
d="M54 0c-7 0 -10 4 -9 10l117 660c1 6 5 10 11 10h64c6 0 10 -4 9 -10l-46 -258c-1 -4 1 -6 5 -6h141c120 0 185 -74 185 -174c0 -147 -103 -232 -245 -232h-232zM146 78h146c91 0 155 58 155 154c0 59 -39 96 -111 96h-145c-4 0 -6 -2 -7 -6l-43 -238c-1 -4 1 -6 5 -6z
M593 0c-6 0 -10 4 -9 10l117 660c1 6 4 10 11 10h63c7 0 10 -4 9 -10l-117 -660c-1 -6 -5 -10 -11 -10h-63z" />
    <glyph glyph-name="uni042C" unicode="&#x42c;" horiz-adv-x="580" 
d="M54 0c-7 0 -10 4 -9 10l117 660c1 6 5 10 11 10h64c6 0 10 -4 9 -10l-46 -258c-1 -4 1 -6 5 -6h151c120 0 185 -74 185 -174c0 -147 -103 -232 -245 -232h-242zM146 78h156c91 0 155 58 155 154c0 59 -39 96 -111 96h-155c-4 0 -6 -2 -7 -6l-43 -238c-1 -4 1 -6 5 -6z
" />
    <glyph glyph-name="uni042D" unicode="&#x42d;" horiz-adv-x="550" 
d="M219 -11c-99 0 -170 49 -193 133c-2 5 -1 10 6 13l54 24c7 3 11 1 13 -4c18 -56 55 -88 125 -88c61 0 113 21 150 82c21 33 36 76 50 149c1 5 -2 7 -6 7h-212c-4 0 -8 3 -7 9l10 60c1 6 7 9 11 9h212c5 0 7 2 8 6c4 30 8 63 8 90c0 77 -40 134 -129 134
c-73 0 -113 -36 -150 -89c-4 -5 -10 -6 -14 -4l-52 28c-5 3 -5 8 -1 13c54 86 127 130 227 130c124 0 204 -70 204 -212c0 -67 -32 -283 -92 -374c-55 -83 -122 -116 -222 -116z" />
    <glyph glyph-name="uni042E" unicode="&#x42e;" horiz-adv-x="814" 
d="M485 -11c-112 0 -190 67 -190 184c0 28 4 65 14 127c1 4 -1 6 -5 6h-117c-4 0 -7 -2 -8 -6l-51 -290c-1 -6 -5 -10 -10 -10h-64c-6 0 -10 4 -9 10l117 660c1 6 4 10 11 10h64c6 0 9 -4 8 -10l-50 -280c-1 -4 1 -6 5 -6h117c4 0 6 2 7 6c16 79 30 126 44 154
c49 99 128 147 234 147c115 0 195 -67 195 -190c0 -61 -37 -292 -74 -365c-49 -99 -128 -147 -238 -147zM497 67c69 0 119 33 150 95c31 63 66 277 66 330c0 72 -35 121 -116 121c-69 0 -121 -34 -152 -96c-33 -63 -65 -283 -65 -333c0 -68 41 -117 117 -117z" />
    <glyph glyph-name="uni042F" unicode="&#x42f;" horiz-adv-x="591" 
d="M-11 -3c-6 0 -10 4 -9 10l10 59c1 6 6 9 11 9h16c46 0 61 18 87 58l65 102c15 24 37 54 64 64v4c-70 15 -127 59 -127 158c0 136 105 219 241 219h235c7 0 10 -4 9 -9l-117 -661c-1 -5 -5 -10 -11 -10h-63c-6 0 -10 5 -9 10l47 265c1 4 -1 6 -5 6h-77
c-40 0 -70 -12 -100 -59l-86 -135c-42 -66 -67 -90 -141 -90h-40zM302 359h144c4 0 6 2 7 6l42 231c1 4 -1 6 -5 6h-144c-87 0 -156 -50 -156 -141c0 -63 45 -102 112 -102z" />
    <glyph glyph-name="uni0430" unicode="&#x430;" horiz-adv-x="498" 
d="M171 -11c-78 0 -132 47 -132 121c0 111 76 169 208 169h105c4 0 6 2 7 6l7 39c12 68 -7 96 -92 96c-55 0 -92 -17 -118 -37c-6 -4 -12 -4 -14 1l-18 45c-2 5 -1 10 3 13c39 29 99 48 165 48c127 0 172 -46 151 -162l-56 -318c-1 -6 -5 -10 -11 -10h-55c-6 0 -9 4 -8 10
l7 43h-1c-27 -37 -76 -64 -148 -64zM202 56c72 0 124 37 134 98l10 56c1 4 -1 6 -5 6h-92c-94 0 -131 -35 -131 -95c0 -40 27 -65 84 -65z" />
    <glyph glyph-name="uni0431" unicode="&#x431;" horiz-adv-x="509" 
d="M231 -11c-105 0 -171 59 -171 170c0 52 12 108 24 172c24 128 41 205 116 266c58 46 136 51 204 57c26 2 43 10 48 28c1 5 4 8 11 8h59c6 0 7 -5 6 -9c-11 -76 -51 -96 -120 -102c-70 -7 -126 -5 -180 -48c-43 -34 -54 -79 -66 -136h3c33 49 88 79 157 79
c97 0 149 -66 149 -173c0 -81 -26 -183 -82 -245c-36 -41 -86 -67 -158 -67zM235 62c47 0 85 20 111 65c26 47 42 126 42 173c0 81 -36 103 -92 103c-52 0 -95 -26 -125 -96c-18 -41 -31 -105 -31 -139c0 -82 43 -106 95 -106z" />
    <glyph glyph-name="uni0432" unicode="&#x432;" horiz-adv-x="498" 
d="M52 0c-6 0 -10 5 -9 9l81 461c1 5 6 9 12 9h204c84 0 122 -40 122 -103c0 -57 -27 -107 -82 -125v-4c33 -11 55 -42 55 -84c0 -98 -63 -163 -174 -163h-209zM139 69h124c56 0 93 34 93 86c0 34 -21 57 -67 57h-125c-4 0 -6 -2 -7 -6l-23 -131c-1 -4 1 -6 5 -6zM176 279
h123c46 0 84 33 84 79c0 35 -21 53 -64 53h-120c-4 0 -6 -2 -7 -5l-21 -123c-1 -2 1 -4 5 -4z" />
    <glyph glyph-name="uni0433" unicode="&#x433;" horiz-adv-x="390" 
d="M51 0c-5 0 -9 5 -8 9l81 461c1 6 7 9 11 9h279c5 0 10 -3 9 -9l-9 -54c-1 -7 -7 -9 -12 -9h-204c-4 0 -6 -2 -7 -6l-69 -392c-1 -4 -5 -9 -10 -9h-61z" />
    <glyph glyph-name="uni0434" unicode="&#x434;" horiz-adv-x="545" 
d="M-41 -124c-4 0 -7 4 -6 9l30 179c1 5 6 9 11 9h33c8 0 16 3 22 12c41 61 78 121 106 284l18 101c1 5 4 9 11 9h307c6 0 9 -4 8 -9l-69 -391c-1 -4 1 -6 5 -6h52c5 0 8 -4 7 -9l-31 -179c-1 -5 -6 -9 -11 -9h-54c-6 0 -9 4 -8 9l18 109c1 4 0 6 -4 6h-351
c-4 0 -7 -2 -8 -6l-19 -109c-1 -5 -6 -9 -10 -9h-57zM131 73h213c4 0 6 2 7 6l57 322c1 4 -1 6 -5 6h-159c-4 0 -6 -2 -7 -6l-12 -67c-24 -136 -61 -207 -96 -255c-3 -3 -1 -6 2 -6z" />
    <glyph glyph-name="uni0435" unicode="&#x435;" horiz-adv-x="485" 
d="M212 -11c-109 0 -166 62 -166 168c0 62 14 150 42 207c38 80 105 126 202 126c92 0 160 -56 160 -163c0 -25 -3 -52 -12 -101c-1 -6 -6 -10 -12 -10h-293c-4 0 -6 -2 -7 -6c-3 -16 -3 -27 -3 -41c0 -73 34 -107 102 -107c52 0 98 25 130 57c6 5 12 5 15 1l31 -35
c4 -4 4 -10 -1 -15c-45 -46 -110 -81 -188 -81zM145 279h216c4 0 7 2 8 6c3 14 4 29 4 40c0 64 -33 95 -93 95c-52 0 -96 -26 -120 -76c-8 -16 -15 -39 -19 -59c-1 -4 0 -6 4 -6z" />
    <glyph glyph-name="uni0436" unicode="&#x436;" horiz-adv-x="725" 
d="M-10 -3c-6 0 -10 4 -9 10l9 54c1 6 6 9 12 9h5c40 0 53 11 74 50l36 68c19 35 48 58 77 62v4c-16 10 -24 28 -31 55l-14 56c-10 38 -28 46 -60 46h-10c-7 0 -10 4 -9 10l9 52c1 6 6 9 12 9h24c54 0 89 -21 101 -76l15 -66c9 -39 31 -59 68 -59h27c4 0 6 2 7 6l33 183
c1 5 6 9 11 9h60c5 0 9 -4 8 -9l-32 -183c-1 -4 1 -6 5 -6h31c36 0 64 25 82 59l43 80c30 56 62 62 117 62h27c6 0 10 -4 9 -10l-9 -51c-1 -7 -6 -10 -12 -10h-7c-31 0 -45 -4 -67 -42l-34 -60c-16 -28 -38 -51 -60 -56v-4c24 -7 40 -27 48 -61l16 -62c10 -37 22 -56 55 -56
h12c6 0 9 -4 8 -10l-9 -54c-1 -6 -5 -9 -11 -9h-24c-58 0 -92 36 -106 93l-16 67c-11 46 -45 53 -77 53h-28c-4 0 -7 -2 -8 -6l-34 -195c-1 -4 -5 -9 -11 -9h-59c-6 0 -10 5 -9 9l34 195c1 4 -1 6 -5 6h-33c-26 0 -65 -2 -91 -53l-41 -82c-31 -62 -62 -78 -123 -78h-36z" />
    </font>
</defs>
</svg>
